<svg xmlns="http://www.w3.org/2000/svg" xml:space="preserve" width="1000px" height="969px" x="0px" y="0px" viewBox="0 0 1000 969"><path fill="#FFF" d="M243.324 12.277c-26.942 13.41-47.229 36.74-56.73 65.338L5.858 621.053c-9.576 28.456-7.342 59.313 6.178 86.321 13.497 26.834 36.877 47.041 65.282 56.523l592.826 199.061c28.947 9.501 59.469 7.444 86.452-6.154 27.114-13.656 47.238-36.729 56.688-65.385L994.201 348.07c19.731-59.062-12.548-123.277-71.684-142.999L329.645 5.957c-28.825-9.415-59.361-7.321-86.321 6.32"/><path fill="#0098D9" d="M533.089 534.138c-32.241 36.055-72.469 64.927-118.843 82.896l-26.965 10.389V375.64l26.535 10.251c46.616 17.801 86.858 46.801 119.272 82.578 22.993-37.144 37.359-80.104 40.214-126.767 7.333-120.878-68.323-231.519-172.151-270.022l-85.559-28.676c-38.686-12.833-79.708 8.562-92.574 47.033L41.623 633.797c-12.735 38.63 8.852 80.619 47.575 93.387L500.67 864.607c42.084-44.625 69.222-103.72 73.119-169.716 3.683-58.781-11.627-114.188-40.7-160.753m-238.055 108.8h-40.756V360.681h40.756v282.257z"/><path fill="#E63C2F" d="M509.293 501.247c-22.918-26.993-50.646-49.471-82.789-65.989v132.64c32.148-16.641 59.978-39.499 82.789-66.651"/><path fill="#004B9D" d="M909.404 241.401 531.743 115.205c50.752 55.491 81.844 129.164 81.844 210.045.178 63.77-19.73 125.021-54.458 175.997 34.807 50.958 54.996 112.132 54.996 176.007.135 76.306-27.223 146.522-72.946 200.822l141.878 47.378c38.751 12.861 79.685-8.313 92.419-47.018l181.498-543.587c12.809-38.681-8.856-80.573-47.57-93.448M809.311 642.008l-50.916.178-104.902-141.214 106.486-141.081 51.519-.191-106.865 141.547 104.678 140.761z"/></svg>