<svg width="45" height="44" viewBox="0 0 45 44" fill="none" xmlns="http://www.w3.org/2000/svg">
<rect x="0.5" width="44" height="44" rx="22" fill="#A5DD9B"/>
<path d="M12.5 18.3772C12.5 18.0269 12.5 17.8517 12.5146 17.7042C12.6556 16.2813 13.7813 15.1556 15.2042 15.0146C15.3517 15 15.5364 15 15.9056 15C16.0479 15 16.119 15 16.1794 14.9963C16.9506 14.9496 17.626 14.4629 17.9141 13.746C17.9367 13.6899 17.9578 13.6266 18 13.5C18.0422 13.3734 18.0633 13.3101 18.0859 13.254C18.374 12.5371 19.0494 12.0504 19.8206 12.0037C19.881 12 19.9477 12 20.0811 12H24.9189C25.0523 12 25.119 12 25.1794 12.0037C25.9506 12.0504 26.626 12.5371 26.9141 13.254C26.9367 13.3101 26.9578 13.3734 27 13.5C27.0422 13.6266 27.0633 13.6899 27.0859 13.746C27.374 14.4629 28.0494 14.9496 28.8206 14.9963C28.881 15 28.9521 15 29.0944 15C29.4636 15 29.6483 15 29.7958 15.0146C31.2187 15.1556 32.3444 16.2813 32.4854 17.7042C32.5 17.8517 32.5 18.0269 32.5 18.3772V26.2C32.5 27.8802 32.5 28.7202 32.173 29.362C31.8854 29.9265 31.4265 30.3854 30.862 30.673C30.2202 31 29.3802 31 27.7 31H17.3C15.6198 31 14.7798 31 14.138 30.673C13.5735 30.3854 13.1146 29.9265 12.827 29.362C12.5 28.7202 12.5 27.8802 12.5 26.2V18.3772Z" stroke="white" stroke-width="2" stroke-linecap="round" stroke-linejoin="round"/>
<path d="M22.5 26.5C24.7091 26.5 26.5 24.7091 26.5 22.5C26.5 20.2909 24.7091 18.5 22.5 18.5C20.2909 18.5 18.5 20.2909 18.5 22.5C18.5 24.7091 20.2909 26.5 22.5 26.5Z" stroke="white" stroke-width="2" stroke-linecap="round" stroke-linejoin="round"/>
</svg>
