<svg width="56" height="56" viewBox="0 0 56 56" fill="none" xmlns="http://www.w3.org/2000/svg">
<g filter="url(#filter0_d_563_3592)">
<circle cx="28" cy="24" r="24" fill="white"/>
</g>
<g clip-path="url(#clip0_563_3592)">
<path d="M28 20C25.79 20 24 21.79 24 24C24 26.21 25.79 28 28 28C30.21 28 32 26.21 32 24C32 21.79 30.21 20 28 20ZM36.94 23C36.48 18.83 33.17 15.52 29 15.06V13H27V15.06C22.83 15.52 19.52 18.83 19.06 23H17V25H19.06C19.52 29.17 22.83 32.48 27 32.94V35H29V32.94C33.17 32.48 36.48 29.17 36.94 25H39V23H36.94ZM28 31C24.13 31 21 27.87 21 24C21 20.13 24.13 17 28 17C31.87 17 35 20.13 35 24C35 27.87 31.87 31 28 31Z" fill="#606060"/>
</g>
<defs>
<filter id="filter0_d_563_3592" x="0" y="0" width="56" height="56" filterUnits="userSpaceOnUse" color-interpolation-filters="sRGB">
<feFlood flood-opacity="0" result="BackgroundImageFix"/>
<feColorMatrix in="SourceAlpha" type="matrix" values="0 0 0 0 0 0 0 0 0 0 0 0 0 0 0 0 0 0 127 0" result="hardAlpha"/>
<feOffset dy="4"/>
<feGaussianBlur stdDeviation="2"/>
<feComposite in2="hardAlpha" operator="out"/>
<feColorMatrix type="matrix" values="0 0 0 0 0.671667 0 0 0 0 0.671667 0 0 0 0 0.671667 0 0 0 0.25 0"/>
<feBlend mode="normal" in2="BackgroundImageFix" result="effect1_dropShadow_563_3592"/>
<feBlend mode="normal" in="SourceGraphic" in2="effect1_dropShadow_563_3592" result="shape"/>
</filter>
<clipPath id="clip0_563_3592">
<rect width="24" height="24" fill="white" transform="translate(16 12)"/>
</clipPath>
</defs>
</svg>
