<svg width="24" height="24" viewBox="0 0 24 24" fill="none" xmlns="http://www.w3.org/2000/svg">
<g clip-path="url(#clip0_2210_3402)">
<path d="M18.0032 15.514H17.985L17.9561 15.473H17.9409L17.868 15.388L17.8225 15.3424V15.3303L17.7921 15.3029V15.2878H17.783L17.7678 15.265H17.7511L17.7435 15.2498L17.704 15.2361V15.2285L17.6737 15.2164V15.2088L17.6418 15.1951L17.6342 15.1799L17.5886 15.1556L17.5628 15.1465L17.5552 15.1283L17.5264 15.1162L17.5157 15.101H17.5021L17.493 15.0858L17.4702 15.0736L17.455 15.0509H17.4368V15.0357H17.417L17.3866 14.9932H17.373L17.3092 14.9157H17.2955V14.9081L17.2712 14.8899V14.8367L17.209 14.773V14.7593L17.1938 14.7487L17.168 14.7137V14.7001L17.209 14.656H17.2242L17.2409 14.6363H17.256L17.2652 14.6226H17.2879V14.6135H17.3031L17.3122 14.5998H17.3244L17.335 14.5877H17.3487L17.3563 14.574H17.3821L17.4034 14.5497H17.4201L17.4276 14.536H17.4444L17.4899 14.4935H17.5157V14.4799L17.5643 14.4449L17.5947 14.4282L17.6038 14.4085L17.6266 14.3994V14.3827L17.6509 14.3736V14.3812H17.6661V14.3675H17.6813V14.3538H17.6964L17.7056 14.3341L17.7147 14.3067H17.7283L17.739 14.2779H17.7617L17.783 14.2521H17.7997L17.8149 14.2323H17.8301L17.8392 14.2187H17.8529L17.8847 14.1883H17.903L17.9561 14.1412H17.9713L17.9789 14.1291L18.0032 14.1184V14.1048L18.0351 14.0744H18.0503V14.0592L18.067 14.0395L18.0958 14.0243V14.0091L18.1201 13.9969V13.9848L18.1444 13.9757V13.959H18.1611V13.9256H18.1778V13.9028L18.2477 13.8572V13.8436L18.31 13.8253V13.8117L18.3586 13.798V13.7828L18.4284 13.7525V13.7388H18.4436L18.5013 13.6704H18.515V13.6553H18.5317V13.6416H18.5499L18.5803 13.6036V13.5824L18.6046 13.5717L18.6182 13.5307H18.6365L18.6501 13.4821H18.6653V13.4548H18.6805V13.426H18.6972L18.7048 13.391L18.7139 13.3409H18.7215V13.3272H18.7291V13.2984H18.7367V13.3181H18.7443V13.2817H18.7595V13.2285H18.7746V13.1632H18.7898V13.0372H18.7989V13.0068H18.8065L18.7883 12.9081V12.7821H18.7731V12.7107L18.7564 12.7001V12.6484L18.7412 12.6378V12.6014H18.7336V12.5877H18.7245V12.5588H18.7169V12.5361H18.7063V12.5239V12.4935H18.6957V12.4556H18.6805H18.6942L18.7048 12.4708H18.7169L18.7352 12.4966H18.7519V12.5133H18.7625L18.7929 12.5558H18.8096L18.8734 12.6332L18.922 12.6682L18.9447 12.7092H18.9599L18.9675 12.732L19.007 12.7684V12.7836L19.0465 12.8185V12.8322L19.0632 12.8428V12.858L19.086 12.8747V12.8899L19.1012 12.899V12.9142L19.1148 12.9233L19.1224 12.9461H19.13L19.6114 13.4806L19.6266 13.4882V13.5034L19.6433 13.514L19.6509 13.5353H19.6585L19.7678 13.6629H19.7845L19.7997 13.6841H19.8149L19.8407 13.716H19.8544L19.8802 13.7494H19.8923L19.9425 13.8086L20.0427 13.9134L20.0746 13.9559L20.2097 14.0941L20.2188 14.1093L20.2492 14.123L20.2568 14.1382L20.2872 14.1518L20.2963 14.167L20.6 14.4708H20.6152L20.638 14.5118H20.6456V14.5254L20.6623 14.536L20.6775 14.5467V14.5603L20.6926 14.5725V14.5862L20.7154 14.6044L20.8415 14.7365H20.8551L20.8642 14.7517H20.8794L20.8946 14.7745H20.9098L20.925 14.7972H20.9417L20.966 14.8291H20.9812L21.0434 14.9066H21.0602L21.0829 14.9263V14.9886L21.1543 15.06L21.2591 15.1572V15.1648H21.2728V15.1739L21.2864 15.1815L21.3183 15.1966L21.3593 15.224V15.2407L21.3836 15.2604H21.3988L21.4231 15.2771V15.2938L21.4459 15.3105H21.4626L21.4778 15.3288L21.4869 15.3455L21.6114 15.467L21.7936 15.6507L21.8103 15.6689H21.8225L21.8331 15.6841L22.2553 16.0668L22.2796 16.085L22.5165 16.3432H22.5317L22.5636 16.3857H22.5788L22.5863 16.4024L22.6334 16.4465L22.6653 16.4829L22.7048 16.5315L22.7367 16.574L22.7595 16.6074L22.7747 16.6302L22.8005 16.6773L22.8293 16.7183L22.846 16.7517L22.8551 16.7669L22.8794 16.8155V16.8367H22.887V16.8656H22.8946V16.8868H22.9022V16.902H22.9098V16.9248H22.9189V16.9476V16.9704L22.9706 17.186V17.2726H22.9781V17.4578V17.5064H22.9706V17.5414V17.5763H22.9614V17.6036H22.9538V17.6325H22.9447V17.6553H22.9371V17.7054H22.9296V17.719H22.9204V17.7403H22.9113V17.754V17.7752H22.9037L22.8886 17.8162H22.8794V17.8299H22.8718V17.8466V17.8633H22.8627L22.8506 17.9028H22.8415V17.9225H22.8248V17.9514H22.8081V17.9651L22.7853 17.9757V17.9909L22.7625 18V18.0258H22.7109V18.0425L22.641 18.0835L22.5788 18.1397H22.5651L22.5408 18.1625H22.5241L22.5104 18.1822H22.4922L22.4785 18.1989H22.4633L22.4557 18.2111H22.433H22.4011L22.3935 18.2232H22.3464L22.3388 18.2354L22.2705 18.2445V18.2521H22.2386H22.2143H22.2006H22.1748H22.152H22.1292H22.1065H22.0746H22.0427H22.0062C22.0062 18.2521 21.7724 18.2217 21.6797 18.1989C21.5871 18.1761 21.3487 18.0865 21.3487 18.0865L21.3153 18.0759H21.3046V18.0683L21.2636 18.0547V18.0471L21.2348 18.0364V18.0273H21.209L21.1771 18.0152V18.0061L21.1467 17.9924L21.1391 17.9772L21.0905 17.9544L20.8658 17.8117H20.8339V17.8026H20.8111V17.795H20.7868L20.7625 17.7843L20.4041 17.5368H20.3874L20.3555 17.4928H20.3388L20.1201 17.3257V17.3166L20.0913 17.3029H20.0655V17.2938L20.0199 17.2695H20.0032V17.2619L19.9713 17.2483L19.9622 17.2316L19.9166 17.2088L19.9075 17.1936H19.8939V17.1845L19.8711 17.1754L19.862 17.1572H19.8468L19.8286 17.1329H19.8164L19.8073 17.1177H19.7921L19.7587 17.0752H19.7435L19.4854 16.8626V16.855L19.4383 16.8307H19.4231V16.8231H19.4064L19.3608 16.8018L19.3532 16.7836L19.3213 16.773L19.3122 16.7547L19.2819 16.7426L19.2667 16.7168H19.25L19.2424 16.7016H19.2257L19.209 16.6773C19.209 16.6773 18.9447 16.4662 18.8415 16.3736C18.7382 16.2809 18.4223 15.9924 18.3859 15.9529L18.3586 15.9256V15.9104L18.3176 15.8739V15.8527L18.3024 15.8284L18.0032 15.514Z" fill="#A3CF62"/>
<path d="M12.3588 13.8147V13.8284L12.4211 13.8709V13.8846L12.4864 13.9241V13.9392L12.5092 13.9453V13.9514L12.5168 13.9681L12.5411 13.9924L12.5563 13.997V14.0182L12.5745 14.0213L12.5912 14.0607L12.5988 14.0623V14.0759L12.614 14.0881V14.1078L12.6292 14.1124V14.126L12.6443 14.1291L12.6626 14.1686L12.6777 14.1716V14.1853L12.6945 14.1898L12.7324 14.2551L12.7491 14.2566V14.2718L12.8129 14.3189L12.8144 14.3341L12.8296 14.3386V14.3523L12.8706 14.3736V14.3888L12.8858 14.3918V14.407L12.9405 14.4389L12.9496 14.4541L12.9724 14.4601L12.9815 14.4753L12.9967 14.4784V14.4844L13.0225 14.4981V14.5118L13.0513 14.5178V14.533L13.0923 14.5543L13.2047 14.691V14.7061L13.2214 14.7092L13.3064 14.8049V14.8185L13.3247 14.8216V14.8367L13.349 14.8398V14.8565L13.3626 14.8595V14.8732L13.4674 14.9446L13.4993 14.9719V14.978L13.516 14.981V14.9871L13.5327 14.9916L13.5388 15.0053L13.5646 15.0114L13.5707 15.0281L13.595 15.0311V15.0402L13.6254 15.0524V15.0661L13.6664 15.0903V15.104L13.6831 15.1071V15.1207L13.6967 15.1238L13.7241 15.1511V15.1648L13.7377 15.1678V15.183L13.7544 15.1845L13.7954 15.2285V15.2437L13.8106 15.2452L13.9367 15.3576V15.3713L13.9625 15.3758V15.391L14.0005 15.4123V15.4184L14.0247 15.426V15.432L14.0566 15.4442V15.4594L14.09 15.4654V15.4806L14.1447 15.4973L14.1523 15.5125L14.1842 15.5201V15.5323L14.2237 15.5414L14.2313 15.5581L14.2738 15.5642V15.5717L14.2966 15.5763V15.5839L14.327 15.59V15.596L14.3831 15.6082L14.3907 15.6234L14.4788 15.6401L14.4864 15.6568L14.5639 15.6689V15.6765L14.5882 15.6796V15.6887L14.6276 15.6948V15.7039L14.6459 15.7069L14.6535 15.7236L14.7172 15.7403V15.7555L15.0012 15.839L15.103 15.8557V15.8496L15.1181 15.8527V15.8451L15.27 15.8572V15.8436L15.4112 15.8345V15.8193L15.4325 15.8208L15.4264 15.8238V15.839L15.3869 15.8618L15.3429 15.8952V15.9074L15.3186 15.9119L15.267 15.9605L15.2503 15.9575L15.226 15.9802L15.2108 15.9772L15.1865 16.0015L15.1713 15.9985L15.1561 16.0167L15.1394 16.0152L15.1318 16.0273L15.1105 16.0304V16.038L15.0938 16.0349L15.0878 16.0471L15.0635 16.0516V16.0577L15.0179 16.0623L15.0088 16.0759H14.9769V16.0835L14.9632 16.0805V16.0896L14.9481 16.085V16.0941L14.901 16.1002V16.1063L14.8797 16.1017V16.1078L14.8752 16.1276L14.86 16.1245L14.822 16.161L14.7856 16.1564V16.1701L14.74 16.1974L14.6717 16.2566L14.6535 16.2551L14.5912 16.2931L14.5001 16.3356L14.4773 16.3386V16.3462L14.4606 16.3417L14.453 16.3569H14.4211L14.4165 16.369H14.3983L14.3831 16.3796L14.368 16.3751V16.3827L14.3528 16.3796V16.3872L14.3376 16.3842V16.3918L14.3224 16.3888V16.3963L14.3057 16.3933V16.3994L14.2905 16.3979V16.4039L14.2434 16.41V16.4176L14.2191 16.4131V16.4191L14.2055 16.4176V16.4252L14.1827 16.4191V16.4252L14.1599 16.4343V16.4419L14.1371 16.4373V16.4434L14.1143 16.4404V16.4465L14.005 16.492L13.9746 16.5209L13.9579 16.5194L13.9276 16.5497L13.9109 16.5467L13.8972 16.5634L13.882 16.5619L13.8653 16.5801L13.8501 16.5771L13.8425 16.5892L13.8106 16.5907L13.803 16.6044L13.7803 16.6074V16.615H13.7484L13.7423 16.6302L13.6937 16.6348V16.6408L13.68 16.6393V16.6454L13.6633 16.6424V16.65L13.6481 16.6484V16.656L13.6011 16.6606V16.6682L13.5798 16.6606V16.6697L13.5646 16.6682V16.6743L13.5388 16.6697L13.5403 16.6773L13.5236 16.6743V16.6834L13.5008 16.6773L13.5023 16.6834L13.4796 16.6803V16.6879L13.3292 16.7456L13.3156 16.7441L13.2852 16.773L13.27 16.7699L13.2533 16.7897L13.2381 16.7866L13.2214 16.8049L13.2062 16.8018L13.2001 16.8155L13.185 16.8124L13.1683 16.8307L13.1379 16.8322L13.1303 16.8459L13.0999 16.8474L13.0923 16.8595L13.0452 16.8641L13.0377 16.8762L13.0149 16.8732L13.0058 16.8869L12.7506 16.9324L12.7203 16.9263V16.9339L12.6869 16.9279V16.9355L12.6565 16.9309V16.9355L12.6261 16.9309V16.9385L12.5882 16.9309V16.9385L12.5487 16.9309V16.9385L12.4864 16.9263V16.9339L12.1979 16.8869V16.8808L12.1052 16.8626V16.855L12.0415 16.8428L12.0399 16.8383L11.9959 16.8291V16.82L11.964 16.8155V16.8079L11.9245 16.8003V16.7927L11.838 16.7623V16.7563L11.8137 16.7517V16.7441L11.759 16.7274V16.7213L11.7438 16.7183V16.7107L11.721 16.7061V16.6985L11.7058 16.6955V16.6894L11.6831 16.6834V16.6773L11.6512 16.6651V16.6575L11.6284 16.653V16.6454L11.5798 16.6226V16.615L11.5661 16.6105V16.6044L11.5342 16.5922L11.5266 16.5771L11.4781 16.5528L11.4705 16.5376L11.4401 16.5254V16.5163L11.4158 16.5057L11.4082 16.4905L11.393 16.4875L11.3839 16.4708L11.3687 16.4677L11.3535 16.4434L11.3383 16.4419L11.3216 16.4176L11.3064 16.4146L11.2913 16.3888L11.267 16.3781L11.1971 16.2931L11.1804 16.2916L11.1227 16.2156L11.1105 16.2126L11.0695 16.1625V16.1473L11.0544 16.1382V16.1306L11.0392 16.12V16.1063L11.0164 16.0881V16.0729L10.9936 16.0562V16.0395L10.9754 16.0304L10.9678 16.0076L10.9587 16.0061V15.9909L10.9435 15.9802L10.9374 15.9605L10.9283 15.9575L10.9177 15.9271L10.904 15.9149V15.9028L10.8873 15.8846V15.8724L10.8797 15.8694V15.8542H10.8721V15.839H10.8645L10.8478 15.7919H10.8402L10.8326 15.754L10.8251 15.7509V15.7358H10.8159V15.7145L10.8083 15.713L10.8008 15.6826H10.7916L10.7765 15.6082L10.7689 15.6067V15.5839H10.7598V15.5626L10.7522 15.5596L10.743 15.508L10.7355 15.5064V15.4776L10.7279 15.4761L10.7188 15.388L10.7355 14.7836H10.743V14.7638H10.7506V14.7426L10.7582 14.7441L10.7795 14.6545L10.7901 14.656V14.6424L10.7962 14.6454V14.6226L10.8038 14.6241L10.8114 14.5953L10.8159 14.5983V14.5771L10.8266 14.5786L10.8357 14.5497L10.8433 14.5528V14.53L10.8569 14.5254V14.5118L10.8721 14.5011V14.4859L10.8797 14.4875V14.4723L10.8858 14.4738V14.4601L10.9025 14.4556L10.9086 14.4282L10.9253 14.4252V14.41L10.9405 14.4039L10.9481 14.3796L10.9632 14.3736V14.3584L10.986 14.3508V14.3341L11.0088 14.325V14.3098L11.0468 14.2885V14.2749L11.0771 14.2597V14.2445L11.0938 14.2339L11.1181 14.2308V14.2172L11.1333 14.2111L11.147 14.1929L11.1865 14.1792V14.1655L11.2017 14.1534L11.2169 14.1564L11.2411 14.1306L11.2579 14.1351L11.2852 14.1033L11.3019 14.1078L11.3171 14.0881L11.3338 14.0911L11.349 14.0729L11.3657 14.0759L11.3717 14.0638L11.4021 14.0623L11.4097 14.0486L11.434 14.0471V14.038H11.4659L11.4735 14.0243L11.4872 14.0273L11.5023 14.0152L11.5206 14.0182V14.0106L11.5342 14.0152V14.0076L11.5509 14.0106L11.557 13.997L11.5798 14.0015V13.9939L11.6117 13.9924V13.9848L11.636 13.9894V13.9833L11.6648 13.9818V13.9742L11.6891 13.9787V13.9711L11.7058 13.9742V13.9681L11.8061 13.9651V13.9575L11.8304 13.9605V13.9529L11.8531 13.959V13.9514L11.9458 13.9529L11.9549 13.9408L11.9701 13.9453L11.9837 13.9256L12.0005 13.9301L12.0141 13.9089L12.0308 13.9119L12.046 13.8922L12.0612 13.8967L12.0703 13.8846L12.1007 13.8831L12.1098 13.8709L12.1235 13.8724L12.1326 13.8588L12.1462 13.8618L12.1538 13.8496L12.1705 13.8527L12.1872 13.8421L12.2009 13.8436V13.839H12.2176V13.8329L12.2328 13.836L12.3452 13.8071L12.3588 13.8147Z" fill="#A3CF62"/>
<path d="M14.8751 12.5786L14.8523 12.6014L14.8356 12.6075L14.8371 12.6196L14.8219 12.6318L14.8067 12.6303L14.7976 12.6424L14.7824 12.6394V12.647L14.7673 12.6424V12.6515L14.743 12.647V12.6546L14.6974 12.6591V12.6667L14.6807 12.6637L14.6822 12.6728L14.6367 12.6773L14.6275 12.6895L14.5957 12.6925L14.5896 12.7047L14.5744 12.7016L14.5668 12.7138L14.5501 12.7108L14.5425 12.7244L14.5273 12.7214L14.5197 12.7335L14.5045 12.732L14.4954 12.7442L14.459 12.7548V12.7563V12.773L14.4924 12.7928V12.8064L14.5547 12.855V12.8702L14.5714 12.8717V12.8869L14.5881 12.8915V12.9036L14.6033 12.9082L14.6048 12.9218L14.62 12.9264L14.6579 12.9902L14.6746 12.9932L14.6928 13.0312L14.7096 13.0373V13.0494L14.7232 13.0524L14.7627 13.1405L14.7794 13.142L14.8128 13.2073L14.8432 13.2438L14.8933 13.2666V13.2818L14.9237 13.2939V13.3076L14.9632 13.3303V13.344L14.9783 13.3471V13.3622L14.9951 13.3653L14.9966 13.3805L15.0361 13.423L15.0528 13.426V13.4412L15.0679 13.4442V13.4579L15.0831 13.4609L15.1393 13.5521L15.156 13.5536V13.5703L15.1712 13.5718V13.5931L15.1864 13.5976L15.2046 13.6432L15.2107 13.6447L15.2274 13.6842L15.2441 13.6872L15.2593 13.7267L15.276 13.7297L15.3246 13.7677V13.7814L15.3398 13.7844V13.7996L15.3944 13.8315V13.8467L15.4111 13.8497L15.4354 13.8892L15.4506 13.8922L15.4521 13.9089L15.4673 13.912L15.4916 13.9515L15.5068 13.953V13.9697L15.522 13.9712L15.5478 14.0274L15.5645 14.0304V14.0471L15.5797 14.0486L15.604 14.1018L15.6192 14.1064V14.1276L15.6344 14.1306L15.6435 14.1534L15.6511 14.1549L15.6602 14.1929L15.6754 14.2035V14.2187L15.6921 14.2294V14.2506L15.7088 14.2597L15.7164 14.3068L15.7331 14.3144V14.3463H15.7392L15.7483 14.3843L15.765 14.3873L15.7741 14.4617L15.7817 14.4647V14.4784H15.7893V14.5224L15.806 14.5331L15.8136 14.6014L15.8303 14.6105L15.847 14.6728L15.8637 14.6743L15.8789 14.7366L15.8941 14.7381L15.9047 14.7912L15.9199 14.7943L15.929 14.8687L15.9442 14.8732L15.97 15.1299H15.9624L15.9654 15.2453L15.9563 15.2438V15.2954L15.9487 15.2939V15.3379L15.9351 15.341L15.929 15.3987L15.9123 15.3956L15.8743 15.5111L15.8561 15.508L15.7969 15.6158L15.7802 15.6189L15.7711 15.6174L15.7726 15.6386L15.7559 15.6371V15.6447L15.7255 15.6614L15.7012 15.6766L15.7042 15.6994L15.6465 15.7161V15.7297L15.6587 15.7313L15.6648 15.7176L15.683 15.7206L15.6875 15.7085L15.7058 15.7115L15.7118 15.6994H15.727V15.6933L15.7513 15.6918L15.7574 15.6796H15.7741L15.7984 15.6568L15.8136 15.6614L15.8439 15.631H15.8607L15.9138 15.584L15.929 15.5885V15.5809L15.9518 15.5703L15.9609 15.5505L16.014 15.5171V15.5019L16.0505 15.4807V15.467L16.0672 15.464V15.4564L16.0839 15.4534L16.0824 15.4382L16.1006 15.4336V15.4184L16.1143 15.4139V15.4002L16.137 15.3896L16.1613 15.3562L16.1902 15.3395L16.1978 15.3273L16.213 15.3288L16.219 15.3045L16.2373 15.3091L16.2433 15.2954L16.2585 15.2985L16.2661 15.2848L16.2828 15.2893L16.2904 15.2757L16.3147 15.2742L16.3451 15.2438L16.3618 15.2453L16.3922 15.2149L16.4058 15.218V15.2104L16.421 15.2058V15.1922L16.4377 15.1952L16.4666 15.1648L16.4742 15.1663V15.1527L16.5061 15.142V15.1299L16.5455 15.1071V15.0919L16.5759 15.0767V15.0631L16.5987 15.0646V15.0509L16.6594 15.0114L16.6928 15.0099L16.6989 14.9841H16.7308V14.9765L16.7536 14.975L16.7627 14.9613L16.7764 14.9644V14.9568L16.8007 14.9537L16.8067 14.9416L16.8234 14.9446L16.8371 14.9249L16.8538 14.9294L16.8614 14.9142L16.8705 14.9173L16.8781 14.9036L16.8933 14.9067V14.9006L16.9237 14.8915V14.8763L17.0695 14.7821V14.7685L17.0907 14.7594V14.7426L17.1135 14.7335L17.1439 14.7062L17.1226 14.6743L17.112 14.6728L17.1059 14.6424L17.0816 14.6242L17.074 14.5862L17.0664 14.5847L17.033 14.5346L16.9313 14.4647V14.4496L16.907 14.4389L16.8994 14.4222L16.8812 14.4207L16.8584 14.3873L16.8417 14.3843L16.8037 14.3387L16.7855 14.3144L16.7718 14.3114L16.746 14.2704L16.7308 14.2688L16.6913 14.2111L16.6822 14.2081V14.1929L16.6336 14.1489V14.1352L16.62 14.1231V14.1079L16.6033 14.0988V14.0851L16.585 14.0669L16.5714 14.0638L16.5137 13.9454L16.5 13.9408L16.4316 13.792L16.4165 13.7799V13.7662L16.4089 13.7647L16.4013 13.7191L16.3922 13.7176V13.6963L16.3846 13.6948V13.6735L16.377 13.672V13.6508L16.3694 13.6493L16.3679 13.6189H16.3618L16.3512 13.5718L16.3436 13.5703V13.5566L16.336 13.5536V13.5262L16.3284 13.5247L16.3269 13.4807L16.3193 13.4792L16.3178 13.4412H16.3117L16.3102 13.382L16.3026 13.3805L16.2935 13.2058L16.2843 13.2043V13.183L16.2692 13.1724L16.2585 13.1193L16.2433 13.1162L16.2357 13.0859L16.2282 13.0843V13.0555L16.219 13.054V13.0312L16.2023 13.0221V12.9841L16.1856 12.9826L16.178 12.9082L16.1704 12.9067V12.8915H16.1629L16.1613 12.8398L16.1446 12.8277V12.7502L16.1279 12.7411L16.1249 12.5118L16.1416 12.5103V12.4268L16.1568 12.4313L16.1629 12.3615H16.1704V12.3326L16.178 12.3341V12.2962L16.1932 12.2931V12.2643L16.2099 12.2612L16.2175 12.2111L16.2342 12.2142L16.254 12.1367L16.2707 12.1398V12.1185L16.2859 12.1215L16.3496 12.0243L16.3648 12.0274L16.3891 11.9803L16.4043 11.9833V11.9682L16.4195 11.9697L16.459 11.9196L16.4727 11.9226V11.9074L16.5 11.9135L16.5228 11.8953L16.5197 11.8816L16.5364 11.8846V11.8695L16.5516 11.8725L16.5683 11.8543L16.582 11.8558L16.5911 11.8436L16.6139 11.8391V11.8254L16.6534 11.8042L16.7247 11.795V11.7814L16.8037 11.7753V11.7586L16.8736 11.7495L16.8994 11.7556V11.748L16.9146 11.7495V11.7419L16.9434 11.748L16.954 11.7358L17.0391 11.7449L17.0452 11.7313L17.1181 11.7449L17.1272 11.7313L17.2517 11.7556L17.2699 11.7495L17.481 11.7981V11.8133L17.6572 11.8664V11.8816L17.6966 11.8877V11.9029L17.7923 11.9423V11.956L17.8698 11.9925V12.0092L17.9017 12.0213L17.9047 12.0289L17.9275 12.0335L17.9427 12.0578L17.967 12.0623V12.0684L17.9852 12.0699V12.079L18.0459 12.0896V12.0988L18.1006 12.1079V12.1155L18.1416 12.1231V12.1306L18.1887 12.1398V12.1474L18.2206 12.1534L18.2282 12.1671L18.26 12.1747V12.1823L18.2828 12.1868V12.1929L18.3086 12.1975V12.2066L18.3405 12.2111V12.2187L18.4514 12.2673V12.2825L18.6078 12.3706V12.3843L18.6367 12.3964L18.626 12.3843V12.3721L18.6108 12.3615V12.3478L18.5957 12.3296V12.3159L18.579 12.3053L18.5714 12.2749L18.5562 12.2643V12.2506L18.5486 12.2476L18.541 12.2263L18.5243 12.2157V12.202L18.4924 12.1747V12.1595L18.459 12.1322V12.1185L18.4043 12.0653L18.3982 12.0426L18.3831 12.0395V12.0243L18.3663 12.0213L18.2555 11.9165L18.2418 11.8922L18.2266 11.8877L18.216 11.8725L18.2023 11.8695L18.1856 11.8452L18.1553 11.8315L18.1477 11.8163L18.1219 11.8042V11.7981L18.0748 11.7753V11.7662L18.0611 11.7647V11.7571L18.014 11.7343V11.7282L17.9745 11.7115V11.707L17.9594 11.7024V11.6948L17.9351 11.6918V11.6842L17.9199 11.6811V11.6736L17.8971 11.669V11.6614H17.8804V11.6523L17.8257 11.6341V11.628L17.8014 11.6234V11.6174L17.7711 11.6113V11.6037L17.7316 11.5976V11.5885L17.6936 11.5809V11.5748L17.5691 11.5445V11.5384L17.2274 11.4883V11.4944L17.1849 11.4883V11.4944L17.1484 11.4883V11.4944L17.1256 11.4913V11.4989L17.0938 11.4913V11.5004L17.0619 11.4928V11.5019L17.0452 11.4974V11.505L16.9996 11.5035V11.5111L16.9859 11.508V11.5141L16.9616 11.5126V11.5187H16.9313V11.5262L16.907 11.5217V11.5293L16.8599 11.5354V11.543L16.8462 11.5384V11.5475L16.8143 11.549L16.8067 11.5597L16.7764 11.5627L16.7688 11.5748L16.7506 11.5733V11.5794L16.7278 11.5809L16.7217 11.5961L16.705 11.5915L16.6913 11.6113L16.6746 11.6083L16.6594 11.6265L16.6443 11.6234L16.62 11.6493L16.6048 11.6462L15.7726 12.1124L15.7392 12.1155V12.1231L15.7164 12.1261L15.7088 12.1382L15.6921 12.1337V12.1428L15.6632 12.158L15.4066 12.3129L15.4096 12.325L15.3929 12.3296L15.3701 12.3554L15.3534 12.3508L15.3398 12.3615L14.8751 12.5786Z" fill="#A3CF62"/>
<path d="M5.15034 11.7496L5.16705 11.7178H5.17312L5.18071 11.6919L5.18983 11.6935L5.18831 11.6783L5.1959 11.6798V11.657L5.20349 11.6585L5.21868 11.619L5.22627 11.6206V11.6054L5.23538 11.6084V11.5932L5.24298 11.5963L5.24146 11.5811H5.24905V11.5674L5.25968 11.5705V11.5553L5.27183 11.5431V11.5294L5.28702 11.5249L5.29461 11.4976L5.31131 11.493L5.31739 11.4657L5.33561 11.4611L5.33257 11.449H5.34017V11.4338L5.35687 11.4307V11.4156L5.37054 11.4125V11.3973L5.38876 11.3928L5.38573 11.3776L5.40243 11.373V11.3594L5.42521 11.3503V11.3351L5.44951 11.326V11.3093L5.48899 11.2895V11.2758L5.50418 11.2713V11.2637L5.51784 11.2591V11.2455L5.71071 11.0086H5.7183L5.73804 10.9843L5.74563 10.9873V10.9645L5.75323 10.966L5.75171 10.9539H5.7593V10.9311L5.76993 10.9342L5.7836 10.8932H5.79119V10.881L5.79879 10.8825V10.8689H5.80638V10.8552H5.81245V10.8415L5.82156 10.843V10.8279L5.82916 10.8309V10.8157L5.83523 10.8172V10.802L5.85194 10.7914V10.7762L5.86712 10.7732L5.87472 10.7459L5.88838 10.7413L5.89901 10.714L5.91116 10.7094V10.6957H5.92027V10.6836L5.94305 10.673L5.94913 10.6426L5.97494 10.6365L5.97342 10.6198L5.9962 10.6107L6.03721 10.5682V10.553L6.05239 10.556L6.06606 10.5317H6.07365V10.5181L6.08125 10.5196L6.10554 10.4953L6.12073 10.4922V10.4755L6.1268 10.4771L6.1511 10.4528L6.16477 10.4573L6.36978 10.2341L6.36826 10.2219L6.37737 10.2235L6.38345 10.1946L6.39104 10.1976V10.1824L6.40015 10.184V10.1688L6.40623 10.1703V10.1566L6.41534 10.1582V10.143L6.42293 10.146V10.1323H6.43052V10.1156L6.4366 10.1202V10.105L6.44571 10.1065L6.44419 10.0929L6.4609 10.0792V10.067L6.47608 10.0625L6.48368 10.0351L6.50645 10.0245L6.51253 9.99718L6.52923 9.99414V9.97896L6.53683 9.98047V9.96529L6.55201 9.96225L6.55961 9.94099L6.5839 9.93188V9.91821L6.60668 9.90758L6.61428 9.88025L6.65376 9.85747V9.8438L6.69021 9.82254V9.80887L6.80562 9.67675L6.81169 9.67979V9.66612L6.81929 9.66764L6.8284 9.61905L6.83751 9.62057L6.83447 9.60538L6.8451 9.6069L6.85118 9.5659L6.85877 9.56741V9.55223L6.86636 9.55527V9.53401H6.87396L6.88155 9.50819H6.88762V9.48693L6.89522 9.48845L6.91192 9.44896H6.91951V9.4353L6.92711 9.43682V9.42315H6.9347V9.40796L6.94229 9.411V9.39733H6.94837V9.38366H6.95748V9.37L6.96355 9.37303V9.35785L6.98026 9.3457V9.33203L6.99544 9.32748L7.01215 9.28647L7.02582 9.28344V9.26825L7.05011 9.25914L7.05619 9.2318L7.07289 9.22725V9.21358L7.09567 9.20447V9.18928H7.10175L7.10934 9.16954L7.12604 9.16499V9.1498L7.15794 9.13613V9.12095L7.19438 9.1012V9.08602L7.24146 9.05868V9.0435L7.33106 8.90379H7.34169L7.33865 8.89012L7.34776 8.89316L7.36295 8.82937L7.37054 8.83241V8.81723L7.37813 8.81874V8.79748L7.38573 8.799L7.39332 8.77167L7.40243 8.77319V8.75041L7.40699 8.75193L7.42217 8.71244L7.43128 8.71396V8.70029L7.43888 8.70181V8.68663H7.44799L7.44647 8.67296L7.4571 8.676L7.45254 8.66081L7.46317 8.66233L7.46166 8.64714L7.47077 8.64866L7.46773 8.63499L7.47684 8.63651V8.61981L7.49203 8.6107V8.59703L7.50873 8.59095L7.51633 8.56514L7.52999 8.55906L7.53759 8.53325L7.55429 8.52869V8.51502L7.56948 8.51047V8.4968L7.58466 8.49224V8.47706L7.59833 8.4725V8.45732L7.61655 8.45428L7.61048 8.4315L7.63174 8.42087V8.4072L7.66363 8.39202L7.67122 8.37076L7.73956 8.2766V8.24167L7.74867 8.24319V8.22041L7.75626 8.22345L7.75323 8.20067L7.76234 8.20219V8.17334L7.76993 8.17637V8.1536L7.78967 8.15663V8.13537L7.79879 8.13841L7.79727 8.11563H7.80486V8.10196L7.81245 8.105L7.82005 8.06248L7.82916 8.064L7.82612 8.04881L7.83523 8.05033V8.02907L7.84283 8.03059L7.85042 8.00325L7.85953 8.00629L7.85801 7.98959L7.8656 7.99262V7.97136L7.87472 7.97288L7.88838 7.9334H7.89598V7.91973H7.90509L7.90205 7.90758H7.91268L7.92635 7.86658L7.94305 7.86202V7.84076L7.95672 7.83621L7.96583 7.81039L7.9795 7.80584V7.79065L7.99469 7.78761V7.77243L8.01139 7.76787V7.7542L8.02506 7.74965V7.73598L8.04328 7.73142V7.71776H8.05087L8.05543 7.69801L8.07365 7.69498V7.67979L8.09491 7.66916V7.65549L8.1344 7.63423V7.62057L8.24829 7.45352V7.43378H8.25588V7.41252L8.26196 7.41555V7.38518H8.27107L8.26955 7.37303L8.27714 7.37455V7.35329L8.28626 7.35481V7.33962L8.29233 7.34114V7.31836L8.29992 7.3214V7.30622L8.30904 7.30773V7.28647L8.31511 7.28799L8.3227 7.26066L8.3303 7.26218V7.24851H8.33789V7.22725L8.35459 7.22269V7.20295L8.36219 7.20447V7.18928H8.36826V7.17562L8.38497 7.17106L8.38345 7.15739L8.40015 7.14676V7.13158H8.40623V7.11791L8.41534 7.12095V7.10576L8.43052 7.1012L8.43812 7.07387L8.4533 7.07083V7.05565L8.46849 7.05109V7.03742L8.48519 7.03287L8.48368 7.01768L8.49886 7.01464V6.99946L8.51405 6.9949V6.98123L8.53834 6.9706V6.95846L8.55961 6.94631V6.93112L8.65983 6.79141L8.66743 6.79445V6.77319L8.67654 6.7747V6.75193L8.68261 6.75496V6.73218L8.69021 6.7337V6.70637L8.6978 6.70789V6.6927H8.70539L8.7221 6.63196L8.72817 6.63347V6.61829L8.73728 6.61981L8.73576 6.59855L8.74336 6.60158L8.75095 6.57425H8.75854L8.76614 6.54236H8.77373L8.7874 6.50136L8.79499 6.50287V6.48769L8.80562 6.49073L8.8041 6.47706L8.81321 6.47858L8.81169 6.46339L8.81929 6.46491V6.45124L8.83599 6.43909V6.42391L8.84966 6.42087L8.85725 6.39202L8.87244 6.38898L8.88003 6.36164L8.89522 6.35557L8.90433 6.32824L8.92711 6.32064L8.92559 6.30546L8.94077 6.3009V6.28571L8.95748 6.28268L8.96355 6.26142L8.98633 6.2523V6.23712L9.00456 6.23408L9.00152 6.22649L9.01822 6.22345V6.20827L9.0486 6.19156V6.17789L9.25513 5.89999V5.88632L9.26272 5.88936V5.87417L9.27942 5.86962V5.85595L9.29461 5.8438V5.82861L9.30068 5.83013V5.81647L9.31587 5.81191L9.32346 5.78458L9.33106 5.78609L9.34017 5.76787L9.35384 5.7618L9.36295 5.73446L9.38421 5.72383V5.71016L9.39939 5.70561V5.6889L9.42369 5.68131V5.66612L9.45254 5.65246V5.63575L9.48444 5.62057V5.60842L9.55581 5.56286L9.55277 5.54767L9.571 5.54464L9.58466 5.52489L9.60137 5.52793L9.66363 5.47478L9.67882 5.47782L9.7016 5.45352L9.71678 5.45656L9.74715 5.42618L9.76082 5.42922L9.77752 5.411L9.79423 5.41252L9.80334 5.40037L9.8246 5.39733V5.38974L9.83979 5.39429L9.84738 5.38215L9.86409 5.38518L9.87168 5.37L9.89598 5.36696V5.35937L9.94153 5.35481L9.94761 5.34266L9.96431 5.3457L9.9795 5.33203L9.99469 5.33507V5.32899L10.0099 5.33203V5.32596L10.0281 5.32748L10.0342 5.31381L10.0554 5.31836V5.31229L10.0873 5.30925V5.30318L10.1101 5.30773V5.30014L10.142 5.29862V5.29255L10.1663 5.29559V5.28951L10.1815 5.29255V5.28495L10.2058 5.28951V5.28344L10.2179 5.28495V5.27584L10.3516 5.25306L10.3652 5.2561L10.3743 5.24092H10.4062L10.4123 5.22725L10.4442 5.22573V5.21814L10.4609 5.22117V5.2151L10.5049 5.20902V5.20295L10.5292 5.20447V5.19839L10.5611 5.19688V5.1908L10.5839 5.19536V5.18625L10.6006 5.1908V5.18169L10.6446 5.18473L10.6462 5.17713L10.6689 5.18169V5.1741L10.6917 5.17865V5.17258L10.716 5.17562V5.16802L10.7464 5.1741V5.1665L10.7783 5.17258V5.1665L10.8162 5.17258V5.1665L11.4313 5.30925V5.31685L11.4556 5.3214V5.32748L11.4784 5.33203V5.33962L11.5027 5.34418V5.35177L11.527 5.35481V5.3624L11.5421 5.36544V5.37152L11.5664 5.37607V5.38518L11.5968 5.39733V5.40341L11.6211 5.40796V5.41707L11.6682 5.43985V5.44593L11.6986 5.45808L11.7062 5.47326L11.738 5.48693L11.7456 5.50212L11.7623 5.50515L11.7699 5.52186L11.7851 5.52489L11.7942 5.54008L11.8079 5.54312L11.817 5.5583L11.8322 5.56134L11.8413 5.57805L11.8565 5.58108L11.8793 5.61297L11.896 5.61601L11.9263 5.65853L11.9431 5.66157V5.66612L11.9582 5.67827V5.69346L12.0843 5.83773L12.1071 5.85747V5.86962L12.1329 5.88936V5.90303L12.1465 5.91214L12.1541 5.93795H12.1633V5.95314L12.1784 5.96225L12.1875 5.98503L12.1936 5.98807V6.00174L12.2118 6.01996V6.03211L12.2194 6.03363V6.04881L12.227 6.05185V6.06552H12.2346V6.07918L12.2422 6.08222V6.09741H12.2483L12.2665 6.14297L12.2741 6.146V6.16574L12.2832 6.16878V6.18245L12.2893 6.18397V6.20523L12.2969 6.20675V6.22345H12.3075V6.24471L12.3136 6.24623V6.26749L12.3227 6.26901L12.3318 6.32064H12.3379L12.4199 6.56514L12.4245 6.56817L12.4366 6.59703L12.4427 6.59855L12.4518 6.6441H12.4594V6.65929H12.467L12.4928 6.758L12.4973 6.75952V6.7823H12.508V6.80508H12.5156V6.83241L12.5232 6.83545L12.5399 6.94631V7.54008L12.5247 7.63879L12.5171 7.63575V7.65853L12.5095 7.65701V7.67827L12.4427 8.05185L12.4366 8.05033L12.4396 8.13841H12.429L12.432 8.20067L12.4229 8.19915V8.24167H12.4153V8.28268H12.4062V8.3176L12.4002 8.31609V8.34342H12.3941L12.3106 8.60918L12.3045 8.60614L12.2954 8.63499L12.2878 8.63347V8.65473L12.2802 8.65322L12.2726 8.68055L12.265 8.67751V8.6927L12.2559 8.69118L12.2589 8.71244L12.2422 8.717V8.73218L12.227 8.74281L12.142 8.92808L12.1359 8.94631L12.1283 8.92808L12.1055 8.90986L12.098 8.87797L12.0737 8.86126V8.84608L12.0585 8.83545V8.82026L12.0342 8.80204L12.0175 8.77774L12.0099 8.7747V8.76104L11.978 8.7337L11.9385 8.676L11.9233 8.67296L11.9142 8.64866H11.9066V8.6274L11.8975 8.62436V8.60158H11.8899V8.5788L11.8808 8.57729V8.55603L11.8732 8.55451V8.53325H11.8656V8.51047L11.858 8.50895L11.8428 8.46187H11.8322V8.44669L11.8261 8.44517V8.4315L11.817 8.42846V8.4148L11.8079 8.41328V8.39809L11.8018 8.39657V8.3829L11.7851 8.3662V8.35101L11.7699 8.34038L11.7547 8.29483L11.7289 8.27508V8.2599L11.697 8.23408L11.6894 8.20978L11.6727 8.19915V8.18549L11.6484 8.16574V8.15208L11.6257 8.13385V8.11867L11.5695 8.064L11.5619 8.04122L11.5467 8.03818V8.02451L11.5148 8.00325L11.4753 7.95314L11.4571 7.9501V7.94403L11.4176 7.91214V7.89999L11.3964 7.88632V7.88025L11.3721 7.86962L11.3645 7.85291L11.3159 7.83013L11.3083 7.81343L11.284 7.8028V7.79521L11.2703 7.79369L11.2506 7.77394L11.2369 7.77243V7.76483L11.2217 7.7618L11.2126 7.74509L11.1974 7.74357V7.73598L11.1807 7.73294L11.164 7.71624L11.1488 7.7132L11.1412 7.6965L11.0699 7.66157V7.65398L11.0547 7.65094V7.64335L11.0076 7.62816L10.8254 7.54312L10.7403 7.51882V7.51426L10.4882 7.45959L10.0159 7.46567L9.99013 7.46111V7.46871L9.94609 7.4763V7.48085L9.9142 7.48389L9.90661 7.49604L9.89142 7.493V7.5006L9.87623 7.49756V7.50515L9.85953 7.50212L9.84282 7.51426L9.82916 7.50971L9.82005 7.52338L9.77449 7.53097L9.75778 7.54767L9.72437 7.55071L9.71982 7.56286L9.694 7.5659V7.57197L9.67122 7.57653L9.67274 7.59019L9.63174 7.60538V7.61145L9.61807 7.60842L9.57859 7.64638L9.54822 7.65398V7.66916L9.52392 7.67068V7.68587L9.50873 7.6889V7.69801L9.49203 7.69498L9.45254 7.72991V7.74509L9.44799 7.74357L9.4328 7.77091L9.4161 7.76635L9.4085 7.78609H9.39939L9.3918 7.80584L9.3751 7.81039L9.36902 7.83773L9.34776 7.84836L9.32954 7.88632L9.31283 7.8924L9.31587 7.90758L9.30068 7.91973V7.9334H9.29309V7.94707H9.28398V7.95921L9.27639 7.9577V7.97288L9.26879 7.97136V7.98503L9.2612 7.98351L9.2445 8.02451H9.2369L9.16097 8.24775L9.14882 8.3905L9.13971 8.38898L9.13516 8.55451H9.14123L9.15034 8.70181L9.15945 8.70485L9.16857 8.79293L9.17464 8.79445L9.17616 8.82178L9.18375 8.8233V8.85215L9.19134 8.85519L9.19438 8.88252L9.20046 8.88404L9.20349 8.9053L9.20957 8.90834V8.9296L9.21716 8.93264V8.9539H9.22475V8.97668H9.23387V8.99946L9.24146 9.00098V9.02224L9.24905 9.02527V9.04653H9.25664L9.27487 9.09361L9.28246 9.09513V9.1088H9.28854L9.29005 9.12398L9.29917 9.12702V9.14221H9.30676V9.15891H9.31283V9.17258L9.32954 9.1908V9.20447L9.34776 9.2151L9.36295 9.26066L9.38421 9.2804L9.39332 9.31077L9.41002 9.3214L9.41762 9.34418L9.42521 9.3457L9.43432 9.37L9.44799 9.37303V9.38518L9.47229 9.40492V9.41859L9.49051 9.42922V9.44441L9.51329 9.46415V9.47174L9.52847 9.47326L9.54518 9.49148L9.55277 9.51275L9.58466 9.5416V9.56286L9.59226 9.5659V9.58564L9.60137 9.58868L9.60289 9.60842L9.61048 9.61145V9.63271L9.61807 9.63423V9.64942H9.62566L9.63326 9.69498L9.64237 9.6965L9.65907 9.74357L9.66819 9.74509V9.75876L9.67578 9.7618V9.77546H9.68033V9.79065L9.69096 9.79369V9.80584L9.70615 9.82558V9.83924L9.72134 9.84836L9.73804 9.89543L9.76082 9.91517L9.77145 9.94403L9.78664 9.95466L9.79423 9.97896L9.82612 10.0048V10.0215L9.8656 10.0579V10.0701L9.92179 10.1247L9.92939 10.1475L9.94609 10.1506L9.97039 10.2067L9.98557 10.2736L9.99469 10.2751V10.2903L10.0023 10.2918V10.313L10.0099 10.3146L10.0281 10.3601L10.0342 10.3632V10.3768L10.0418 10.3783V10.3935L10.0509 10.3951V10.4087L10.0569 10.4102V10.4315L10.0737 10.4421L10.0828 10.4725L10.0995 10.4831L10.1147 10.5287L10.1298 10.5393V10.5545L10.1465 10.5651L10.1557 10.5955L10.1693 10.6046V10.6198L10.2012 10.6456V10.6623L10.2346 10.6881V10.7048L10.2589 10.7231L10.268 10.7383L10.2832 10.7413V10.7489L10.2969 10.7595V10.7732L10.3227 10.7838L10.3318 10.8081L10.3455 10.8112L10.3546 10.8263L10.3622 10.8279V10.843L10.3774 10.8537L10.385 10.8962L10.3941 10.9007V10.9144L10.4032 10.9159V10.9372L10.4108 10.9387L10.4275 10.9843L10.4336 10.9873V11.001L10.4427 11.0025V11.0177L10.4503 11.0192V11.0329H10.4594V11.0496H10.467V11.0663L10.4822 11.083V11.0966L10.5004 11.1088L10.514 11.1544L10.5383 11.1726L10.5459 11.1954H10.555V11.2105L10.5778 11.2303V11.2455L10.6112 11.2728V11.2865L10.6416 11.3138V11.329L10.6978 11.3852L10.7054 11.4064L10.7221 11.408V11.4231L10.7449 11.4338V11.4414L10.7859 11.4793V11.493L10.8011 11.5036V11.5173L10.8087 11.5188V11.534L10.8162 11.5355V11.5568L10.8254 11.5583L10.8481 11.6175H10.8451L10.839 11.6585L10.8314 11.657V11.6722L10.8238 11.6692V11.6919L10.8147 11.6889V11.7117H10.8087V11.7253L10.8011 11.7223V11.7451L10.792 11.7421L10.7859 11.7694L10.7783 11.7679V11.7906L10.7707 11.7891L10.754 11.8286L10.7464 11.8271V11.8438L10.7403 11.8392V11.862L10.7267 11.8666V11.8802L10.7175 11.8787V11.9015L10.7024 11.9045V11.9197L10.6948 11.9182V11.9319L10.6796 11.944V11.9577L10.6644 11.9623L10.6492 12.0017L10.6325 12.0078V12.0215L10.6112 12.0306L10.6036 12.0579L10.5809 12.0686V12.0837L10.5642 12.0868L10.5566 12.108L10.549 12.105V12.1202L10.5247 12.1308V12.146L10.4882 12.1809L10.4002 12.2979L10.3865 12.3206L10.3804 12.3191V12.3389L10.3728 12.3373V12.3662H10.3637V12.3875L10.3576 12.3844L10.3455 12.4057L10.3379 12.4026V12.4254L10.3318 12.4239V12.4452L10.3227 12.4436V12.4573L10.3151 12.4558V12.4786L10.3075 12.4755V12.4907L10.2999 12.4892L10.2787 12.5272H10.2741L10.2635 12.5545L10.2589 12.5515V12.5667L10.2498 12.5651V12.5879L10.2422 12.5864L10.227 12.5925H10.2316L10.2331 12.6077L10.2225 12.6061L10.2103 12.6471L10.1936 12.6502L10.1784 12.6912L10.1617 12.6957L10.1481 12.7337L10.1329 12.7413V12.7519L10.1162 12.7565V12.7732L10.101 12.7762V12.7914H10.0919L10.0843 12.8112L10.0691 12.8142V12.8279L10.0478 12.8385V12.8537L10.0326 12.8567V12.8719L10.0159 12.8765L10.0311 12.8856L10.0129 12.8886V12.9038L9.98254 12.9539V12.9691L9.92939 12.9995V13.0162L9.89901 13.0298L9.73804 13.2379L9.73045 13.2364L9.72134 13.2637L9.71678 13.2622V13.2774L9.70615 13.2758V13.2956H9.7016L9.68489 13.3351H9.67578V13.3472L9.6697 13.3457V13.3624L9.66059 13.3594L9.66363 13.3746L9.65452 13.373V13.3867L9.63933 13.3973V13.4125L9.62415 13.4171V13.4383L9.61655 13.4353L9.60744 13.4581L9.59226 13.4596L9.58466 13.4884L9.571 13.493V13.5067L9.56188 13.5052V13.5203L9.54822 13.5249V13.5386L9.52392 13.5492L9.51633 13.5765L9.49203 13.5856V13.6008L9.47077 13.6115V13.6251L9.45558 13.6297V13.6433L9.42369 13.66V13.6737L9.38421 13.695V13.7102L9.26879 13.8514H9.2612V13.8802L9.25209 13.8772V13.8924L9.2445 13.8909L9.21716 13.9516L9.20957 13.9486L9.20349 13.9835H9.19438V13.9972L9.18831 13.9941V14.0154H9.18071L9.16401 14.0549L9.15642 14.0534V14.067L9.14882 14.0655V14.0807H9.14123V14.1004L9.12604 14.1065V14.1263L9.11238 14.1308V14.146L9.10327 14.143V14.1582L9.09567 14.1566V14.1718L9.08808 14.1703V14.184L9.07289 14.1961V14.2113L9.05771 14.2159L9.05011 14.2417L9.03493 14.2447L9.02734 14.2736L9.00456 14.2842L8.99544 14.31L8.9757 14.3191L8.96659 14.3404L8.95141 14.3465L8.94229 14.3738L8.918 14.3814V14.3966L8.88155 14.4194V14.433L8.84207 14.4528V14.4695L8.71298 14.6168L8.70539 14.6365L8.6978 14.635V14.6638L8.69021 14.6608L8.68261 14.6881L8.67654 14.6866L8.66743 14.7291L8.65983 14.7276L8.65376 14.7641L8.64465 14.761L8.63705 14.7869L8.62946 14.7853V14.8005L8.62035 14.799V14.8218L8.61276 14.8187L8.59909 14.8613L8.5915 14.8597V14.8734H8.5839L8.5672 14.9114L8.55201 14.9144V14.9311L8.53834 14.9418V14.9554L8.53075 14.9539V14.9691H8.52316V14.9812L8.50949 14.9873L8.50038 15.0131L8.48519 15.0177V15.0313L8.46849 15.0359V15.0511L8.4533 15.0541V15.0678L8.43812 15.0739V15.0875L8.42293 15.0921V15.1073L8.40015 15.1164V15.1301L8.38497 15.1346V15.1513L8.35459 15.1665V15.1802L8.31511 15.2014V15.2151L8.28626 15.2318V15.2394L8.26955 15.244L8.13592 15.411L8.12832 15.4231L8.11162 15.4641H8.10554L8.09947 15.4915L8.09188 15.49V15.5097L8.08276 15.5082V15.5234L8.07517 15.5219V15.5431H8.06606L8.04024 15.5811L8.03265 15.578V15.5932L8.02506 15.5917V15.613L8.01139 15.6175V15.6312L7.99469 15.6418V15.657H7.98709V15.6692H7.9795V15.6828L7.96431 15.695V15.7086L7.94913 15.7132L7.94002 15.7405L7.92635 15.7451V15.7588L7.91116 15.7633V15.777L7.89446 15.7815L7.88686 15.8104L7.86257 15.8195L7.85801 15.8468L7.83371 15.8559L7.79423 15.9V15.9152L7.78208 15.9106L7.76538 15.938L7.75778 15.9364V15.9486L7.7426 15.9531V15.9607L7.72589 15.9653V15.9805L7.64237 16.0367V16.0503L7.62566 16.0534L7.58922 16.0898L7.57251 16.0883L7.5634 16.1004L7.31739 16.3282L7.3098 16.3252L7.31283 16.3389H7.30372V16.3525L7.28853 16.3647V16.3799L7.27183 16.3829L7.26424 16.4102L7.25057 16.4148L7.24146 16.4421L7.21868 16.4512L7.2126 16.4786L7.18831 16.4892L7.18071 16.5165L7.15945 16.5257V16.5408L7.13516 16.5515V16.5651L7.10327 16.5803L7.09871 16.6016L7.0896 16.6001V16.6137L7.07441 16.6107L6.91951 16.755L6.90433 16.7519L6.89522 16.7626L6.83447 16.796V16.8112L6.82688 16.8081L6.79499 16.8248V16.8324L6.78284 16.8294V16.843L6.74943 16.8522V16.8597L6.73576 16.8552L6.72665 16.8689L6.71906 16.8673L6.70995 16.881L6.55657 17.0313L6.5429 17.0359L6.53379 17.0632L6.5186 17.0663V17.0815L6.5019 17.086V17.0997L6.48823 17.1042V17.1179L6.47305 17.124V17.1361L6.45786 17.1422V17.1559L6.43356 17.165V17.1802L6.41989 17.1847V17.1984L6.40471 17.2014V17.209L6.38952 17.2151V17.2288L6.35763 17.2455V17.2591L6.30448 17.2925V17.3062L6.24981 17.3396L6.24222 17.3594L6.22855 17.3578L6.22096 17.3761L6.19666 17.3806L6.1268 17.4231L5.92635 17.6221L5.89749 17.6616V17.6752L5.88079 17.6783L5.8732 17.7071L5.85801 17.7117L5.85953 17.7253L5.84282 17.7299L5.82916 17.7496V17.7618L5.81245 17.7664L5.8003 17.7679L5.78512 17.7709V17.7846L5.76993 17.7906V17.8043L5.74563 17.8149L5.70767 17.8575V17.8727L5.69248 17.8681L5.68337 17.8894L5.66211 17.8985V17.9137L5.62263 17.9349L5.47684 18.0443V18.0579L5.46317 18.0701L5.44495 18.067L5.43128 18.0853L5.35232 18.1217L5.35535 18.1339L5.33106 18.1384L5.28398 18.1582L5.26879 18.1764L5.25361 18.1733L5.22931 18.184L5.22172 18.1976L5.21716 18.2083L5.21109 18.2204L5.15793 18.2326V18.2477L5.12756 18.2493V18.2553L5.11086 18.2523L5.10327 18.2645L5.08656 18.2614V18.2705L5.07289 18.266L5.05619 18.2705L4.58542 18.5773L4.57175 18.5742L4.54594 18.6001L4.53227 18.597V18.6031L4.50949 18.6152L4.50038 18.6274L4.48519 18.6228L4.47912 18.638L4.4609 18.6335L4.44571 18.6517L4.43052 18.6487L4.41534 18.6684L4.38345 18.6699L4.36978 18.6881L4.35459 18.6866L4.347 18.6973L4.31359 18.6988L4.306 18.7124L4.27715 18.714L4.26955 18.7261L4.25285 18.7231L4.23766 18.7367L4.22248 18.7322V18.7398L4.20729 18.7367L4.1997 18.7504L4.16629 18.7519L4.16932 18.758L4.15414 18.7565V18.761L4.10706 18.7686V18.7777L4.08276 18.7701V18.7793L4.06758 18.7777V18.7823L4.02202 18.7884V18.796L3.97494 18.7929V18.8005L3.95824 18.7975V18.8066L3.88838 18.8081V18.8127L3.8732 18.8111V18.8172L3.84282 18.8127V18.8187L3.82005 18.8157V18.8233L3.79575 18.8172V18.8263L3.77297 18.8218V18.8279L3.7426 18.8233L3.612 18.8339L3.53455 18.8263V18.8339L3.06682 18.7686V18.761L2.90129 18.7231L2.58846 18.6092V18.6001L2.48671 18.5606V18.5545L2.47304 18.5515V18.5424L2.44875 18.5393V18.5317L2.40167 18.5165V18.5089L2.38497 18.5059V18.4998L2.36067 18.4938V18.4877L2.33181 18.474V18.4679L2.31663 18.4649V18.4573L2.29233 18.4543V18.4467L2.26044 18.433V18.4254L2.24677 18.4239V18.4178L2.22096 18.4118L2.21488 18.3951L2.19666 18.3935V18.3859L2.18299 18.3829V18.3753L2.16629 18.3738V18.3662L2.1511 18.3616L2.1344 18.3465L2.11921 18.3419L2.11162 18.3267L2.06454 18.3024L2.05695 18.2888L2.02506 18.2766L2.00987 18.2508L1.99468 18.2477L1.98405 18.2326L1.97039 18.2295L1.96887 18.2219L1.94609 18.2113L1.9385 18.1946L1.92331 18.1916L1.90812 18.1673L1.89142 18.1642L1.88383 18.149L1.86712 18.146L1.85194 18.1217L1.83675 18.1202L1.80486 18.0777L1.78967 18.0746L1.75019 18.0245L1.735 18.0215L1.63326 17.903L1.56948 17.8392V17.8256L1.51329 17.7709V17.7572L1.48443 17.7299V17.7162L1.45254 17.6874L1.44951 17.6752L1.43432 17.6646V17.6494L1.41154 17.6312V17.6175L1.39484 17.6069L1.38724 17.5841L1.37965 17.5826V17.5689L1.36295 17.5583V17.5446L1.34776 17.5325V17.5188L1.33409 17.5082L1.31739 17.4626L1.30068 17.4535L1.2855 17.408L1.26879 17.3973L1.25968 17.3685L1.25209 17.3654V17.3518L1.2445 17.3503V17.3351H1.23538V17.3199L1.23083 17.3184L1.22779 17.3032L1.2202 17.3017V17.2804L1.20349 17.2713V17.25L1.1959 17.247L1.18831 17.2181H1.18071V17.1954H1.17312L1.16553 17.1635L1.15793 17.1619L1.14882 17.1179L1.13971 17.1149V17.1012L1.13212 17.0997V17.0708L1.12453 17.0693V17.0556L1.11845 17.0541V17.0268L1.10782 17.0238V17.0025L1.10023 17.001V16.9782H1.09263L1.08352 16.9266L1.07745 16.925L1.06834 16.8597L1.05923 16.8582V16.8294L1.05315 16.8279V16.7975H1.04404V16.755L1.03645 16.7534L1.02733 16.6502L1.01974 16.6487L1 16.3738L1.00911 16.3753L1.01974 16.1126L1.02733 16.1141V16.0701L1.03645 16.0716V16.0291L1.04404 16.0306L1.05011 15.9668L1.05771 15.9698L1.05619 15.9334L1.0653 15.9349L1.06378 15.9076H1.07289L1.08049 15.8575L1.08656 15.862V15.8392H1.09415V15.818L1.10327 15.8195V15.7922H1.11086L1.10782 15.777L1.11845 15.7785L1.13212 15.7162L1.13971 15.7178L1.14882 15.6919L1.1549 15.6935L1.16097 15.6494L1.1716 15.654L1.18679 15.613L1.1959 15.616V15.5993L1.20046 15.6023L1.20805 15.5674L1.22323 15.5629L1.23083 15.5294L1.24905 15.5234L1.24601 15.5097L1.26272 15.4991V15.4824L1.26879 15.4854V15.4717H1.27639V15.4581L1.29157 15.455L1.30979 15.4125L1.31435 15.414L1.32194 15.3943L1.33865 15.3913V15.3761L1.35383 15.3715V15.3578L1.37813 15.3472L1.38573 15.3184L1.4085 15.3123V15.2956L1.42976 15.2865V15.2713L1.46773 15.25V15.2364L1.50721 15.2136V15.1999L1.53607 15.1847V15.168L1.58618 15.1513V15.1361L1.63933 15.1042L1.64692 15.0906L1.66211 15.0921L1.67882 15.0815L1.6773 15.0663L1.75323 15.0298V15.0162L1.81549 14.9919L1.82308 14.9797L1.83827 14.9812L1.85497 14.963L1.87016 14.9676L1.88535 14.9478L1.90205 14.9493L1.90812 14.9387L1.9309 14.9342V14.9281L1.94609 14.9311L1.9552 14.9175L1.97039 14.922L1.97798 14.9083L1.99468 14.9114L2.19362 14.7747L2.30904 14.6547H2.31815L2.3713 14.6016H2.37889V14.5879L2.40926 14.5651L2.43204 14.5621L2.48671 14.515L2.71147 14.3556V14.3419L2.72361 14.3237L2.74032 14.3115V14.2963L2.74791 14.2979V14.2842L2.7631 14.2796V14.266L2.7798 14.2538L2.77677 14.2402L2.79195 14.2356V14.2204L2.80866 14.2174V14.2022L2.82384 14.184L2.84055 14.1794L2.87851 14.1369L2.92407 14.0883V14.0731L2.94077 14.0761L2.98178 14.0549L2.98785 14.0564V14.0427L3.0167 14.026V14.0184L3.03189 14.0154V14.0017L3.08049 13.9729L3.17008 13.8757L3.18527 13.8772L3.23387 13.8362L3.24905 13.8392L3.2612 13.7982L3.2779 13.8028L3.3098 13.7709L3.32498 13.7739L3.33257 13.7618L3.34928 13.7633L3.36295 13.7451L3.42825 13.6995L3.44343 13.6889L3.45254 13.6843L3.51481 13.6175L3.52088 13.5887L3.52847 13.5902L3.53759 13.5705L3.55277 13.5674V13.5522L3.56644 13.5492V13.534L3.59985 13.5173L3.60592 13.49L3.62111 13.4854L3.6287 13.4672L3.66819 13.4444V13.4307L3.70615 13.4095V13.3943L3.78208 13.3442L3.78967 13.3244L4.08428 13.0207L4.10099 13.0177L4.11617 12.9782L4.13288 12.9721L4.14655 12.9311L4.15414 12.9326L4.16173 12.9129L4.17692 12.9083L4.18451 12.881L4.20729 12.8719L4.21488 12.8446L4.23766 12.8339V12.8203L4.26196 12.8112V12.7944L4.27715 12.7914V12.7762L4.31663 12.755L4.31359 12.7413L4.35459 12.7185V12.7064L4.68717 12.2326L4.69628 12.2174L4.71298 12.2143L4.72058 12.1855L4.73728 12.1824L4.74487 12.1536L4.76006 12.1506V12.1354L4.77525 12.1308L4.77373 12.1156L4.78891 12.1126V12.0974L4.80562 12.0944V12.0807L4.82688 12.0686V12.0564L4.85118 12.0443L4.84966 12.0306L4.89066 12.0108V11.9941L4.92863 11.9744V11.9607L4.96052 11.944L4.959 11.9288L4.9757 11.9182L4.99089 11.9212" fill="#00B9AD"/>
<path d="M10.8566 11.5857L10.8793 11.5037L10.8945 11.5067L10.9173 11.411L10.9325 11.4035L10.9401 11.3852H10.9477L10.9568 11.3655L10.972 11.367L11.0039 11.3169L11.019 11.3199L11.0479 11.2592L11.0646 11.2622L11.095 11.1954L11.1117 11.1984L11.1436 11.1468V11.124L11.1588 11.121L11.1572 11.0997L11.1709 11.0952L11.18 11.0587L11.1876 11.0618V11.0466L11.2043 11.0435L11.2119 10.9995L11.2271 11.0041L11.2347 10.9539L11.2484 10.9494L11.2575 10.8932L11.2726 10.8886L11.2802 10.8309L11.2969 10.8279V10.7915L11.3015 10.793V10.7656L11.3197 10.7596L11.3258 10.6745L11.341 10.6684L11.3395 10.6107L11.3471 10.6123V10.591L11.3547 10.5925L11.3638 10.5591L11.3714 10.5606L11.3865 10.5546L11.3941 10.5211L11.4169 10.5181L11.4154 10.4968L11.4306 10.4984L11.4412 10.4634L11.4655 10.4619L11.4625 10.4391L11.4777 10.4422L11.4944 10.3951L11.5096 10.3981L11.5187 10.3556L11.5338 10.3587L11.587 10.2387L11.6022 10.2417L11.6098 10.1992L11.625 10.2022L11.6341 10.1536L11.6477 10.1567L11.6553 10.0929L11.6705 10.0959L11.6933 9.99722L11.7024 9.99874L11.71 9.92737L11.7237 9.92433L11.7297 9.8241L11.748 9.81955V9.7907H11.7556L11.7768 9.74514L11.7935 9.74817L11.8163 9.73147L11.8558 9.65098L11.8695 9.65402L11.9014 9.58568L11.9165 9.59024L12.1291 8.98584L12.1383 8.98735L12.1443 8.97217H12.1519V8.98735H12.1595V9.00406H12.1671V9.01773L12.1747 9.01924V9.03443L12.1838 9.03595V9.04962L12.1914 9.05114V9.06632L12.199 9.06784V9.08151L12.2066 9.08303L12.2233 9.12858L12.2309 9.13162L12.3736 9.37763V9.39434L12.404 9.42167V9.43534L12.4283 9.45357V9.46723L12.4526 9.48697V9.50216L12.4678 9.51127V9.52646L12.4845 9.53557L12.4921 9.55987H12.4997V9.57505L12.5164 9.59024V9.60543L12.524 9.60694V9.62365L12.5407 9.63124L12.5483 9.66161L12.5543 9.66465L12.5711 9.71021L12.5802 9.71173V9.73451H12.5878L12.5954 9.76336L12.6029 9.7664L12.7396 9.9547V9.96989L12.7776 10.0048V10.02L12.8095 10.0473V10.061L12.8323 10.0792V10.0929L12.849 10.105V10.1202L12.8717 10.1385V10.1536L12.8884 10.1612L12.896 10.1931L12.9112 10.2022L12.9279 10.2478L12.9431 10.2599L12.9507 10.2888L12.9583 10.2903L12.9689 10.3207H12.9765V10.3435H12.9841L12.9932 10.3754L12.9993 10.3769L13.0069 10.4133L13.016 10.4148L13.1496 10.6047V10.6199L13.1891 10.6548V10.6684L13.2134 10.6882V10.7019L13.2347 10.7216V10.7353L13.2514 10.7444L13.262 10.7687L13.2696 10.7702V10.7839L13.2848 10.793L13.2924 10.8249L13.3061 10.834L13.3243 10.8811H13.3319V10.8947L13.3395 10.8962V10.9129H13.3486V10.9281L13.3562 10.9296L13.3714 10.9752L13.3789 10.9767V10.998L13.3865 10.9995V11.0132L13.3941 11.0147L13.3972 11.0359L13.4048 11.0375V11.0527L13.4124 11.0542V11.0739L13.42 11.077V11.0967L13.4275 11.0997V11.121L13.4351 11.1225L13.4822 11.1954L13.5217 11.2531L13.5293 11.2546L13.5384 11.2774L13.5612 11.2971V11.3093L13.5794 11.3214V11.3351L13.6007 11.3533V11.367L13.6159 11.3776L13.625 11.4019H13.6326L13.6417 11.4323L13.6584 11.4445V11.4581L13.6736 11.4748V11.49H13.6827V11.5052L13.6872 11.5067L13.6887 11.5219L13.7054 11.531V11.5523L13.713 11.5538V11.5675L13.7206 11.5705L13.7282 11.5994L13.7358 11.6009V11.6236H13.7434V11.6388H13.751L13.7616 11.6783H13.7692V11.6996L13.7768 11.7011L13.871 11.8697L13.9013 11.8955V11.9122L13.9272 11.9304V11.9441L13.9424 11.9547V11.9684L13.997 12.058L14.0122 12.0671V12.0823L14.0304 12.1005V12.1126L14.038 12.1157V12.1293L14.0471 12.1309V12.1476H14.0547V12.1597L14.0608 12.1612L14.0775 12.2083L14.0851 12.2113L14.2187 12.3997L14.2354 12.4255H14.243V12.4391L14.2764 12.465V12.4817L14.2977 12.5014V12.5151L14.3235 12.5333V12.547L14.3387 12.5591V12.5728L14.3539 12.5819L14.363 12.6047L14.3706 12.6062L14.3782 12.6381L14.3934 12.6472L14.401 12.6776L14.4405 12.755H14.4526L14.4511 12.7626L14.4268 12.7732V12.7793L14.4131 12.7778V12.7854L14.3949 12.7808L14.3827 12.8006L14.3721 12.799V12.8142L14.3676 12.8127L14.3554 12.8249L14.3417 12.8233L14.3341 12.8431L14.3114 12.8613L14.3007 12.8583V12.8674L14.2871 12.8628V12.8704L14.2643 12.8811V12.8947L14.2491 12.9008V12.9145L14.2172 12.9312L14.1777 12.96V12.9737L14.1701 12.9722V12.9874L14.1474 12.998V13.0041L14.1307 13.0025L14.1231 13.0162L14.0912 13.0177L14.0122 13.039L13.9894 13.0557V13.0633L13.9742 13.0602V13.0663L13.9575 13.0633L13.9424 13.083L13.9272 13.0815L13.9181 13.0921H13.9013L13.8558 13.1316L13.8406 13.1301L13.8163 13.1544L13.7935 13.1574L13.7844 13.1772L13.7616 13.1802V13.1954L13.7373 13.2136L13.7313 13.2106V13.2182L13.707 13.2227L13.7009 13.2334L13.6751 13.2303L13.669 13.244L13.6538 13.241V13.2486L13.6371 13.2455V13.2516L13.6052 13.2455V13.2531L13.5566 13.2592V13.2668L13.5338 13.2622L13.5354 13.2713L13.5202 13.2668L13.5111 13.2804L13.4792 13.282L13.3972 13.3351L13.2894 13.3867L13.1102 13.4748L13.0859 13.4915L12.9932 13.5766L12.9704 13.5933L12.8991 13.6024L12.8839 13.6206L12.8125 13.6297L12.8049 13.6434H12.773L12.7594 13.6631L12.7427 13.6616L12.7351 13.6738L12.7017 13.6753L12.6865 13.6935L12.6561 13.7102L12.6409 13.7072V13.7208L12.6257 13.7178L12.609 13.7391L12.5908 13.7345L12.5938 13.7421L12.5771 13.7391V13.7451L12.5604 13.7512L12.5619 13.7649L12.5468 13.7694V13.777L12.5149 13.7785L12.5073 13.7892L12.3463 13.8044L12.2552 13.6889L12.2309 13.6707L12.2233 13.6495L12.1899 13.6206V13.6069L12.1671 13.5857V13.5751L12.1413 13.5538V13.5401L12.1261 13.5295V13.5143L12.1094 13.5052L12.1018 13.4763L12.0866 13.4642L12.079 13.4353L12.0714 13.4338L12.0638 13.4035L12.0562 13.4004V13.3883L12.0471 13.3852L12.0335 13.37L12.0289 13.3685L11.956 13.2713L11.8983 13.2015V13.1924L11.8649 13.1665V13.1544L11.789 13.0724V13.0587L11.7692 13.0329V13.0192L11.754 13.0086V12.9949L11.7343 12.9843V12.9722L11.7206 12.96V12.9464L11.7055 12.9372V12.9221L11.6887 12.9114V12.8962H11.6812L11.672 12.8659L11.6569 12.8552L11.6477 12.8249H11.6417L11.6113 12.7763L11.6037 12.7747V12.752H11.5976L11.5885 12.7201L11.5794 12.7186L11.4306 12.512V12.4984L11.3926 12.4634V12.4483L11.3683 12.43V12.4148L11.344 12.3966V12.383L11.3288 12.3738V12.3571L11.3137 12.348L11.303 12.3252L11.2969 12.3237L11.2802 12.2766L11.2651 12.2675L11.1071 11.9881L11.098 11.9638L11.0357 11.9031V11.8879L11.0039 11.8621V11.8469L10.972 11.8195V11.8044L10.9568 11.7937L10.9477 11.771H10.9401V11.7573L10.9249 11.7467V11.7315L10.9082 11.7224V11.7072L10.8945 11.6965V11.6844L10.8535 11.6267V11.6206L10.8581 11.6221L10.8566 11.5857Z" fill="#B2C23E"/>
<path d="M12.1458 8.94922V8.95833L12.1367 8.94922H12.1458Z" fill="#81BB45"/>
<path d="M10.8537 11.6207H10.8477V11.6177L10.8537 11.6192V11.6207Z" fill="#81BB45"/>
<path d="M10.8159 11.5567V11.5354L10.8083 11.5339V11.5187L10.8007 11.5172V11.5035L10.7855 11.4929V11.4792L10.7445 11.4412V11.4337L10.7217 11.423V11.4078L10.705 11.4063L10.6974 11.3851L10.6412 11.3289V11.3137L10.6108 11.2864V11.2727L10.5774 11.2453V11.2302L10.5547 11.2104V11.1952H10.5455L10.538 11.1725L10.5137 11.1542L10.5 11.1087L10.4818 11.0965V11.0829L10.4666 11.0662V11.0494H10.459V11.0327H10.4499V11.0191L10.4423 11.0176V11.0024L10.4332 11.0009V10.9872L10.4271 10.9841L10.4104 10.9386L10.4028 10.9371V10.9158L10.3937 10.9143V10.9006L10.3846 10.8961L10.2965 10.7731V10.7594L10.2828 10.7488V10.7412L10.2676 10.7381L10.2585 10.7229L10.2342 10.7047V10.688L10.2008 10.6622V10.6455L10.1689 10.6197V10.6045L10.1553 10.5954L10.1462 10.565L10.1295 10.5544V10.5392L10.1143 10.5286L10.0991 10.483L10.0824 10.4724L10.0733 10.442L10.0566 10.4314V10.4101L10.0505 10.4086V10.3949L10.0414 10.3934V10.3782L10.0338 10.3767V10.363L10.0277 10.36L10.0095 10.3144L10.0019 10.3129V10.2917L9.9943 10.2901V10.275L9.98518 10.2734L9.86521 10.0699V10.0578L9.82573 10.0214V10.0047L9.79384 9.97883L9.78625 9.95454L9.77106 9.94391L9.76043 9.91505L9.73765 9.89531L9.72095 9.84823L9.70576 9.83912V9.82545L9.69057 9.80571V9.79356L9.67994 9.79053V9.77534H9.67539V9.76167L9.6678 9.75864V9.74497L9.65868 9.74345L9.64198 9.69637L9.63287 9.69485L9.62527 9.6493H9.61768L9.61009 9.63259L9.6025 9.60829L9.55238 9.51262L9.52808 9.47314L9.5129 9.47162V9.46403L9.49012 9.44429V9.4291L9.4719 9.41847V9.4048L9.4476 9.38506V9.37291L9.43393 9.36987L9.42482 9.34558L9.41723 9.34406L9.40963 9.32128L9.39293 9.31065L9.38382 9.28028L9.36256 9.26053L9.34737 9.21498L9.32915 9.20435V9.19068L9.31244 9.17246V9.15879H9.30637V9.14208H9.29878V9.1269L9.28966 9.12386L9.28815 9.10867H9.28207V9.09501L9.27448 9.09349L9.25625 9.04641H9.24866V9.02515L9.24107 9.02211V9.00085L9.23348 8.99934V8.97656H9.22436V8.95378H9.21677V8.93252L9.20918 8.92948V8.90822L9.2031 8.90518L9.20007 8.88392L9.19399 8.8824L9.19095 8.85507L9.18336 8.85203V8.82318L9.17577 8.82166L9.17425 8.79432L9.16818 8.79281L9.15906 8.70473L9.14995 8.70169L9.14084 8.55438H9.13477L9.13932 8.38886L9.14843 8.39038L9.16058 8.24763L9.23651 8.02439H9.24411L9.26081 7.98339L9.2684 7.98491V7.97124L9.276 7.97276V7.95757L9.28359 7.95909V7.94694H9.2927V7.93328H9.30029V7.91961L9.31548 7.90746L9.31244 7.89227L9.32915 7.8862L9.34737 7.84823L9.36863 7.8376L9.37471 7.81027L9.39141 7.80571L9.399 7.78597H9.40811L9.41571 7.76623L9.43241 7.77079L9.4476 7.74345L9.45215 7.74497V7.72978L9.49164 7.69486L9.50834 7.69789V7.68878L9.52353 7.68574V7.67056L9.54783 7.66904V7.65385L9.5782 7.64626L9.61768 7.6083L9.63135 7.61133V7.60526L9.67235 7.59007L9.67083 7.5764L9.69361 7.57185V7.56577L9.71943 7.56274L9.72398 7.55059L9.75739 7.54755L9.7741 7.53085L9.81966 7.52325L9.82877 7.50959L9.84244 7.51414L9.85914 7.50199L9.87584 7.50503V7.49744L9.89103 7.50047V7.49288L9.90622 7.49592L9.91381 7.48377L9.9457 7.48073V7.47618L9.98974 7.46858V7.46099L10.0156 7.46555L10.4878 7.45947L10.7399 7.51414V7.5187L10.825 7.543L11.0072 7.62804L11.0543 7.64322V7.65082L11.0695 7.65385V7.66145L11.1408 7.69637L11.1484 7.71308L11.1636 7.71612L11.1803 7.73282L11.197 7.73586V7.74345L11.2122 7.74497L11.2213 7.76167L11.2365 7.76471V7.7723L11.2502 7.77382L11.2699 7.79356L11.2836 7.79508V7.80268L11.3079 7.81331L11.3155 7.83001L11.3641 7.85279L11.3717 7.8695L11.396 7.88013V7.8862L11.4172 7.89987V7.91202L11.4567 7.94391V7.94998L11.4749 7.95302L11.5144 8.00313L11.5463 8.02439V8.03806L11.5615 8.0411L11.5691 8.06388L11.6253 8.11855V8.13373L11.6481 8.15196V8.16562L11.6724 8.18536V8.19903L11.6891 8.20966L11.6967 8.23396L11.7285 8.25978V8.27496L11.7544 8.2947L11.7695 8.34026L11.7847 8.35089V8.36608L11.8014 8.38278V8.39645L11.8075 8.39797V8.41315L11.8166 8.41467V8.42834L11.8257 8.43138V8.44505L11.8318 8.44656V8.46175H11.8424L11.8652 8.51035L12.0095 8.76091V8.77458L12.0171 8.77762L12.0338 8.80192L12.0581 8.82014V8.83533L12.0733 8.84596V8.86114L12.0976 8.87785L12.1052 8.90974L12.1279 8.92796L12.1355 8.94618V8.94922L12.1446 8.95833V8.972L12.1386 8.98719L12.1295 8.98567L11.9168 9.59007L11.9017 9.58552L11.8698 9.65385L11.8561 9.65082L11.8166 9.7313L11.724 9.92416L11.7103 9.9272L11.7027 9.99858L11.6936 9.99706L11.6708 10.0958L11.6556 10.0927L11.6481 10.1565L11.6344 10.1535L11.6253 10.2021L11.6101 10.199L11.6025 10.2416L11.5873 10.2385L11.5342 10.3585L11.519 10.3554L11.5099 10.398L11.4947 10.3949L11.478 10.442L11.4658 10.4617L11.4309 10.4982L11.4172 10.5179L11.3413 10.6683L11.32 10.7594L11.3018 10.7655V10.7928L11.2973 10.7913V10.8277L11.2806 10.8308L11.273 10.8885L11.2578 10.893L11.2487 10.9492L11.235 10.9538L11.2274 11.0039L11.2122 10.9993L11.2046 11.0434L11.1879 11.0464V11.0616L11.1803 11.0586L11.1712 11.095L11.1575 11.0996L11.1591 11.1208L11.1439 11.1239V11.1466L11.112 11.1983L11.0953 11.1952L11.0649 11.2621L11.0482 11.259L11.0194 11.3198L10.8948 11.5065L10.8569 11.5855L10.8584 11.622L10.8538 11.6204V11.6189L10.8478 11.6174L10.825 11.5582L10.8159 11.5567Z" fill="#009194"/>
<path d="M17.1552 14.7112L17.1597 14.7187L17.1476 14.7157L17.1445 14.7066L17.1552 14.7051V14.7112Z" fill="#81BB45"/>
<path d="M18.658 12.4147L18.6656 12.4162V12.4329L18.6367 12.3965L18.658 12.4147Z" fill="#81BB45"/>
<path d="M17.1121 14.673L17.106 14.6426L17.0817 14.6244L17.0741 14.5864L17.0665 14.5849L17.0331 14.5348L16.9314 14.4649V14.4497L16.9071 14.4391L16.8995 14.4224L16.8813 14.4209L16.8585 14.3875L16.8418 14.3844L16.8038 14.3389L16.7856 14.3146L16.7719 14.3115L16.7461 14.2705L16.7309 14.269L16.6914 14.2113L16.6823 14.2083V14.1931L16.6337 14.1491V14.1354L16.6201 14.1232V14.1081L16.6034 14.0989V14.0853L16.5715 14.0701L16.5138 13.9456L16.5001 13.941L16.4318 13.7922L16.4166 13.78V13.7664L16.409 13.7649L16.4014 13.7193L16.3923 13.7178V13.6965L16.3847 13.695V13.6737L16.3771 13.6722V13.651L16.3695 13.6494L16.368 13.6191H16.3619L16.3513 13.572L16.3437 13.5705V13.5568L16.3361 13.5538V13.5264L16.3285 13.5249L16.327 13.4809L16.3194 13.4794L16.3179 13.4414H16.3118L16.3103 13.3822L16.3027 13.3806L16.1857 12.9828L16.1782 12.9084L16.1706 12.9068V12.8917H16.163L16.1614 12.84L16.1447 12.8279V12.7504L16.128 12.7413L16.125 12.512L16.1417 12.5105V12.427L16.1569 12.4315L16.163 12.3617H16.1706V12.3328L16.1782 12.3343V12.2964L16.1933 12.2933V12.2645L16.21 12.2614L16.2176 12.2113L16.2343 12.2144L16.2541 12.1369L16.2708 12.1399V12.1187L16.286 12.1217L16.3498 12.0245L16.3649 12.0276L16.3892 11.9805L16.4044 11.9835V11.9683L16.4196 11.9699L16.4591 11.9198L16.4728 11.9228V11.9076L16.5001 11.9137L16.5229 11.8955L16.5198 11.8818L16.5365 11.8848V11.8696L16.5517 11.8727L16.5684 11.8545L16.5821 11.856L16.5912 11.8438L16.614 11.8393V11.8256L16.6535 11.8043L16.7248 11.7952V11.7816L16.8038 11.7755V11.7588L16.8737 11.7497L16.8995 11.7557V11.7482L16.9147 11.7497V11.7421L16.9435 11.7482L16.9542 11.736L17.0392 11.7451L17.0453 11.7314L17.1182 11.7451L17.1273 11.7314L17.2518 11.7557L17.27 11.7497L17.4811 11.7983V11.8134L17.6573 11.8666V11.8818L17.6968 11.8879V11.903L17.8258 11.9425L18.1356 12.1096L18.1888 12.1399V12.1475L18.2207 12.1536L18.2283 12.1673L18.2602 12.1749V12.1825L18.2829 12.187V12.1931L18.3088 12.1977V12.2068L18.3406 12.2113V12.2189L18.4515 12.2675V12.2827L18.6079 12.3708V12.3844L18.6368 12.3966L18.6656 12.433V12.4376L18.6823 12.4422L18.6899 12.4801H18.699V12.5105L18.7051 12.512V12.5242L18.7157 12.5272V12.55H18.7233V12.5819H18.7309V12.5955L18.7385 12.597V12.6335L18.7552 12.6426L18.7567 12.6958L18.7719 12.7064V12.7732L18.7871 12.7793L18.7886 12.9038L18.8069 13.004L18.7993 12.9995V13.0298L18.7917 13.0283V13.1544L18.7765 13.1574V13.2227L18.7628 13.2257V13.2774L18.7461 13.2819V13.3199L18.7385 13.3184V13.3321L18.7309 13.3305V13.3594L18.7248 13.3579V13.3731L18.7173 13.3715L18.7081 13.4216L18.7006 13.4186L18.6945 13.4535L18.6778 13.452V13.4809L18.6626 13.4778V13.5067L18.6459 13.5037L18.6322 13.5522L18.6155 13.5492L18.6018 13.5887L18.5775 13.5993V13.6221L18.5457 13.6601L18.5289 13.657L18.5305 13.6707L18.5153 13.6692V13.6844L18.5016 13.6798L18.4439 13.7497L18.4287 13.7481V13.7618L18.3573 13.7922V13.8059L18.3103 13.8195V13.8347L18.1782 13.9334L18.1614 13.9304L18.163 13.9532L18.1478 13.9562V13.9714L18.122 13.982V13.9942L18.0977 14.0063V14.02L18.0688 14.0367L18.0536 14.0549V14.0701L18.0384 14.0671L18.0065 14.0974L17.999 14.0959V14.1111L17.9747 14.1202L17.9671 14.1339L17.9519 14.1308L17.7013 14.3161L17.6937 14.3146L17.6861 14.3358L17.6709 14.3404V14.3541L17.6558 14.3586V14.3738L17.639 14.3784V14.392L17.6148 14.4027V14.4194L17.592 14.427L17.5844 14.4482L17.5525 14.4649L17.5054 14.4999L17.5069 14.5135L17.4811 14.5181L17.4356 14.5606L17.4204 14.556L17.4113 14.5697L17.3961 14.5652L17.3748 14.591L17.349 14.594L17.3399 14.6077L17.3277 14.6046L17.3171 14.6168L17.3034 14.6153L17.2958 14.6274L17.2807 14.6244V14.632L17.2579 14.635L17.2488 14.6487L17.2321 14.6456L17.2169 14.6639L17.2017 14.6608L17.1592 14.7033L17.1622 14.7185H17.1592L17.1546 14.7109V14.7049L17.144 14.7064L17.1227 14.6745L17.1121 14.673Z" fill="#59B35A"/>
<path d="M12.3448 13.8072L12.3418 13.8042H12.3464L12.3494 13.8072H12.3448Z" fill="#81BB45"/>
<path d="M12.5158 13.7784L12.5477 13.7769V13.7693L12.5629 13.7648L12.5613 13.7511L12.578 13.745V13.7389L12.5948 13.742L12.5917 13.7344L12.6099 13.7389L12.6266 13.7177L12.6418 13.7207V13.707L12.657 13.7101L12.6874 13.6934L12.7026 13.6752L12.736 13.6736L12.7436 13.6615L12.7603 13.663L12.7739 13.6433H12.8058L12.8134 13.6296L12.8848 13.6205L12.9 13.6023L12.9714 13.5932L12.9941 13.5764L13.0868 13.4914L13.1111 13.4747L13.2523 13.3912L13.2781 13.3957V13.3821L13.3859 13.3304L13.4801 13.2818L13.512 13.2803L13.5211 13.2667L13.5363 13.2712L13.5348 13.2621L13.5575 13.2667V13.2591L13.6061 13.253V13.2454L13.638 13.2515V13.2454L13.6547 13.2484V13.2408L13.6699 13.2439L13.676 13.2302L13.7018 13.2332L13.7079 13.2226L13.7322 13.2181V13.2105L13.7383 13.2135L13.7626 13.1953V13.1801L13.7853 13.1771L13.7945 13.1573L13.8172 13.1543L13.8415 13.13L13.8567 13.1315L13.9023 13.092H13.919L13.9281 13.0814L13.9433 13.0829L13.9585 13.0632L13.9752 13.0662V13.0601L13.9904 13.0632V13.0556L14.0131 13.0389L14.0921 13.0176L14.2181 12.931L14.25 12.9143V12.9007L14.2652 12.8946V12.8809L14.288 12.8703V12.8627L14.3017 12.8673V12.8581L14.3123 12.8612L14.3351 12.843L14.3427 12.8232L14.3563 12.8247L14.3685 12.8126L14.373 12.8141V12.7989L14.3837 12.8004L14.3958 12.7807L14.414 12.7853V12.7777L14.4277 12.7792V12.7731L14.452 12.7625L14.4535 12.7549H14.4596V12.7564V12.7731L14.493 12.7928V12.8065L14.5553 12.8551V12.8703L14.572 12.8718V12.887L14.5887 12.8916V12.9037L14.6039 12.9083L14.6054 12.9219L14.6206 12.9265L14.6585 12.9903L14.6752 12.9933L14.6935 13.0313L14.7102 13.0373V13.0495L14.7238 13.0525L14.78 13.1421L14.8939 13.2667V13.2818L14.9243 13.294V13.3077L14.9638 13.3304V13.3441L14.979 13.3471V13.3623L14.9957 13.3654L14.9972 13.3805L15.0367 13.4231L15.0534 13.4261V13.4413L15.0686 13.4443V13.458L15.0837 13.461L15.1399 13.5521L15.1566 13.5537V13.5704L15.1718 13.5719V13.5932L15.187 13.5977L15.3951 13.8316V13.8468L15.4118 13.8498L15.4361 13.8893L15.4512 13.8923L15.4528 13.909L15.468 13.9121L15.4922 13.9515L15.5074 13.9531V13.9698L15.5226 13.9713L15.5484 14.0275L15.5651 14.0305V14.0472L15.5803 14.0487L15.6046 14.1019L15.6198 14.1064V14.1277L15.635 14.1307L15.6441 14.1535L15.6517 14.155L15.6608 14.193L15.676 14.2036V14.2188L15.6927 14.2294V14.2507L15.7094 14.2598L15.717 14.3069L15.7337 14.3145V14.3464H15.7398L15.7489 14.3843L15.7656 14.3874L15.7747 14.4618L15.7823 14.4648V14.4785H15.7899V14.5225L15.8066 14.5332L15.8476 14.6729L15.8643 14.6744L15.8795 14.7367L15.8947 14.7382L15.9053 14.7913L15.9205 14.7944L15.9296 14.8688L15.9448 14.8733L15.9706 15.13H15.963L15.9661 15.2454L15.9569 15.2439V15.2955L15.9493 15.294V15.338L15.9357 15.3411L15.9296 15.3988L15.9129 15.3957L15.8749 15.5111L15.8567 15.5081L15.7975 15.6159L15.7808 15.619L15.7717 15.6174L15.7732 15.6387L15.7565 15.6372V15.6448L15.7261 15.6615L15.7018 15.6767L15.7049 15.6995L15.6471 15.7162V15.7298L15.6441 15.7283L15.6411 15.7313H15.6396L15.6259 15.7389H15.6198L15.6061 15.7496L15.591 15.748V15.7541L15.5743 15.7511V15.7587L15.5591 15.7556L15.5515 15.7693L15.5044 15.7754L15.4953 15.7875L15.4816 15.7845L15.474 15.7982L15.433 15.8209L15.4118 15.8194V15.8346L15.2705 15.8437V15.8574L15.1187 15.8452V15.8528L15.1035 15.8498V15.8559L15.0017 15.8392L14.7178 15.7556V15.7405L14.654 15.7238L14.6464 15.707L14.6282 15.704V15.6949L14.5887 15.6888V15.6797L14.5644 15.6767V15.6691L14.4869 15.6569L14.4793 15.6402L14.3913 15.6235L14.3837 15.6083L14.3275 15.5962V15.5901L14.2971 15.584V15.5764L14.2743 15.5719V15.5643L14.2318 15.5582L14.2242 15.5415L14.1847 15.5324V15.5203L14.1528 15.5127L14.1452 15.4975L14.0906 15.4808V15.4656L14.0572 15.4595V15.4443L14.0253 15.4322V15.4261L14.001 15.4185V15.4124L13.963 15.3912V15.376L13.9372 15.3714V15.3578L13.8112 15.2454L13.796 15.2439V15.2287L13.755 15.1846L13.7383 15.1831V15.1679L13.7246 15.1649V15.1512L13.5712 15.0282L13.5393 15.0055L13.5333 14.9918L13.5165 14.9872V14.9812L13.4998 14.9781V14.972L13.468 14.9447L13.3632 14.8733V14.8597L13.3495 14.8566V14.8399L13.3252 14.8369V14.8217L13.307 14.8187V14.805L13.2219 14.7093L13.2052 14.7063V14.6911L13.0519 14.5332V14.518L13.023 14.5119V14.4982L12.9972 14.4846V14.4785L12.982 14.4755L12.9729 14.4603L12.9501 14.4542L12.941 14.439L12.8863 14.4071V14.3919L12.8711 14.3889V14.3737L12.8301 14.3525V14.3388L12.815 14.3342L12.8134 14.319L12.7497 14.272V14.2568L12.7329 14.2553L12.695 14.19L12.6783 14.1854V14.1717L12.6631 14.1687L12.6449 14.1292L12.6297 14.1262V14.1125L12.6145 14.108V14.0882L12.5993 14.0761V14.0624L12.5917 14.0609L12.575 14.0214L12.5568 14.0184V13.9971L12.5416 13.9925L12.5173 13.9682L12.5097 13.9515V13.9455L12.4869 13.9394V13.9242L12.4216 13.8847V13.8711L12.3594 13.8285V13.8149L12.3457 13.8073H12.3503L12.3472 13.8042L12.5082 13.7891L12.5158 13.7784Z" fill="#5CA038"/>
</g>
<defs>
<clipPath id="clip0_2210_3402">
<rect width="22" height="13.6674" fill="white" transform="translate(1 5.1665)"/>
</clipPath>
</defs>
</svg>
