<svg width="24" height="24" viewBox="0 0 24 24" fill="none" xmlns="http://www.w3.org/2000/svg">
<g clip-path="url(#clip0_2210_3285)">
<path d="M12.0034 4.22803C5.37273 4.22803 1.00195 7.70778 1.00195 12.0027C1.00195 16.2975 5.36991 19.7745 12.0034 19.7745C18.6368 19.7745 23.002 16.2919 23.002 12.0027C23.002 7.7134 18.6312 4.22803 12.0034 4.22803Z" fill="white"/>
<path d="M13.9725 14.9061C15.8613 14.5773 22.239 13.2647 21.452 9.6275C21.1709 8.32049 19.8274 6.88418 17.798 5.88635C15.9621 5.09755 13.9804 4.70487 11.9825 4.73392C5.82966 4.73392 1.54883 7.98882 1.54883 12.0026C1.54883 14.7965 3.626 17.2222 6.96802 18.4365C7.6679 16.5701 10.4899 15.5077 13.9725 14.9061Z" fill="#007DC5"/>
<path d="M12.0042 16.1934C9.24123 16.5391 7.97638 17.4302 7.16406 18.5123C8.7109 19.0263 10.3321 19.2809 11.9621 19.2656C18.1177 19.2656 22.3985 16.0135 22.3985 12.0025C22.3985 11.6507 22.3655 11.2997 22.3001 10.9541C22.1062 15.665 15.0343 15.8168 12.0042 16.1934Z" fill="url(#paint0_linear_2210_3285)"/>
<path d="M6.03382 8.20801H3.9707L3.99319 8.26703C4.07518 8.58905 4.10274 8.92251 4.0747 9.25362C4.0747 9.33794 4.0747 14.032 4.0747 14.032H4.11405C4.11405 14.032 5.05567 14.0657 5.93825 14.0657C7.78213 14.0657 9.03011 12.8177 9.03011 10.957C9.01887 9.28173 7.84677 8.20801 6.03382 8.20801ZM4.95728 8.728C5.07534 8.728 5.44074 8.69146 5.70214 8.69146C7.27899 8.69146 8.0126 9.45599 8.0126 11.0947C8.0126 12.7811 7.3605 13.6244 6.01976 13.6244C5.03598 13.6244 4.95728 13.5766 4.95728 12.9948V8.728Z" fill="white"/>
<path d="M14.5584 13.9788C14.5275 13.6359 14.5134 13.4167 14.5134 13.2059V11.1681H13.5353L13.5662 11.2327C13.6442 11.431 13.6778 11.644 13.6646 11.8567C13.6646 11.8708 13.6646 13.2621 13.6308 13.6022C13.3816 13.6569 13.1271 13.6842 12.8719 13.6837C11.3148 13.6837 10.5249 12.7899 10.5249 11.0303C10.5249 9.68678 11.4131 8.68333 12.6864 8.59057C13.3014 8.52652 13.9174 8.70167 14.4066 9.07965L14.4769 9.14149V8.31792H14.4432C14.0014 8.22234 13.5515 8.1687 13.0996 8.15771C10.851 8.15771 9.52148 9.33543 9.52148 11.3114C9.52148 13.4139 11.1545 14.1644 12.6836 14.1644C13.2989 14.1663 13.9134 14.1212 14.5219 14.0294H14.5612L14.5584 13.9788Z" fill="white"/>
<path d="M18.0584 10.8277C18.3663 10.7534 18.6409 10.5794 18.8397 10.3329C19.0385 10.0863 19.1502 9.78103 19.1575 9.46443C19.1575 8.67741 18.4463 8.20801 17.2574 8.20801H15.4922V8.2586C15.537 8.51273 15.5549 8.77088 15.5456 9.02876V14.0685H15.5878C15.5878 14.0685 16.282 14.0544 17.1337 14.0544C18.6178 14.0544 19.4694 13.4108 19.4694 12.2865C19.4807 11.5922 18.9045 11.0104 18.0584 10.8277ZM16.4366 11.1087H16.892C17.9432 11.1087 18.4772 11.5219 18.4772 12.337C18.4772 13.1522 18.0191 13.6131 17.0718 13.6131C16.6165 13.6131 16.4366 13.4473 16.4366 13.0229V11.1087ZM16.4366 8.66054H17.0128C17.9207 8.66054 18.3086 8.94162 18.3086 9.57967C18.3086 10.3105 17.8336 10.6534 16.8104 10.6534H16.4338L16.4366 8.66054Z" fill="white"/>
</g>
<defs>
<linearGradient id="paint0_linear_2210_3285" x1="6.9139" y1="15.1084" x2="22.525" y2="15.1084" gradientUnits="userSpaceOnUse">
<stop offset="0.1" stop-color="#007DC5"/>
<stop offset="0.23" stop-color="#0083CB"/>
<stop offset="0.4" stop-color="#0095DA"/>
<stop offset="0.75" stop-color="#00B49D"/>
<stop offset="1" stop-color="#72BF44"/>
</linearGradient>
<clipPath id="clip0_2210_3285">
<rect width="22" height="15.5436" fill="white" transform="translate(1 4.22803)"/>
</clipPath>
</defs>
</svg>
