<svg width="24" height="24" viewBox="0 0 24 24" fill="none" xmlns="http://www.w3.org/2000/svg">
<g clip-path="url(#clip0_2210_3258)">
<path fill-rule="evenodd" clip-rule="evenodd" d="M9.20319 22.2522C8.71364 22.5839 8.14145 22.773 7.55061 22.7981C6.86249 22.7856 6.20448 22.5136 5.70834 22.0367C5.21221 21.5597 4.91457 20.9129 4.875 20.2258L7.64897 18.5781L11.9526 20.5061L9.20319 22.2522Z" fill="#72A3B6"/>
<path fill-rule="evenodd" clip-rule="evenodd" d="M10.8406 15.1603L8.78474 14.2553C7.865 13.852 6.99936 13.5028 6.99936 12.4945C6.98576 12.2981 7.01476 12.101 7.08437 11.9168C7.15398 11.7326 7.26255 11.5656 7.40267 11.4272L11.7456 13.3356L10.6783 13.9651C10.3783 14.1422 10.1865 14.3045 10.1865 14.5357C10.1865 14.7668 10.4668 14.9931 10.8554 15.1603H10.8406Z" fill="#96CE8E"/>
<path fill-rule="evenodd" clip-rule="evenodd" d="M12.8558 5.67245L10.7458 6.95615C10.5589 7.06927 10.3031 7.24634 10.3031 7.53161C10.3031 7.81688 10.7949 8.0923 11.2228 8.29888L8.59152 7.13813C7.81933 6.79384 7.0373 6.41021 7.0373 5.4708C7.03202 5.12034 7.13509 4.7768 7.33241 4.48712L13.0377 1.00488C13.4371 1.22443 13.7712 1.54575 14.0062 1.93621C14.2411 2.32666 14.3686 2.77236 14.3755 3.22801C14.379 3.73933 14.2383 4.24127 13.9694 4.67624C13.7006 5.11121 13.3146 5.4616 12.8558 5.68721V5.67245Z" fill="#72A3B6"/>
<path fill-rule="evenodd" clip-rule="evenodd" d="M17.3371 9.78434L16.8158 10.0844L12.4531 8.16127L17.5191 5.10693C17.9196 5.32772 18.2552 5.64963 18.4925 6.04056C18.7298 6.43148 18.8606 6.87778 18.8716 7.33497C18.8797 7.8491 18.7393 8.35465 18.467 8.79089C18.1948 9.22712 17.8025 9.57549 17.3371 9.79417V9.78434Z" fill="#96CE8E"/>
<path fill-rule="evenodd" clip-rule="evenodd" d="M13.6526 13.4927L16.2347 14.6239C17.2184 15.0567 17.4988 15.5682 17.4988 16.2076C17.4903 16.3969 17.4421 16.5823 17.3574 16.7517C17.2726 16.9212 17.1532 17.0709 17.0069 17.1913L12.6738 15.2633L13.4018 14.86C14.0215 14.5108 14.233 14.3091 14.233 14.0829C14.233 13.8566 14.0805 13.6943 13.6575 13.4976L13.6526 13.4927Z" fill="#72A3B6"/>
<path fill-rule="evenodd" clip-rule="evenodd" d="M18.2611 23.0002C17.1136 22.1729 15.872 21.4844 14.5625 20.9493L8.00134 18.0327C6.34875 17.2949 5.25195 16.3211 5.25195 14.6685C5.25195 13.0159 6.02906 12.288 7.03733 11.6486L7.40129 11.4272C7.26118 11.5656 7.1526 11.7326 7.08299 11.9168C7.01339 12.101 6.98438 12.2981 6.99798 12.4945C6.99798 13.5028 7.86362 13.852 8.78336 14.2553L16.4167 17.6195C17.7545 18.195 18.9645 19.1787 18.9645 20.8411C18.9809 21.6196 18.733 22.3808 18.2611 23.0002Z" fill="#4C9847"/>
<path fill-rule="evenodd" clip-rule="evenodd" d="M17.4745 16.8867L16.9826 17.1867C17.1289 17.0663 17.2483 16.9165 17.333 16.7471C17.4177 16.5776 17.4659 16.3923 17.4745 16.203C17.4745 15.5636 17.1744 15.0521 16.2104 14.6193L8.04587 11.0338C6.39329 10.2911 5.36535 9.35168 5.36535 7.70893C5.35995 7.04359 5.53852 6.3897 5.88136 5.81946C6.2242 5.24922 6.71795 4.78482 7.30811 4.47754C7.11079 4.76722 7.00773 5.11076 7.01301 5.46122C7.01301 6.40063 7.79503 6.78428 8.56722 7.12856L16.5006 10.6305C17.9515 11.2748 19.1221 12.2486 19.1221 13.9996C19.1389 14.5873 18.9912 15.168 18.6958 15.6764C18.4003 16.1847 17.9688 16.6005 17.4498 16.8768L17.4745 16.8867Z" fill="#296085"/>
</g>
<defs>
<clipPath id="clip0_2210_3258">
<rect width="14.283" height="22" fill="white" transform="translate(4.85938 1)"/>
</clipPath>
</defs>
</svg>
