<svg width="24" height="24" viewBox="0 0 24 24" fill="none" xmlns="http://www.w3.org/2000/svg">
<g clip-path="url(#clip0_2210_3351)">
<path d="M21.6697 9.83384H22.2366C22.2545 9.83384 22.2717 9.82672 22.2843 9.81406C22.297 9.8014 22.3041 9.78423 22.3041 9.76633V8.6976C22.3041 8.68879 22.3023 8.68007 22.2989 8.67195C22.2955 8.66383 22.2905 8.65647 22.2842 8.6503C22.278 8.64414 22.2705 8.63929 22.2623 8.63603C22.2541 8.63278 22.2454 8.63119 22.2366 8.63136H21.4405C20.5195 8.63136 20.0316 8.92561 19.7526 9.55105L18.0215 13.7916C17.9867 13.9084 17.9125 14.0096 17.8114 14.0779C17.7104 14.1462 17.5888 14.1773 17.4674 14.1661V8.6976C17.4674 8.68879 17.4657 8.68007 17.4623 8.67195C17.4589 8.66383 17.4539 8.65647 17.4476 8.6503C17.4413 8.64414 17.4338 8.63929 17.4257 8.63603C17.4175 8.63278 17.4087 8.63119 17.3999 8.63136H16.1261C16.1173 8.63119 16.1085 8.63278 16.1004 8.63603C16.0922 8.63929 16.0847 8.64414 16.0784 8.6503C16.0722 8.65647 16.0672 8.66383 16.0638 8.67195C16.0603 8.68007 16.0586 8.68879 16.0586 8.6976V15.2514C16.0589 15.2826 16.0716 15.3124 16.0937 15.3343C16.1159 15.3562 16.1459 15.3685 16.1771 15.3685H17.605C18.5247 15.3685 18.9463 15.0743 19.224 14.4489L20.9335 10.2606C21.071 9.96377 21.2685 9.83384 21.6697 9.83384Z" fill="#D71920"/>
<path d="M6.11946 12.0006C6.62899 11.7879 7.05189 11.3102 7.05189 10.5204C7.05189 9.34468 6.04303 8.63135 4.82654 8.63135H1.06625C1.04868 8.63135 1.03184 8.63833 1.01941 8.65075C1.00699 8.66317 1.00001 8.68002 1.00001 8.69758V9.76631C0.999843 9.77512 1.00143 9.78387 1.00468 9.79205C1.00794 9.80024 1.01279 9.80769 1.01896 9.81398C1.02513 9.82026 1.03248 9.82526 1.04061 9.82866C1.04873 9.83207 1.05744 9.83383 1.06625 9.83383H4.56668C5.13098 9.83383 5.51313 10.179 5.51313 10.5981C5.51313 11.0172 5.13098 11.3688 4.56668 11.3688H2.48655V10.5777C2.48672 10.5688 2.4851 10.56 2.48176 10.5517C2.47843 10.5434 2.47347 10.5359 2.46716 10.5296C2.46086 10.5233 2.45335 10.5183 2.44508 10.515C2.43681 10.5117 2.42795 10.51 2.41904 10.5102H1.06625C1.05744 10.5102 1.04873 10.512 1.04061 10.5154C1.03248 10.5188 1.02513 10.5238 1.01896 10.5301C1.01279 10.5364 1.00794 10.5438 1.00468 10.552C1.00143 10.5602 0.999843 10.5689 1.00001 10.5777V15.2998C1.00001 15.3173 1.00699 15.3342 1.01941 15.3466C1.03184 15.359 1.04868 15.366 1.06625 15.366H4.77304C6.15895 15.366 7.15125 14.7202 7.15125 13.4018C7.15408 13.088 7.05504 12.7818 6.86898 12.5291C6.68293 12.2765 6.41992 12.091 6.11946 12.0006ZM4.63929 14.1954H2.48655V12.6158H4.63929C5.2176 12.6158 5.60994 12.97 5.60994 13.4056C5.60994 13.8412 5.2176 14.1954 4.63929 14.1954Z" fill="#D71920"/>
<path d="M22.9878 15.291L20.8057 12.5014C20.8048 12.4998 20.8035 12.4984 20.802 12.4975C20.8004 12.4966 20.7986 12.4961 20.7968 12.4961C20.795 12.4961 20.7932 12.4966 20.7916 12.4975C20.7901 12.4984 20.7888 12.4998 20.7879 12.5014L20.2007 13.9382C20.1984 13.9423 20.1973 13.9469 20.1973 13.9516C20.1973 13.9563 20.1984 13.9609 20.2007 13.965L21.1547 15.2388C21.1823 15.2805 21.2204 15.3142 21.2651 15.3365C21.3098 15.3589 21.3596 15.3691 21.4095 15.3662H22.9457C22.955 15.3676 22.9645 15.3662 22.973 15.3621C22.9814 15.358 22.9884 15.3515 22.993 15.3433C22.9976 15.3351 22.9995 15.3257 22.9986 15.3163C22.9977 15.307 22.9939 15.2981 22.9878 15.291Z" fill="#D71920"/>
<path d="M9.54054 10.5127H8.26673C8.24883 10.5127 8.23165 10.5198 8.21899 10.5325C8.20633 10.5451 8.19922 10.5623 8.19922 10.5802V15.3022C8.19922 15.311 8.20097 15.3198 8.20438 15.3279C8.20779 15.336 8.21278 15.3434 8.21907 15.3495C8.22535 15.3557 8.23281 15.3605 8.24099 15.3638C8.24917 15.367 8.25793 15.3686 8.26673 15.3685H9.54054C9.55823 15.3685 9.57521 15.3615 9.58783 15.3491C9.60046 15.3368 9.60772 15.3199 9.60805 15.3022V10.5777C9.60739 10.5602 9.59999 10.5437 9.5874 10.5316C9.57481 10.5194 9.55801 10.5127 9.54054 10.5127Z" fill="#D71920"/>
<path d="M14.781 8.63136H13.5072C13.4985 8.63136 13.4899 8.63307 13.4818 8.6364C13.4738 8.63973 13.4665 8.64461 13.4604 8.65076C13.4542 8.65691 13.4493 8.66421 13.446 8.67225C13.4427 8.68029 13.441 8.6889 13.441 8.6976V14.1661C13.3195 14.1773 13.198 14.1462 13.0969 14.0779C12.9959 14.0096 12.9217 13.9084 12.8868 13.7916L11.1532 9.55105C10.8755 8.92561 10.3889 8.63136 9.46666 8.63136H8.26673C8.25793 8.63119 8.24917 8.63278 8.24099 8.63603C8.23281 8.63929 8.22535 8.64414 8.21907 8.6503C8.21278 8.65647 8.20779 8.66383 8.20438 8.67195C8.20097 8.68007 8.19922 8.68879 8.19922 8.6976V9.76633C8.19922 9.78423 8.20633 9.8014 8.21899 9.81406C8.23165 9.82672 8.24883 9.83384 8.26673 9.83384H9.2361C9.63863 9.83384 9.83479 9.96122 9.97236 10.2606L11.6818 14.4489C11.9608 15.0743 12.3811 15.3685 13.3021 15.3685H14.7288C14.76 15.3685 14.7899 15.3562 14.8121 15.3343C14.8343 15.3124 14.8469 15.2826 14.8472 15.2514V8.6976C14.8472 8.68003 14.8403 8.66318 14.8278 8.65076C14.8154 8.63834 14.7986 8.63136 14.781 8.63136Z" fill="#D71920"/>
</g>
<defs>
<clipPath id="clip0_2210_3351">
<rect width="22" height="6.73719" fill="white" transform="translate(1 8.63135)"/>
</clipPath>
</defs>
</svg>
