<svg width="24" height="24" viewBox="0 0 24 24" fill="none" xmlns="http://www.w3.org/2000/svg">
<path d="M13.5156 2.41504C18.2762 2.46623 22.3712 6.04943 22.9343 10.8868C23.5486 16.1592 19.7862 20.9197 14.4882 21.5084C14.1299 21.5596 13.746 21.5852 13.3876 21.5852H13.2853C9.95801 21.534 6.98907 19.5888 5.42782 16.6199L1 19.1793C1 14.5979 2.97076 7.0732 8.44794 3.79713C8.47354 3.79713 8.49913 3.77153 8.52473 3.77153C8.55032 3.74594 8.57592 3.74594 8.60151 3.72035C9.70206 3.08049 10.9562 2.64538 12.3127 2.49182C12.671 2.44063 13.0549 2.41504 13.4132 2.41504H13.5156Z" fill="#0064FF"/>
</svg>
