<svg width="24" height="24" viewBox="0 0 24 24" fill="none" xmlns="http://www.w3.org/2000/svg">
<g clip-path="url(#clip0_2210_3165)">
<path d="M15.8984 2.11963L12.001 4.07974L8.10352 2.11963L12.001 9.52704L15.8984 2.11963Z" fill="#FFB71B"/>
<path d="M17.289 7.81946L20.0697 6.65705V2.73682L15.2378 4.8109L12.5482 9.87073C13.5829 9.99001 14.5328 10.5005 15.2032 11.2975C15.8736 12.0946 16.2138 13.1179 16.1541 14.1577C16.0943 15.1975 15.6392 16.1751 14.8819 16.8901C14.1246 17.6051 13.1226 18.0035 12.081 18.0035C11.0395 18.0035 10.0375 17.6051 9.28017 16.8901C8.52288 16.1751 8.06773 15.1975 8.00799 14.1577C7.94825 13.1179 8.2884 12.0946 8.95882 11.2975C9.62923 10.5005 10.5791 9.99001 11.6138 9.87073L8.92432 4.8109L4.11523 2.73682V6.65705L6.94142 7.81946C5.71569 8.89087 4.84604 10.3107 4.44855 11.8894C4.05105 13.4682 4.14461 15.1305 4.71682 16.6546C5.28904 18.1787 6.31263 19.492 7.65089 20.4191C8.98915 21.3461 10.5784 21.8428 12.2064 21.8428C13.8344 21.8428 15.4236 21.3461 16.7619 20.4191C18.1001 19.492 19.1237 18.1787 19.6959 16.6546C20.2681 15.1305 20.3618 13.4682 19.9643 11.8894C19.5668 10.3107 18.6971 8.89087 17.4713 7.81946H17.289Z" fill="#FFB71B"/>
</g>
<defs>
<clipPath id="clip0_2210_3165">
<rect width="16" height="19.7607" fill="white" transform="translate(4 2.11963)"/>
</clipPath>
</defs>
</svg>
