<svg width="24" height="24" viewBox="0 0 24 24" fill="none" xmlns="http://www.w3.org/2000/svg">
<g clip-path="url(#clip0_2210_3251)">
<path d="M22.8719 8.99611C23.0794 8.36952 23.0297 7.68618 22.7336 7.09624C22.4376 6.5063 21.9194 6.05803 21.293 5.84994L8.25552 1.47316C7.9452 1.36784 7.61701 1.32541 7.29011 1.34833C6.96321 1.37125 6.64415 1.45908 6.35156 1.60667" fill="white"/>
<path d="M6.35294 1.60645C5.76256 1.9019 5.31365 2.4197 5.10492 3.04602L1.12866 14.998C0.922744 15.6246 0.973223 16.3073 1.26907 16.8968C1.56492 17.4863 2.08208 17.9348 2.70756 18.1442L15.7508 22.521C16.0614 22.625 16.3894 22.6668 16.7161 22.6438C17.0428 22.6209 17.3618 22.5338 17.6548 22.3874C17.9472 22.2421 18.2076 22.04 18.4209 21.7928C18.6342 21.5456 18.7961 21.2584 18.897 20.9479L22.8791 8.99589" fill="white"/>
<path d="M12.7323 13.0882C12.0146 13.8925 11.1178 14.5168 10.1144 14.9109L9.53393 15.1372V9.59951L10.1144 9.8259C11.1191 10.2178 12.0178 10.8402 12.7381 11.6428C13.194 10.8969 13.4815 10.0605 13.5804 9.19199C13.6794 8.32347 13.5874 7.44382 13.311 6.61454C13.0346 5.78526 12.5804 5.02637 11.9801 4.39092C11.3798 3.75548 10.648 3.25881 9.83577 2.93566L7.93182 2.28553C7.7302 2.21937 7.51752 2.19361 7.30593 2.20975C7.09435 2.22589 6.88803 2.2836 6.69878 2.37957C6.50953 2.47555 6.34107 2.6079 6.20303 2.76906C6.065 2.93023 5.9601 3.11703 5.89435 3.31878L1.90649 15.2824C1.77629 15.6942 1.81353 16.1408 2.01018 16.5254C2.20682 16.91 2.54703 17.2016 2.95715 17.3372L12.0067 20.3557C12.9093 19.392 13.4685 18.1572 13.5976 16.8432C13.7267 15.5291 13.4185 14.2091 12.7207 13.0882H12.7323ZM7.49646 9.26864V15.4797H6.59672V9.28606L7.49646 9.26864Z" fill="#2293C8"/>
<path d="M12.2094 12.3628C11.6997 11.7675 11.0811 11.275 10.3867 10.9116V13.814C11.084 13.4477 11.7032 12.9488 12.2094 12.3454" fill="#E43D30"/>
<path d="M21.0097 6.64479L12.7031 3.87012C13.7465 5.01112 14.3721 6.4723 14.4775 8.01485C14.5829 9.5574 14.162 11.0901 13.2836 12.3625C14.1372 13.5968 14.561 15.0777 14.4896 16.5767C14.4183 18.0758 13.8558 19.5097 12.8889 20.6574L16.0118 21.6965C16.2134 21.7635 16.4263 21.7898 16.6381 21.7741C16.8499 21.7583 17.0565 21.7007 17.246 21.6046C17.4354 21.5086 17.6039 21.3759 17.7418 21.2143C17.8797 21.0528 17.9842 20.8655 18.0493 20.6633L22.0546 8.70547C22.1866 8.29439 22.1509 7.84779 21.9552 7.46292C21.7595 7.07805 21.4197 6.78608 21.0097 6.6506V6.64479ZM18.8097 15.468H17.6836L15.3617 12.3625L17.6836 9.26273H18.8446L16.5227 12.3741L18.8097 15.468Z" fill="#215C9C"/>
</g>
<defs>
<clipPath id="clip0_2210_3251">
<rect width="22" height="21.3092" fill="white" transform="translate(1 1.34521)"/>
</clipPath>
</defs>
</svg>
