<svg width="24" height="24" viewBox="0 0 24 24" fill="none" xmlns="http://www.w3.org/2000/svg">
<g clip-path="url(#clip0_2210_3358)">
<path d="M1 12.1209C1 7.78639 5.9237 4.27686 12 4.27686C18.0763 4.27686 23 7.78639 23 12.1209C23 16.4553 18.0763 19.7234 12 19.7234C5.9237 19.7234 1 16.4496 1 12.1209ZM8.40423 16.5128C10.4967 17.6625 13.7734 17.263 13.7734 17.263C14.7766 17.263 14.0609 16.6709 14.0609 16.6709C13.9253 16.5945 13.8091 16.4878 13.7216 16.3591C13.6341 16.2304 13.5776 16.0831 13.5564 15.9289C13.5352 15.7747 13.5501 15.6177 13.5997 15.4702C13.6493 15.3227 13.7324 15.1886 13.8424 15.0785C14.3442 14.5271 15.0123 14.1546 15.7452 14.0179C17.8377 13.3597 20.2435 13.673 20.2435 13.673C20.9909 13.7966 20.3671 13.1441 20.3671 13.1441C19.8986 12.7676 20.1803 11.9541 20.1803 11.9541C20.8414 11.1721 21.7757 10.6715 22.793 10.5544L22.7212 10.3244L22.6637 10.1606C22.0582 9.98763 21.4335 9.89107 20.804 9.87315C17.1824 9.49948 15.3716 10.5285 15.3716 10.5285C12.4685 11.9973 15.3716 13.3856 15.3716 13.3856C13.7597 13.0993 12.1087 13.1149 10.5025 13.4315C9.68686 13.5413 8.90717 13.8362 8.22315 14.2938C6.49281 15.4809 8.40423 16.5128 8.40423 16.5128ZM1.00862 12.3853L1.06898 12.4859C2.46015 14.6732 7.39247 14.0179 7.39247 14.0179C8.08231 13.9231 7.54769 13.581 7.54769 13.581C6.17664 12.3307 7.92422 11.3937 7.92422 11.3937C10.3415 9.97374 13.5895 10.4739 13.5895 10.4739C14.3397 10.4882 13.9028 10.1606 13.9028 10.1606C13.7455 10.0084 13.6349 9.81455 13.584 9.60173C13.5331 9.3889 13.544 9.16597 13.6154 8.95911C14.1126 7.77202 16.1735 7.38112 16.1735 7.38112C16.7484 7.1483 16.1735 6.92985 16.1735 6.92985C11.1779 5.89797 8.70029 7.33513 8.70029 7.33513C5.71962 8.88151 8.87275 10.1922 8.87275 10.1922C7.68619 9.99266 6.48184 9.91943 5.27985 9.97374C1.41103 10.2842 1.023 11.7673 1.023 11.7673C1.023 11.7673 1.00575 11.9541 1.00575 12.1209L1.00862 12.3853ZM9.90175 15.366C10.0356 15.3665 10.1666 15.3273 10.2781 15.2533C10.3896 15.1793 10.4766 15.0739 10.5281 14.9503C10.5796 14.8268 10.5932 14.6907 10.5672 14.5594C10.5413 14.4281 10.4769 14.3075 10.3822 14.2129C10.2876 14.1182 10.167 14.0539 10.0357 14.0279C9.9044 14.0019 9.76835 14.0155 9.64481 14.067C9.52126 14.1185 9.4158 14.2055 9.3418 14.317C9.26779 14.4285 9.22859 14.5595 9.22916 14.6934C9.22915 14.8708 9.29922 15.041 9.42412 15.1669C9.54901 15.2929 9.71862 15.3644 9.896 15.366H9.90175ZM3.33107 12.2042C3.46479 12.2042 3.59549 12.1645 3.70663 12.0902C3.81777 12.0158 3.90435 11.9102 3.95539 11.7866C4.00643 11.663 4.01963 11.527 3.99333 11.3959C3.96704 11.2648 3.90242 11.1445 3.80767 11.0501C3.71291 10.9558 3.59229 10.8917 3.46107 10.8659C3.32986 10.8402 3.19395 10.854 3.07058 10.9055C2.94721 10.9571 2.84191 11.0441 2.76804 11.1556C2.69416 11.267 2.65503 11.3979 2.6556 11.5316C2.65369 11.6209 2.66959 11.7097 2.70235 11.7928C2.73512 11.8758 2.7841 11.9516 2.84644 12.0155C2.90878 12.0795 2.98323 12.1303 3.06545 12.1652C3.14767 12.2001 3.23601 12.2182 3.32532 12.2186L3.33107 12.2042ZM9.79253 8.83839C9.92612 8.83839 10.0567 8.79878 10.1678 8.72456C10.2789 8.65033 10.3654 8.54484 10.4166 8.42141C10.4677 8.29799 10.4811 8.16218 10.455 8.03115C10.4289 7.90012 10.3646 7.77977 10.2702 7.6853C10.1757 7.59084 10.0553 7.5265 9.9243 7.50044C9.79328 7.47438 9.65746 7.48775 9.53404 7.53888C9.41061 7.59 9.30512 7.67658 9.2309 7.78766C9.15668 7.89874 9.11706 8.02933 9.11706 8.16292C9.11515 8.25235 9.13103 8.34126 9.16376 8.4245C9.19649 8.50774 9.24543 8.58365 9.30773 8.64782C9.37003 8.712 9.44446 8.76316 9.5267 8.79834C9.60893 8.83352 9.69734 8.85202 9.78678 8.85276L9.79253 8.83839ZM16.3747 12.0318C16.5076 12.0312 16.6374 11.9913 16.7476 11.917C16.8578 11.8428 16.9436 11.7375 16.994 11.6146C17.0445 11.4916 17.0574 11.3565 17.0311 11.2262C17.0049 11.0959 16.9406 10.9763 16.8464 10.8826C16.7522 10.7888 16.6324 10.725 16.502 10.6993C16.3716 10.6736 16.2365 10.6871 16.1138 10.738C15.991 10.789 15.8862 10.8753 15.8124 10.9858C15.7386 11.0963 15.6992 11.2263 15.6992 11.3592C15.6989 11.4478 15.7161 11.5357 15.7499 11.6177C15.7838 11.6996 15.8336 11.7741 15.8964 11.8366C15.9592 11.8992 16.0339 11.9487 16.116 11.9822C16.1981 12.0157 16.286 12.0325 16.3747 12.0318Z" fill="#076CAF"/>
</g>
<defs>
<clipPath id="clip0_2210_3358">
<rect width="22" height="15.4466" fill="white" transform="translate(1 4.27686)"/>
</clipPath>
</defs>
</svg>
