<svg width="24" height="24" viewBox="0 0 24 24" fill="none" xmlns="http://www.w3.org/2000/svg">
<g clip-path="url(#clip0_2210_3176)">
<path d="M22.8406 11.9973C22.8416 14.1507 22.2039 16.2559 21.0082 18.0467C19.8125 19.8375 18.1126 21.2335 16.1234 22.058C14.1341 22.8825 11.9451 23.0984 9.83312 22.6786C7.72114 22.2587 5.78112 21.2219 4.2585 19.6993C2.73589 18.1767 1.69908 16.2367 1.27923 14.1247C0.859382 12.0127 1.07537 9.82368 1.89986 7.83447C2.72435 5.84526 4.12029 4.14528 5.91111 2.94958C7.70193 1.75389 9.80716 1.1162 11.9605 1.11719C14.8457 1.11851 17.6123 2.26524 19.6524 4.30538C21.6926 6.34552 22.8393 9.11216 22.8406 11.9973Z" fill="white"/>
<path d="M11.9596 22.3631C14.0098 22.3631 16.0139 21.7551 17.7186 20.6161C19.4232 19.4771 20.7519 17.8582 21.5364 15.9641C22.321 14.0699 22.5263 11.9857 22.1263 9.97493C21.7263 7.96415 20.7391 6.11714 19.2894 4.66744C17.8397 3.21775 15.9927 2.2305 13.9819 1.83053C11.9711 1.43056 9.88688 1.63584 7.99277 2.42041C6.09866 3.20498 4.47974 4.5336 3.34073 6.23825C2.20171 7.94291 1.59375 9.94704 1.59375 11.9972C1.59375 14.7464 2.68587 17.383 4.62985 19.327C6.57382 21.271 9.21042 22.3631 11.9596 22.3631Z" fill="#0083CA"/>
<mask id="mask0_2210_3176" style="mask-type:alpha" maskUnits="userSpaceOnUse" x="1" y="1" width="22" height="22">
<path d="M11.9596 22.3631C14.0098 22.3631 16.0139 21.7551 17.7186 20.6161C19.4232 19.4771 20.7519 17.8582 21.5364 15.9641C22.321 14.0699 22.5263 11.9857 22.1263 9.97493C21.7263 7.96415 20.7391 6.11714 19.2894 4.66744C17.8397 3.21775 15.9927 2.2305 13.9819 1.83053C11.9711 1.43056 9.88688 1.63584 7.99277 2.42041C6.09866 3.20498 4.47974 4.5336 3.34073 6.23825C2.20171 7.94291 1.59375 9.94704 1.59375 11.9972C1.59375 14.7464 2.68587 17.383 4.62985 19.327C6.57382 21.271 9.21042 22.3631 11.9596 22.3631Z" fill="#0083CA"/>
</mask>
<g mask="url(#mask0_2210_3176)">
<path d="M11.995 17.0054C16.5488 17.0054 20.4535 18.2737 22.1262 20.0712C22.7047 18.7487 23.0023 17.3205 23 15.877C23 12.9596 21.8411 10.1617 19.7782 8.09878C17.7153 6.03588 14.9174 4.87695 12 4.87695C9.08264 4.87695 6.28474 6.03588 4.22184 8.09878C2.15894 10.1617 1.00001 12.9596 1.00001 15.877C0.997934 17.3199 1.29372 18.7478 1.86884 20.0712C3.53656 18.2737 7.43624 17.0054 11.995 17.0054Z" fill="#0083CA"/>
<path d="M11.995 17.0159C16.5388 17.0159 20.4335 18.2742 22.1012 20.0618C22.6758 18.7487 22.9716 17.3307 22.9701 15.8974C22.9701 10.0005 18.0518 5.20703 11.985 5.20703C5.9183 5.20703 1.00001 10.0005 1.00001 15.8974C0.998029 17.3308 1.2939 18.7488 1.86884 20.0618C3.55653 18.2742 7.43624 17.0159 11.995 17.0159Z" fill="#0085CB"/>
<path d="M11.9959 17.0254C16.5247 17.0254 20.4094 18.2787 22.0721 20.0463C22.646 18.7453 22.9419 17.3388 22.9409 15.9169C22.9409 10.0649 18.0326 5.29639 11.9959 5.29639C5.95911 5.29639 1.05079 10.0699 1.05079 15.9169C1.04869 17.3389 1.34467 18.7456 1.91962 20.0463C3.57736 18.2787 7.46206 17.0254 11.9959 17.0254Z" fill="#0086CC"/>
<path d="M11.9891 17.0403C16.508 17.0403 20.3877 18.2786 22.0454 20.0362C22.6166 18.7537 22.9125 17.3657 22.9142 15.9617C22.9142 10.1597 18.0209 5.41113 11.9941 5.41113C5.96735 5.41113 1.08401 10.1597 1.08401 15.9617C1.08077 17.3721 1.37513 18.7673 1.94784 20.0562C3.59559 18.2786 7.4703 17.0403 11.9891 17.0403Z" fill="#0088CC"/>
<path d="M11.9906 17.0503C16.4845 17.0503 20.3642 18.2786 22.017 20.0212C22.5886 18.7444 22.883 17.3608 22.8808 15.9618C22.8808 10.2046 18.0024 5.47607 11.9906 5.47607C5.97883 5.47607 1.10548 10.1996 1.10548 15.9618C1.10349 17.3602 1.39612 18.7434 1.96431 20.0212C3.61705 18.2786 7.48178 17.0503 11.9906 17.0503Z" fill="#0089CD"/>
<path d="M11.9893 17.0601C16.4832 17.0601 20.3379 18.2785 21.9757 20.0061C22.5432 18.7404 22.836 17.3687 22.8345 15.9816C22.8345 10.2694 17.9662 5.5708 11.9743 5.5708C5.98251 5.5708 1.11914 10.2744 1.11914 15.9816C1.11795 17.3682 1.40888 18.7395 1.97298 20.0061C3.63571 18.2785 7.49544 17.0601 11.9893 17.0601Z" fill="#008BCE"/>
<path d="M11.9891 17.0755C16.483 17.0755 20.3177 18.2788 21.9755 19.9965C22.5423 18.7411 22.8351 17.3793 22.8343 16.0019C22.8343 10.3396 17.9809 5.66602 12.0041 5.66602C6.02721 5.66602 1.17383 10.3396 1.17383 16.0019C1.17325 17.3788 1.46426 18.7402 2.02768 19.9965C3.65546 18.2788 7.5052 17.0755 11.9891 17.0755Z" fill="#008DCF"/>
<path d="M11.9858 17.0854C16.4797 17.0854 20.2945 18.2838 21.9373 19.9815C22.5002 18.7373 22.7913 17.3874 22.7911 16.0219C22.7911 10.4095 17.9527 5.75586 11.9858 5.75586C6.01894 5.75586 1.18555 10.4095 1.18555 16.0219C1.1849 17.3875 1.476 18.7375 2.03938 19.9815C3.67715 18.2838 7.5169 17.0854 11.9858 17.0854Z" fill="#008ED0"/>
<path d="M11.9852 17.0953C16.4441 17.0953 20.2739 18.2836 21.9066 19.9663C22.4723 18.7354 22.7636 17.3963 22.7605 16.0417C22.7605 10.4743 17.9321 5.85059 11.9852 5.85059C6.03827 5.85059 1.21486 10.4793 1.21486 16.0417C1.21206 17.3958 1.50159 18.7345 2.0637 19.9663C3.69647 18.2836 7.52624 17.0953 11.9852 17.0953Z" fill="#0090D0"/>
<path d="M11.9856 17.1102C16.4295 17.1102 20.2493 18.2836 21.8821 19.9563C22.4431 18.7347 22.7327 17.4059 22.7309 16.0616C22.7309 10.5691 17.9175 5.94043 11.9856 5.94043C6.05366 5.94043 1.24023 10.5442 1.24023 16.0616C1.24033 17.4057 1.52984 18.7341 2.08908 19.9563C3.72186 18.2836 7.53664 17.1102 11.9856 17.1102Z" fill="#0092D1"/>
<path d="M11.986 17.1202C16.4199 17.1202 20.2248 18.2836 21.8575 19.9413C22.4156 18.731 22.7052 17.4143 22.7064 16.0816C22.7064 10.5891 17.9029 6.03027 11.986 6.03027C6.06906 6.03027 1.26562 10.614 1.26562 16.0816C1.26571 17.4144 1.55533 18.7314 2.11446 19.9413C3.74224 18.2836 7.54704 17.1202 11.986 17.1202Z" fill="#0093D2"/>
<path d="M11.9804 17.1302C16.4043 17.1302 20.2041 18.2886 21.8269 19.9264C22.3854 18.7286 22.6751 17.4232 22.6758 16.1016C22.6758 10.679 17.8823 6.11523 11.9804 6.11523C6.0784 6.11523 1.29493 10.674 1.29493 16.1016C1.2934 17.4229 1.58144 18.7284 2.13878 19.9264C3.76157 18.2886 7.55639 17.1302 11.9804 17.1302Z" fill="#0095D3"/>
<path d="M11.9808 17.1454C16.3898 17.1454 20.1796 18.2889 21.8024 19.9166C22.3587 18.7289 22.6468 17.4334 22.6462 16.1218C22.6462 10.7492 17.8678 6.21533 11.9808 6.21533C6.09381 6.21533 1.32032 10.7492 1.32032 16.1218C1.31879 17.4335 1.60693 18.7293 2.16417 19.9166C3.78196 18.2889 7.5668 17.1454 11.9808 17.1454Z" fill="#0097D4"/>
<path d="M11.9793 17.1553C16.3783 17.1553 20.1581 18.2887 21.7709 19.9015C22.3265 18.7277 22.6147 17.4453 22.6147 16.1466C22.6147 10.8189 17.8512 6.31006 11.9793 6.31006C6.10726 6.31006 1.34375 10.8039 1.34375 16.1466C1.34332 17.4453 1.63155 18.7279 2.1876 19.9015C3.8004 18.2887 7.57526 17.1553 11.9793 17.1553Z" fill="#0098D5"/>
<path d="M11.9755 17.1652C16.3646 17.1652 20.1344 18.2887 21.7472 19.8865C22.2987 18.7239 22.5852 17.4534 22.5861 16.1666C22.5861 10.8838 17.8326 6.3999 11.9755 6.3999C6.11854 6.3999 1.375 10.8938 1.375 16.1666C1.37469 17.4535 1.66127 18.7243 2.21387 19.8865C3.82168 18.2887 7.58653 17.1652 11.9755 17.1652Z" fill="#009AD5"/>
<path d="M11.976 17.1751C16.35 17.1751 20.1099 18.2935 21.7177 19.8764C22.2685 18.7242 22.5551 17.4635 22.5565 16.1864C22.5565 10.9536 17.818 6.49463 11.976 6.49463C6.13393 6.49463 1.40039 10.9536 1.40039 16.1864C1.40067 17.4636 1.68731 18.7246 2.23924 19.8764C3.84206 18.2935 7.59694 17.1751 11.976 17.1751Z" fill="#009CD6"/>
<path d="M11.976 17.19C16.34 17.19 20.0899 18.2935 21.6927 19.8614C22.2396 18.7204 22.5245 17.4716 22.5266 16.2064C22.5266 11.0234 17.798 6.58447 11.976 6.58447C6.15389 6.58447 1.44531 11.0234 1.44531 16.2064C1.44622 17.4723 1.73297 18.7217 2.28416 19.8614C3.86201 18.2935 7.60691 17.19 11.976 17.19Z" fill="#009ED7"/>
<path d="M11.976 17.2C16.325 17.2 20.0649 18.2935 21.6627 19.8464C22.2117 18.7185 22.4968 17.4806 22.4966 16.2263C22.4966 11.0883 17.783 6.67432 11.976 6.67432C6.16888 6.67432 1.44532 11.0883 1.44532 16.2263C1.44388 17.4807 1.7291 18.7189 2.27919 19.8464C3.882 18.2935 7.6169 17.2 11.976 17.2Z" fill="#00A0D8"/>
<path d="M11.9698 17.21C16.3089 17.21 20.0438 18.2935 21.6367 19.8364C22.1816 18.7181 22.465 17.4904 22.4655 16.2463C22.4655 11.1583 17.7669 6.75928 11.9798 6.75928C6.19273 6.75928 1.49414 11.1483 1.49414 16.2463C1.49412 17.4905 1.77759 18.7182 2.32301 19.8364C3.90086 18.2935 7.62577 17.21 11.9698 17.21Z" fill="#00A1D9"/>
<path d="M11.9705 17.2252C16.2996 17.2252 20.0195 18.2988 21.6074 19.8217C22.1521 18.7157 22.4357 17.4994 22.4362 16.2665C22.4362 11.2284 17.7476 6.85938 11.9505 6.85938C6.15345 6.85938 1.46484 11.2284 1.46484 16.2665C1.46716 17.4992 1.75064 18.7151 2.29372 19.8217C3.94147 18.2988 7.64141 17.2252 11.9705 17.2252Z" fill="#00A3DA"/>
<path d="M11.9709 17.235C16.285 17.235 19.995 18.2986 21.5828 19.8065C22.122 18.7199 22.4055 17.5243 22.4117 16.3113C22.4117 11.3181 17.7331 6.979 11.9709 6.979C6.20878 6.979 1.53516 11.3181 1.53516 16.3113C1.53958 17.5239 1.82139 18.7195 2.35903 19.8065C3.94187 18.2986 7.65181 17.235 11.9709 17.235Z" fill="#00A5DB"/>
<path d="M11.9694 17.2451C16.2685 17.2451 19.9585 18.2987 21.5513 19.7967C22.096 18.712 22.3798 17.5151 22.3802 16.3014C22.3802 11.3582 17.7165 7.03906 11.9694 7.03906C6.22222 7.03906 1.55859 11.3582 1.55859 16.3014C1.55853 17.5146 1.84058 18.7112 2.38247 19.7967C3.94034 18.2987 7.66026 17.2451 11.9694 17.2451Z" fill="#00A7DC"/>
<path d="M11.9657 17.2599C16.2598 17.2599 19.9548 18.2984 21.5277 19.7814C22.0674 18.7113 22.3496 17.5297 22.3515 16.3311C22.3515 11.4328 17.6979 7.13867 11.9657 7.13867C6.23351 7.13867 1.58984 11.4328 1.58984 16.3311C1.59008 17.5293 1.8705 18.7109 2.40872 19.7814C3.98157 18.2984 7.67155 17.2599 11.9657 17.2599Z" fill="#00A9DD"/>
<path d="M11.9642 17.2698C16.2433 17.2698 19.9283 18.3034 21.4962 19.7664C22.0359 18.7087 22.3182 17.5385 22.32 16.3511C22.32 11.4977 17.6814 7.22852 11.9642 7.22852C6.24697 7.22852 1.61328 11.4977 1.61328 16.3511C1.61527 17.5379 1.89576 18.7077 2.43217 19.7664C4.00003 18.3034 7.68001 17.2698 11.9642 17.2698Z" fill="#00ABDE"/>
<path d="M11.965 17.2802C16.2342 17.2802 19.9042 18.3038 21.4521 19.7768C21.9873 18.7284 22.2678 17.5685 22.271 16.3914C22.271 11.588 17.6473 7.34375 11.9451 7.34375C6.24283 7.34375 1.61914 11.588 1.61914 16.3914C1.62695 17.5622 1.90912 18.7148 2.44301 19.7568C4.02586 18.3038 7.69086 17.2802 11.965 17.2802Z" fill="#00ADDE"/>
<path d="M11.9598 17.2898C16.219 17.2898 19.879 18.2885 21.4469 19.7415C21.9841 18.7063 22.2649 17.5573 22.2658 16.3911C22.2658 11.6375 17.652 7.40332 11.9648 7.40332C6.27756 7.40332 1.67383 11.6276 1.67383 16.3911C1.67487 17.5567 1.95389 18.7053 2.48772 19.7415C4.0456 18.3035 7.70061 17.2898 11.9598 17.2898Z" fill="#00AFDF"/>
<path d="M11.9594 17.3051C16.2036 17.3051 19.8586 18.3037 21.4165 19.7267C21.9496 18.7028 22.2288 17.5657 22.2304 16.4113C22.2304 11.7027 17.6316 7.50342 11.9594 7.50342C6.28709 7.50342 1.69336 11.7027 1.69336 16.4113C1.69436 17.5658 1.97353 18.703 2.50725 19.7267C4.06513 18.3037 7.71015 17.3051 11.9594 17.3051Z" fill="#00B1E0"/>
<path d="M11.9598 17.3149C16.194 17.3149 19.8341 18.3135 21.3869 19.7166C21.9199 18.7034 22.1992 17.576 22.2008 16.4311C22.2008 11.7725 17.6171 7.59814 11.9598 7.59814C6.3025 7.59814 1.71875 11.7725 1.71875 16.4311C1.71983 17.576 1.99914 18.7036 2.53264 19.7166C4.08552 18.3085 7.72057 17.3149 11.9598 17.3149Z" fill="#00B3E1"/>
<path d="M11.9591 17.3248C16.1784 17.3248 19.8134 18.3235 21.3613 19.7016C21.8904 18.6997 22.168 17.5841 22.1702 16.451C22.1702 11.8373 17.5964 7.68799 11.9591 7.68799C6.32182 7.68799 1.74805 11.8423 1.74805 16.451C1.75026 17.5841 2.02787 18.6997 2.55696 19.7016C4.10485 18.3085 7.7299 17.3248 11.9591 17.3248Z" fill="#0DB5E2"/>
<path d="M11.9545 17.3402C16.1638 17.3402 19.7889 18.3089 21.3318 19.687C21.8604 18.6974 22.1382 17.5933 22.1407 16.4714C22.1407 11.9076 17.5819 7.7832 11.9545 7.7832C6.32722 7.7832 1.77344 11.9076 1.77344 16.4714C1.77589 17.5933 2.05365 18.6974 2.58233 19.687C4.12523 18.3089 7.74029 17.3402 11.9545 17.3402Z" fill="#19B7E3"/>
<path d="M11.955 17.3501C16.1543 17.3501 19.7643 18.3088 21.3072 19.677C21.8346 18.6995 22.1124 17.6069 22.1161 16.4963C22.1161 12.0024 17.5673 7.87305 11.955 7.87305C6.34263 7.87305 1.79883 11.9775 1.79883 16.4963C1.80189 17.607 2.07978 18.6997 2.60772 19.677C4.14563 18.3088 7.75071 17.3501 11.955 17.3501Z" fill="#21B9E4"/>
<path d="M11.9543 17.36C16.1386 17.36 19.7437 18.3137 21.2816 19.6618C21.8047 18.6955 22.0809 17.6149 22.0855 16.5161C22.0855 12.0222 17.5467 7.96777 11.9543 7.96777C6.36194 7.96777 1.82812 12.0422 1.82812 16.5161C1.83036 17.6146 2.10486 18.6954 2.62704 19.6618C4.16494 18.3137 7.76004 17.36 11.9543 17.36Z" fill="#28BBE5"/>
<path d="M11.955 17.3849C16.1343 17.3849 19.7344 18.3336 21.2673 19.6718C21.7909 18.7129 22.0672 17.6386 22.0712 16.546C22.0712 12.1071 17.5423 8.05762 11.955 8.05762C6.36758 8.05762 1.84375 12.1171 1.84375 16.546C1.84532 17.6383 2.11996 18.7128 2.64266 19.6718C4.17557 18.3336 7.77067 17.3849 11.955 17.3849Z" fill="#37BDE6"/>
<path d="M11.9547 17.4147C16.129 17.4147 19.7241 18.3534 21.2521 19.6866C21.7765 18.7334 22.0529 17.6637 22.056 16.5758C22.056 12.1668 17.5321 8.13232 11.9547 8.13232C6.37734 8.13232 1.85352 12.1668 1.85352 16.5758C1.85883 17.6628 2.13331 18.7315 2.65243 19.6866C4.18534 18.3534 7.77543 17.4147 11.9547 17.4147Z" fill="#43BFE6"/>
<path d="M11.9554 17.4597C16.1247 17.4597 19.7098 18.3935 21.2427 19.7167C21.7633 18.7712 22.0381 17.7101 22.0416 16.6309C22.0416 12.2468 17.5478 8.2373 11.9554 8.2373C6.363 8.2373 1.86914 12.2319 1.86914 16.6309C1.87207 17.7102 2.14683 18.7715 2.66805 19.7167C4.19597 18.3735 7.78107 17.4597 11.9554 17.4597Z" fill="#4DC0E7"/>
<path d="M11.956 17.4599C16.1203 17.4599 19.7005 18.3886 21.2284 19.7018C21.7511 18.7642 22.0277 17.7095 22.0323 16.636C22.0323 12.2819 17.5384 8.29736 11.956 8.29736C6.37364 8.29736 1.88477 12.2919 1.88477 16.636C1.88844 17.7083 2.16143 18.7625 2.67868 19.7018C4.2066 18.3936 7.78671 17.4599 11.956 17.4599Z" fill="#56C2E8"/>
<path d="M11.9547 17.4948C16.114 17.4948 19.6892 18.4135 21.2171 19.7168C21.7352 18.7866 22.01 17.7406 22.016 16.6759C22.016 12.3518 17.5221 8.38721 11.9547 8.38721C6.38731 8.38721 1.89844 12.3518 1.89844 16.6759C1.89982 17.7406 2.17309 18.7873 2.69235 19.7168C4.21528 18.4135 7.79039 17.4948 11.9547 17.4948Z" fill="#5EC4E8"/>
<path d="M11.9545 17.5198C16.1038 17.5198 19.679 18.4336 21.2019 19.7318C21.7221 18.8079 21.9971 17.7662 22.0008 16.7059C22.0008 12.4118 17.5069 8.47217 11.9545 8.47217C6.40207 8.47217 1.9082 12.4118 1.9082 16.7059C1.91256 17.7655 2.18572 18.8066 2.70212 19.7318C4.23004 18.4586 7.79517 17.5198 11.9545 17.5198Z" fill="#65C6E9"/>
<path d="M11.9547 17.5447C16.0991 17.5447 19.6692 18.4534 21.1921 19.7417C21.7067 18.8266 21.9799 17.7956 21.986 16.7457C21.986 12.4816 17.4922 8.56689 11.9547 8.56689C6.41725 8.56689 1.94336 12.4666 1.94336 16.7358C1.94885 17.7857 2.22211 18.8168 2.73727 19.7317C4.24023 18.4584 7.80536 17.5447 11.9547 17.5447Z" fill="#6DC7EA"/>
<path d="M11.9547 17.5698C16.0941 17.5698 19.6592 18.4735 21.1771 19.7518C21.6956 18.8383 21.9691 17.8063 21.971 16.7559C21.971 12.5166 17.4772 8.62695 11.9547 8.62695C6.43223 8.62695 1.94336 12.5316 1.94336 16.7708C1.94353 17.8208 2.2153 18.8529 2.73228 19.7668C4.25021 18.4585 7.81035 17.5698 11.9547 17.5698Z" fill="#74C9EA"/>
<path d="M11.9547 17.5995C16.089 17.5995 19.6492 18.4932 21.1671 19.7665C21.6803 18.8617 21.9535 17.8407 21.961 16.8006C21.961 12.5913 17.4672 8.72656 11.9747 8.72656C6.48215 8.72656 1.98828 12.5963 1.98828 16.8006C1.99113 17.8407 2.26291 18.8624 2.77721 19.7665C4.26019 18.4932 7.81533 17.5995 11.9547 17.5995Z" fill="#7ACBEB"/>
<path d="M11.956 17.6245C16.0854 17.6245 19.6405 18.5133 21.1535 19.7766C21.6685 18.8816 21.9421 17.8682 21.9474 16.8356C21.9474 12.6563 17.4535 8.81152 11.961 8.81152C6.46848 8.81152 1.97461 12.6563 1.97461 16.8356C1.97995 17.8675 2.2517 18.8805 2.76354 19.7766C4.27149 18.5133 7.82163 17.6245 11.956 17.6245Z" fill="#81CDEC"/>
<path d="M11.9553 17.6495C16.0797 17.6495 19.6299 18.5333 21.1428 19.7866C21.6541 18.8976 21.9259 17.8911 21.9317 16.8656C21.9317 12.7162 17.4628 8.87646 11.9454 8.87646C6.42789 8.87646 1.95898 12.7012 1.95898 16.8656C1.96182 17.8915 2.23385 18.8987 2.7479 19.7866C4.28081 18.5333 7.82598 17.6495 11.9553 17.6495Z" fill="#87CFEC"/>
<path d="M11.9555 17.6797C16.0749 17.6797 19.6151 18.5535 21.1281 19.7968C21.6396 18.9152 21.9116 17.915 21.917 16.8958C21.917 12.7764 17.4531 8.97656 11.9555 8.97656C6.45804 8.97656 1.99414 12.7764 1.99414 16.8958C1.99778 17.9146 2.26805 18.9148 2.77808 19.7968C4.29101 18.5535 7.83117 17.6797 11.9555 17.6797Z" fill="#8ED1ED"/>
<path d="M11.9542 17.7043C16.0686 17.7043 19.6038 18.5731 21.1167 19.8114C21.6269 18.9364 21.8989 17.9431 21.9057 16.9303C21.9057 12.8359 17.4468 9.06104 11.9542 9.06104C6.46173 9.06104 2.00781 12.8409 2.00781 16.9303C2.01215 17.9428 2.28249 18.9363 2.79175 19.8114C4.29969 18.5731 7.83985 17.7043 11.9542 17.7043Z" fill="#94D3EE"/>
<path d="M11.9544 17.7293C16.0638 17.7293 19.594 18.5931 21.102 19.8214C21.6214 18.9564 21.9022 17.9692 21.9159 16.9603C21.9159 12.8959 17.4619 9.146 11.9794 9.146C6.49689 9.146 2.04297 12.9009 2.04297 16.9603C2.04728 17.9665 2.31773 18.9536 2.82689 19.8214C4.30987 18.5931 7.84504 17.7293 11.9544 17.7293Z" fill="#9AD5EF"/>
<path d="M11.9547 17.7543C16.0591 17.7543 19.5843 18.6132 21.0872 19.8315C21.597 18.9728 21.8693 17.994 21.8762 16.9954C21.8762 12.9609 17.4322 9.23096 11.9547 9.23096C6.47714 9.23096 2.0332 12.9609 2.0332 16.9954C2.03763 17.9936 2.30824 18.9727 2.81714 19.8315C4.32009 18.6132 7.85027 17.7543 11.9547 17.7543Z" fill="#A0D7F0"/>
<path d="M11.9553 17.7844C16.0547 17.7844 19.5749 18.6332 21.0779 19.8416C21.5843 18.989 21.8548 18.017 21.8618 17.0254C21.8618 13.0309 17.4229 9.31592 11.9553 9.31592C6.48777 9.31592 2.04883 13.0209 2.04883 17.0254C2.05166 18.0169 2.32067 18.9895 2.82776 19.8416C4.33072 18.6332 7.85591 17.7844 11.9553 17.7844Z" fill="#A6D9F0"/>
<path d="M11.956 17.8094C16.0504 17.8094 19.5656 18.6533 21.0636 19.8566C21.5736 19.0108 21.8461 18.0431 21.8525 17.0554C21.8525 13.0609 17.4185 9.40088 11.956 9.40088C6.49341 9.40088 2.06445 13.0859 2.06445 17.0554C2.06776 18.0422 2.33684 19.0098 2.84339 19.8566C4.34135 18.6533 7.86155 17.8094 11.956 17.8094Z" fill="#ACDCF1"/>
<path d="M11.9547 17.8345C16.0391 17.8345 19.5543 18.6733 21.0523 19.8667C21.5576 19.0282 21.8284 18.0694 21.8362 17.0905C21.8362 13.1409 17.4072 9.48584 11.9547 9.48584C6.50209 9.48584 2.07812 13.1458 2.07812 17.0905C2.08244 18.0685 2.34977 19.0274 2.85208 19.8667C4.35503 18.6733 7.86523 17.8345 11.9547 17.8345Z" fill="#B2DEF2"/>
<path d="M11.9544 17.8595C16.0339 17.8595 19.5441 18.6933 21.037 19.8567C21.5424 19.0256 21.8133 18.0732 21.821 17.1005C21.821 13.1858 17.397 9.55078 11.9544 9.55078C6.51185 9.55078 2.08789 13.1858 2.08789 17.1005C2.09083 18.0731 2.36022 19.0264 2.86683 19.8567C4.36478 18.6933 7.87499 17.8595 11.9544 17.8595Z" fill="#B8E0F3"/>
<path d="M11.9551 17.8894C16.0295 17.8894 19.5347 18.7133 21.0277 19.8867C21.5299 19.0618 21.7991 18.1162 21.8066 17.1504C21.8066 13.2607 17.3927 9.66064 11.9551 9.66064C6.51749 9.66064 2.10352 13.2707 2.10352 17.1504C2.1078 18.1166 2.37724 19.0631 2.88245 19.8867C4.37542 18.7133 7.88063 17.8894 11.9551 17.8894Z" fill="#BDE2F4"/>
<path d="M11.9557 17.914C16.0252 17.914 19.5254 18.7329 21.0134 19.9113C21.516 19.0939 21.7854 18.1545 21.7923 17.195C21.7923 13.3352 17.3833 9.74512 11.9557 9.74512C6.52812 9.74512 2.11914 13.3402 2.11914 17.195C2.12353 18.1542 2.39124 19.0938 2.89308 19.9113C4.38604 18.7329 7.88627 17.914 11.9557 17.914Z" fill="#C3E5F5"/>
<path d="M11.9544 17.9593C16.0189 17.9593 19.5091 18.7731 21.0021 19.9316C21.5024 19.1205 21.7717 18.1882 21.781 17.2352C21.781 13.4055 17.377 9.84033 11.9544 9.84033C6.53181 9.84033 2.13281 13.4105 2.13281 17.2352C2.1355 18.1877 2.40164 19.1209 2.90177 19.9316C4.39473 18.7532 7.88995 17.9593 11.9544 17.9593Z" fill="#C9E7F5"/>
<path d="M11.9542 17.959C16.0137 17.959 19.4989 18.7629 20.9869 19.9114C21.4868 19.1093 21.7563 18.1851 21.7658 17.24C21.7658 13.4352 17.3668 9.89502 11.9542 9.89502C6.54158 9.89502 2.14258 13.4651 2.14258 17.25C2.1472 18.1951 2.41522 19.1202 2.91653 19.9213C4.4045 18.7729 7.89473 17.959 11.9542 17.959Z" fill="#CEE9F6"/>
<path d="M11.9548 17.9938C16.0093 17.9938 19.4896 18.7927 20.9775 19.9362C21.4752 19.1389 21.7431 18.2196 21.7515 17.2798C21.7515 13.5099 17.3625 9.98975 11.9548 9.98975C6.54721 9.98975 2.1582 13.5099 2.1582 17.2798C2.16248 18.2279 2.4342 19.1556 2.94214 19.9562C4.44009 18.7927 7.90037 17.9938 11.9548 17.9938Z" fill="#D4ECF7"/>
<path d="M11.9559 18.0189C16.0054 18.0189 19.4807 18.8128 20.9437 19.9462C21.4422 19.1585 21.7103 18.247 21.7176 17.3148C21.7176 13.5699 17.3336 10.0747 11.936 10.0747C6.53832 10.0747 2.1543 13.5699 2.1543 17.3148C2.16203 18.2522 2.43559 19.1682 2.94321 19.9562C4.44117 18.8128 7.9364 18.0189 11.9559 18.0189Z" fill="#DAEEF8"/>
<path d="M11.9553 18.0439C15.9997 18.0439 19.47 18.8328 20.943 19.9563C21.4417 19.1758 21.7116 18.2711 21.7219 17.3449C21.7219 13.6299 17.3379 10.1597 11.9503 10.1597C6.56262 10.1597 2.18359 13.6549 2.18359 17.3449C2.18719 18.2692 2.45014 19.174 2.94255 19.9563C4.44051 18.8328 7.93574 18.0439 11.9553 18.0439Z" fill="#DFF1F9"/>
<path d="M11.9548 18.0739C15.9943 18.0739 19.4446 18.8529 20.9426 19.9664C21.4401 19.193 21.7085 18.2945 21.7165 17.3749C21.7165 13.6899 17.3425 10.2446 11.9598 10.2446C6.57716 10.2446 2.20312 13.6949 2.20312 17.3749C2.20693 18.2944 2.47375 19.1936 2.97208 19.9664C4.44008 18.8529 7.93531 18.0739 11.9548 18.0739Z" fill="#E5F3FA"/>
<path d="M11.9542 18.099C15.9887 18.099 19.444 18.8729 20.9419 19.9814C21.4379 19.2147 21.7062 18.323 21.7159 17.4099C21.7159 13.7549 17.3468 10.3296 11.9741 10.3296C6.60147 10.3296 2.23242 13.7549 2.23242 17.4099C2.23852 18.3221 2.50344 19.2139 2.99638 19.9814C4.43941 18.8729 7.93465 18.099 11.9542 18.099Z" fill="#EBF6FB"/>
<path d="M11.9552 18.124C15.9847 18.124 19.445 18.893 20.913 19.9915C21.4056 19.2309 21.6723 18.3461 21.682 17.44C21.682 13.8149 17.3229 10.4146 11.9552 10.4146C6.58756 10.4146 2.22852 13.8149 2.22852 17.4599C2.23399 18.366 2.49912 19.2515 2.99247 20.0115C4.46546 18.893 7.93572 18.124 11.9552 18.124Z" fill="#F1F8FD"/>
<path d="M11.9559 18.1488C15.9804 18.1488 19.4457 18.9127 20.8987 20.0012C21.3953 19.2462 21.6624 18.3634 21.6677 17.4597C21.6677 13.8596 17.3136 10.4692 11.9559 10.4692C6.59819 10.4692 2.24414 13.8496 2.24414 17.4597C2.24869 18.3574 2.51222 19.2347 3.0031 19.9863C4.48108 18.9127 7.93637 18.1488 11.9559 18.1488Z" fill="#F7FBFE"/>
<path d="M11.9557 18.1788C15.9502 18.1788 19.4155 18.9328 20.8885 20.0163C21.3772 19.2742 21.6439 18.4081 21.6575 17.5197C21.6575 13.9496 17.3084 10.5991 11.9557 10.5991C6.60297 10.5991 2.25391 13.9545 2.25391 17.5197C2.26315 18.408 2.5284 19.2749 3.01786 20.0163C4.49086 18.9577 7.93615 18.1788 11.9557 18.1788Z" fill="white"/>
<path d="M11.9558 14.614C8.72408 14.5842 5.51245 15.1251 2.46875 16.2118C3.28387 18.0424 4.61214 19.5976 6.29279 20.689C7.97344 21.7804 9.93442 22.3612 11.9383 22.3612C13.9423 22.3612 15.9032 21.7804 17.5839 20.689C19.2645 19.5976 20.5928 18.0424 21.4079 16.2118C18.3756 15.1277 15.1759 14.5868 11.9558 14.614Z" fill="#0083CA"/>
</g>
</g>
<defs>
<clipPath id="clip0_2210_3176">
<rect width="22" height="21.7653" fill="white" transform="translate(1 1.11719)"/>
</clipPath>
</defs>
</svg>
