<svg width="24" height="24" viewBox="0 0 24 24" fill="none" xmlns="http://www.w3.org/2000/svg">
<g clip-path="url(#clip0_2210_3246)">
<path d="M15.4027 13.8468C15.3514 13.5471 15.2642 13.2546 15.1429 12.9755C14.7904 12.147 14.186 11.4491 13.4145 10.98C12.8052 10.6227 12.1099 10.4366 11.4027 10.4415C10.6954 10.4465 10.0028 10.6423 9.3986 11.0081C8.83572 11.3439 8.37953 11.831 8.08255 12.4134C7.98146 12.6125 7.89647 12.8193 7.82838 13.0318C7.64454 13.5836 7.5743 14.1667 7.62185 14.7462C7.6694 15.3256 7.83377 15.8896 8.10515 16.4045C8.29081 16.7196 8.57426 16.9662 8.91285 17.1072C9.08184 17.1772 9.26505 17.2066 9.4476 17.1929C9.63015 17.1793 9.80688 17.1229 9.96343 17.0285C10.1357 16.8925 10.2643 16.7094 10.3335 16.5017C10.4028 16.294 10.4096 16.0707 10.3532 15.8592C10.222 15.3219 10.2356 14.7595 10.3927 14.2291C10.4551 14.0557 10.5554 13.8982 10.6864 13.7681C10.7678 13.6901 10.8612 13.6256 10.9632 13.577C11.176 13.4706 11.4164 13.4313 11.6523 13.4646C11.8569 13.5086 12.0481 13.6003 12.2101 13.7323C12.3722 13.8642 12.5004 14.0326 12.5842 14.2235C12.7411 14.5976 12.8236 14.9985 12.8271 15.4039C12.83 17.2346 12.5578 19.0554 12.0194 20.8059C11.9686 20.9858 11.9177 21.1601 11.8725 21.3399C11.8274 21.5198 11.7596 21.6491 11.8725 21.784C11.912 21.8397 11.967 21.8827 12.0307 21.9077C12.3018 22.0145 12.5164 21.8515 12.6972 21.6716C13.7232 20.5779 14.4793 19.2615 14.9057 17.8267C15.0831 17.3009 15.2247 16.7638 15.3293 16.219C15.4907 15.4329 15.5193 14.6255 15.414 13.83" fill="#008375"/>
<path d="M22.9938 5.51635C22.9918 5.45453 22.9771 5.39377 22.9506 5.33779C22.9242 5.28181 22.8866 5.23179 22.8401 5.19076C22.7935 5.14973 22.7391 5.11856 22.6801 5.09915C22.6211 5.07975 22.5587 5.07252 22.4968 5.0779C22.2366 5.11373 21.9844 5.19356 21.7512 5.31398C16.9929 7.00877 11.8833 7.48811 6.89064 6.70805C6.04904 6.58438 5.19616 6.42137 4.34892 6.28646C3.81798 6.20214 3.29269 6.0841 2.76175 6.04475C2.28169 5.95308 1.78457 6.0476 1.37228 6.30895C1.16049 6.54074 1.02914 6.83413 0.997618 7.14585C0.966093 7.45758 1.03605 7.77113 1.19719 8.04028C1.55694 8.65346 2.07848 9.15695 2.70527 9.49617C3.287 9.90645 3.97546 10.1407 4.68781 10.1707C6.57057 10.0471 8.45332 9.85969 10.3361 9.6086C13.5273 9.19825 16.8655 8.81038 19.8647 7.57933C20.857 7.18661 21.7917 6.6629 22.6437 6.02226C22.7962 5.90983 23.0164 5.71872 23.0164 5.49949" fill="#008375"/>
<path d="M9.60742 3.92555C9.60742 4.41007 9.80082 4.87475 10.1451 5.21736C10.4893 5.55997 10.9563 5.75244 11.4431 5.75244C11.93 5.75244 12.3969 5.55997 12.7411 5.21736C13.0854 4.87475 13.2788 4.41007 13.2788 3.92555C13.2785 3.77426 13.2458 3.62477 13.1828 3.48709C13.0246 3.15544 12.8439 2.99242 12.8665 2.59332C12.8665 2.0593 12.1943 2.0312 11.8215 2.0312C11.4071 2.01776 10.9952 2.10052 10.6185 2.27292C10.3259 2.42112 10.0783 2.64426 9.90113 2.91936C9.71541 3.20015 9.61356 3.52761 9.60742 3.86372V3.90868" fill="#D50037"/>
</g>
<defs>
<clipPath id="clip0_2210_3246">
<rect width="22" height="19.9048" fill="white" transform="translate(1 2.04785)"/>
</clipPath>
</defs>
</svg>
