<svg width="24" height="24" viewBox="0 0 24 24" fill="none" xmlns="http://www.w3.org/2000/svg">
<g clip-path="url(#clip0_2210_3373)">
<path d="M22 19.1322C21.9998 19.5071 21.9258 19.8784 21.7822 20.2247C21.6386 20.571 21.4281 20.8857 21.1629 21.1507C20.8976 21.4157 20.5828 21.6258 20.2363 21.7691C19.8898 21.9124 19.5185 21.986 19.1436 21.9858H4.8568C4.09959 21.9862 3.37324 21.6857 2.83751 21.1506C2.30178 20.6154 2.00053 19.8894 2 19.1322V4.8665C2.00063 4.10939 2.30195 3.38352 2.83768 2.84854C3.37341 2.31355 4.09969 2.01325 4.8568 2.01367H19.1436C19.5185 2.01341 19.8897 2.087 20.2362 2.23023C20.5826 2.37346 20.8974 2.58353 21.1627 2.84845C21.4279 3.11336 21.6384 3.42793 21.7821 3.77419C21.9257 4.12045 21.9998 4.49162 22 4.8665V19.1322Z" fill="#FFE400"/>
<path d="M16.2888 13.9974C16.1992 13.3013 15.8512 12.6643 15.3138 12.2127C15.2342 12.1427 15.148 12.0775 15.0525 12C15.132 11.9403 15.1981 11.8946 15.2597 11.8433C15.6465 11.5232 15.9452 11.1097 16.1278 10.642C16.3007 10.1997 16.3555 9.72004 16.2869 9.25016C16.2108 8.67859 15.9582 8.14503 15.5643 7.72393C15.2836 7.41134 14.9368 7.16519 14.5491 7.00337C14.1725 6.85091 13.7695 6.77455 13.3632 6.77869H8.81081C8.77942 6.7769 8.74796 6.7769 8.71657 6.77869C8.66664 6.78096 8.6196 6.80273 8.58554 6.83931C8.55149 6.8759 8.53314 6.92438 8.53444 6.97434C8.53444 7.00615 8.53444 7.03757 8.53444 7.06898V16.9051C8.53444 16.9545 8.53166 17.0042 8.53444 17.0535C8.53648 17.0942 8.55269 17.133 8.58029 17.1631C8.60788 17.1931 8.64512 17.2126 8.68555 17.2181C8.71681 17.2219 8.74834 17.2231 8.7798 17.2217H13.4945C13.9693 17.2235 14.436 17.0988 14.8465 16.8602C15.4331 16.5306 15.8858 16.0061 16.1262 15.3777C16.2997 14.9397 16.3558 14.4638 16.2888 13.9974ZM12.6657 14.3514H11.8152V9.65895H12.6562C12.6562 9.65895 12.653 9.65657 12.6562 9.65657V9.65895H12.6657V14.3514Z" fill="#1E1719"/>
</g>
<defs>
<clipPath id="clip0_2210_3373">
<rect width="20" height="19.9726" fill="white" transform="translate(2 2.01367)"/>
</clipPath>
</defs>
</svg>
