<svg width="24" height="24" viewBox="0 0 24 24" fill="none" xmlns="http://www.w3.org/2000/svg">
<g clip-path="url(#clip0_2210_3397)">
<path d="M1.00195 16.3176C1.00195 19.9936 3.25423 23.0021 11.7826 23.0021H12.219C20.7497 23.0021 22.9996 19.9936 22.9996 16.3176V7.68194C22.9996 4.0036 20.7473 0.995117 12.219 0.995117H11.7826C3.2519 0.999785 1.00195 4.00827 1.00195 7.68194V16.3176Z" fill="url(#paint0_linear_2210_3397)"/>
<path d="M12.2167 23.0001C12.8306 23.0001 13.4094 22.9837 13.9602 22.9534V19.2307C15.5216 19.2191 17.6152 18.5935 18.5488 16.5747C19.6551 14.18 18.5651 12.3478 17.5079 11.4399C18.1707 10.6114 18.5838 9.08962 18.0213 7.48385C17.0644 4.75311 14.3453 4.61073 13.4211 4.6084H12.2051V22.9908L12.2167 23.0001ZM13.9602 6.48958H14.1936C14.8438 6.52709 15.4551 6.81161 15.9024 7.28496C16.3497 7.7583 16.5992 8.38468 16.5999 9.03594C16.5999 10.8004 14.9382 11.6383 14.7654 11.6967C14.8425 11.6967 17.1414 12.3969 17.1414 14.5348C17.1414 16.1802 15.6524 17.3729 13.9556 17.3729L13.9602 6.48958Z" fill="white"/>
<path d="M8.55563 11.5611C8.03749 11.113 7.16926 10.1864 7.20893 9.03111C7.24394 7.98549 7.74108 7.17794 8.57664 6.81384C9.32351 6.48708 10.2291 6.48241 10.7822 6.48241H10.9106V4.61523H10.8149C10.1007 4.61523 8.91974 4.61523 7.84611 5.08203C6.32203 5.74721 5.3791 7.21295 5.32075 8.99844C5.27174 10.4292 5.9766 11.8482 7.30696 12.9942C8.57198 14.0865 9.21615 14.719 8.89873 16.089C8.63265 17.2397 6.84017 18.7824 6.26601 19.1979H8.85439C9.47522 18.7311 10.4882 17.5781 10.7379 16.4811C11.3261 13.9511 9.7903 12.6254 8.55563 11.5611Z" fill="white"/>
</g>
<defs>
<linearGradient id="paint0_linear_2210_3397" x1="12.0393" y1="8.80388" x2="12.0393" y2="22.8777" gradientUnits="userSpaceOnUse">
<stop stop-color="#92C83E"/>
<stop offset="0.6" stop-color="#009D54"/>
<stop offset="1" stop-color="#007360"/>
</linearGradient>
<clipPath id="clip0_2210_3397">
<rect width="22" height="22" fill="white" transform="translate(1 1)"/>
</clipPath>
</defs>
</svg>
