<svg width="24" height="24" viewBox="0 0 24 24" fill="none" xmlns="http://www.w3.org/2000/svg">
<g clip-path="url(#clip0_2210_3293)">
<path d="M22 2H2V22H22V2Z" fill="#0091D0"/>
<path d="M2 2L6.99854 7.00146L12 2H2Z" fill="#0091D0"/>
<path d="M2 2V12L6.99854 7.00146L2 2Z" fill="#009AD8"/>
<path d="M12 12L7.00146 6.99854L2 12H12Z" fill="#0091D0"/>
<path d="M12.0005 12V2L7.00195 6.99854L12.0005 12Z" fill="#0082C9"/>
<path d="M12 2V12L16.9985 7.00146L12 2Z" fill="#0071BB"/>
<path d="M22 12L17.0015 6.99854L12 12H22Z" fill="#004C98"/>
<path d="M2 12L6.99854 17.0015L12 12H2Z" fill="#0082C9"/>
<path d="M2 12V22L6.99854 17.0015L2 12Z" fill="#0071BB"/>
<path d="M12 22L7.00146 16.9985L2 22H12Z" fill="#0066B3"/>
<path d="M12.0005 22V12L7.00195 16.9985L12.0005 22Z" fill="#00529C"/>
<path d="M12 12L16.9985 17.0015L22 12H12Z" fill="#1B3281"/>
<path d="M12 12V22L16.9985 17.0015L12 12Z" fill="#004C98"/>
<path d="M22 22L17.0015 16.9985L12 22H22Z" fill="#1B3281"/>
<path d="M22.0005 22V12L17.002 16.9985L22.0005 22Z" fill="#1B3281"/>
<path d="M12 2L16.9985 7.00146L22 2H12Z" fill="#0066B3"/>
<path d="M22.0005 12V2L17.002 6.99854L22.0005 12Z" fill="#00529C"/>
<path d="M21.9993 14.5008L15.5955 8.40381L5.87891 18.1438L9.42258 21.6875L15.5955 15.6109L21.9993 21.9796V14.5008Z" fill="white"/>
</g>
<defs>
<clipPath id="clip0_2210_3293">
<rect width="20" height="20" fill="white" transform="translate(2 2)"/>
</clipPath>
</defs>
</svg>
