<svg width="24" height="24" viewBox="0 0 24 24" fill="none" xmlns="http://www.w3.org/2000/svg">
<g clip-path="url(#clip0_2210_3393)">
<path d="M10.5347 14.5371C10.7711 14.5371 11.1494 14.7262 11.6852 15.2935C14.147 18.0278 17.0242 20.3572 20.2109 22.1961C20.5892 22.401 20.794 22.5586 20.794 22.7634C20.794 22.9683 20.7941 23.0629 20.4474 23.0629C18.839 22.8679 17.2548 22.5089 15.7196 21.9912C14.8528 21.5815 12.9616 20.0528 10.7238 16.176C10.4488 15.8393 10.2644 15.4379 10.188 15.0099C10.1767 14.9557 10.1769 14.8998 10.1886 14.8458C10.2003 14.7917 10.2232 14.7408 10.2559 14.6962C10.2886 14.6516 10.3304 14.6143 10.3784 14.5869C10.4264 14.5595 10.4797 14.5426 10.5347 14.5371Z" fill="#659AD2"/>
<path d="M18.0044 3.45855C18.0044 3.45855 18.556 4.54595 13.2766 5.28664L14.238 2.56031C14.3125 2.39449 14.3455 2.213 14.3341 2.03157C14.3227 1.85013 14.2673 1.67423 14.1726 1.51903C14.0779 1.36384 13.9469 1.23403 13.7907 1.14087C13.6346 1.04771 13.4582 0.994009 13.2766 0.984375C13.006 1.00769 12.7486 1.11181 12.5378 1.28323C12.3271 1.45465 12.1727 1.68543 12.0947 1.94567L10.5187 5.57034C9.08155 5.68154 7.63792 5.68154 6.20071 5.57034C5.23939 5.47578 4.98731 6.01156 4.98731 6.56314C4.98731 7.5087 6.67356 8.48581 7.74519 8.3755L9.32112 8.23367L3.42706 21.6921C3.20643 22.1964 3.01732 23.0001 4.02592 23.0001C5.03452 23.0001 7.31964 22.0703 7.69787 20.9987L10.3454 13.5288C11.5652 13.2979 12.7961 13.1295 14.0331 13.0245C14.6478 13.0245 14.9787 13.3081 14.9787 13.6548C14.9787 14.427 13.1191 16.6491 9.51023 19.3912C9.11624 19.6907 9.51017 19.9271 9.65201 19.9271C11.1862 19.2433 12.6224 18.3583 13.9228 17.2953C15.2781 16.2709 17.6262 13.6233 17.6262 11.748C17.6262 11.023 17.311 10.3454 15.8296 10.3454C14.3483 10.3454 11.8741 10.6606 11.3225 10.7236C11.685 9.73078 12.0159 8.75373 12.3469 7.83969C15.1363 7.46146 16.791 7.20927 17.7681 7.0044C19.1234 6.72073 20.2108 5.94853 20.2108 5.14481C20.2108 3.4428 18.0044 3.45855 18.0044 3.45855Z" fill="#632D00"/>
</g>
<defs>
<clipPath id="clip0_2210_3393">
<rect width="17.5244" height="22" fill="white" transform="translate(3.23828 1)"/>
</clipPath>
</defs>
</svg>
