<svg width="24" height="24" viewBox="0 0 24 24" fill="none" xmlns="http://www.w3.org/2000/svg">
<g clip-path="url(#clip0_2210_3333)">
<path d="M1.03221 11.9647C1.02344 11.9674 1.01577 11.9729 1.01033 11.9803C1.00489 11.9877 1.00195 11.9967 1.00195 12.0059C1.00195 12.015 1.00489 12.024 1.01033 12.0314C1.01577 12.0388 1.02344 12.0443 1.03221 12.047L4.42587 14.2885L5.39773 9.71533L1.03221 11.9647Z" fill="#E72511"/>
<path d="M21.1416 9.71143H20.2795C20.2266 9.7147 20.1747 9.728 20.1267 9.75062L15.816 11.9686C15.7768 11.9686 15.7729 12.0235 15.816 12.0509L19.1509 14.2455C19.1966 14.2711 19.2475 14.2858 19.2998 14.2886H20.158C20.2051 14.2886 20.209 14.2886 20.158 14.2455L16.7487 12.0039L21.1416 9.75062C21.1769 9.73102 21.173 9.71143 21.1416 9.71143Z" fill="#F08300"/>
<path d="M19.2898 9.71143H13.3058L12.334 14.2886H18.3101C18.3571 14.2886 18.3611 14.2886 18.3101 14.2455L14.9086 12.0039L19.2781 9.75062C19.3408 9.73102 19.3368 9.71143 19.2898 9.71143Z" fill="#E72511"/>
<path d="M22.9644 9.71143H22.1062C22.0531 9.71399 22.0011 9.72733 21.9533 9.75062L17.6427 11.9686C17.6035 11.9686 17.6035 12.0235 17.6427 12.0509L20.9815 14.2455C21.0256 14.2714 21.0753 14.2862 21.1265 14.2886H21.9886C22.0317 14.2886 22.0395 14.2886 21.9886 14.2455L18.5832 12.0039L22.9565 9.75062C23.0114 9.73102 23.0075 9.71143 22.9644 9.71143Z" fill="#FABE00"/>
<path d="M19.0265 6.71749H4.95029C4.61534 6.7013 4.28531 6.80299 4.01755 7.00488C3.7498 7.20678 3.56125 7.4961 3.48468 7.82258C3.4499 7.97771 3.46103 8.13961 3.5167 8.28852C3.57237 8.43743 3.67017 8.56693 3.79818 8.6612L8.85731 12L19.0461 6.75667C19.0736 6.73316 19.0696 6.71749 19.0265 6.71749Z" fill="#E72511"/>
<path d="M16.7931 17.2394L8.86155 12L2.38382 15.3427C2.22021 15.4286 2.07619 15.5474 1.96085 15.6918C1.84551 15.8361 1.76135 16.0028 1.7137 16.1813C1.58046 16.7887 1.9214 17.2825 2.70907 17.2825H16.7853C16.8323 17.2825 16.8323 17.2629 16.7931 17.2394Z" fill="#E72511"/>
</g>
<defs>
<clipPath id="clip0_2210_3333">
<rect width="22" height="10.565" fill="white" transform="translate(1 6.71729)"/>
</clipPath>
</defs>
</svg>
