<svg width="24" height="24" viewBox="0 0 24 24" fill="none" xmlns="http://www.w3.org/2000/svg">
<g clip-path="url(#clip0_2210_3172)">
<path d="M11.5091 1.15813C9.36452 1.25539 7.29699 1.98651 5.56802 3.25901C3.83905 4.5315 2.52632 6.28821 1.79591 8.30689C1.06549 10.3256 0.950195 12.5155 1.46461 14.5997C1.97903 16.684 3.10005 18.5688 4.68585 20.0158C6.27165 21.4628 8.25097 22.407 10.3735 22.7289C12.4959 23.0508 14.6662 22.7359 16.6098 21.8242C18.5533 20.9124 20.1827 19.4447 21.292 17.6068C22.4013 15.7688 22.9405 13.6431 22.8415 11.4987C22.7778 10.0747 22.434 8.67717 21.8299 7.38609C21.2258 6.09501 20.3731 4.93567 19.3207 3.97433C18.2682 3.013 17.0366 2.26854 15.6962 1.7835C14.3558 1.29847 12.933 1.08238 11.5091 1.14759V1.15813Z" fill="url(#paint0_radial_2210_3172)"/>
<path d="M11.5032 1.0109C9.32971 1.10916 7.23411 1.84979 5.48153 3.13912C3.72895 4.42844 2.39809 6.20855 1.65727 8.2543C0.916445 10.3 0.798948 12.5195 1.31963 14.6321C1.8403 16.7446 2.97577 18.6553 4.58242 20.1225C6.18907 21.5896 8.19472 22.5474 10.3457 22.8746C12.4967 23.2018 14.6965 22.8837 16.6667 21.9607C18.637 21.0376 20.2892 19.551 21.4145 17.6889C22.5398 15.8267 23.0876 13.6727 22.9886 11.4992C22.8559 8.585 21.5716 5.84278 19.4179 3.87511C17.2643 1.90745 14.4175 0.87534 11.5032 1.00562V1.0109ZM12.7905 11.6838C14.7478 13.4881 15.8188 14.4589 15.8188 14.4589C19.2639 17.3289 18.0874 19.951 16.7685 20.8637C15.7084 21.5706 14.4656 21.9538 13.1915 21.9663C13.1474 21.973 13.1024 21.9707 13.0592 21.9596C13.016 21.9485 12.9755 21.9289 12.94 21.9018C12.9046 21.8747 12.8749 21.8408 12.8529 21.802C12.8308 21.7632 12.8168 21.7204 12.8116 21.6761C12.8116 21.4282 13.1651 21.3649 13.1651 21.3649C16.4203 20.7265 15.4653 18.5898 14.3152 17.503C13.8351 17.044 9.30323 13.1346 9.30323 13.1346C4.98765 9.4416 5.33057 6.51354 5.33057 6.51354C5.53633 2.94183 8.66486 2.0555 11.0337 2.26126C11.308 2.28764 11.461 2.45647 11.4135 2.68333C11.3661 2.91019 10.9968 2.95767 10.9968 2.95767C10.3201 2.94009 9.65074 3.10017 9.05527 3.42194C7.15072 4.70395 7.71522 6.88811 10.2581 9.31497C10.5747 9.62097 10.9176 9.94281 11.2658 10.2699C11.2658 10.2699 11.7776 10.7183 12.7905 11.6838ZM11.3133 20.9164C11.3133 21.2699 10.485 21.4176 9.51954 21.3227C8.07591 21.22 6.70102 20.6663 5.58908 19.7399C4.51904 18.7765 3.74506 17.5286 3.35744 16.1418C2.99868 14.8968 2.82986 13.4459 3.44185 13.5567C3.62123 13.5936 3.93777 14.3956 4.27542 14.9759C4.50137 15.4108 4.81164 15.7964 5.18813 16.1102C5.30948 16.1999 5.7157 15.2766 6.32769 14.7543C6.67589 14.4641 7.06103 14.3639 7.12433 15.2291C7.1982 16.2843 7.00828 17.5505 7.31427 17.5505C7.62027 17.5505 8.25864 17.3289 9.68837 17.2076C10.216 17.1653 10.5325 17.2656 10.0207 17.9884C9.64672 18.5578 9.16886 19.0518 8.61211 19.4445C9.83081 20.5735 11.2869 20.4363 11.3133 20.9164ZM12.2735 9.83729C12.1761 9.38465 12.1618 8.91806 12.2313 8.4603C12.3755 7.52433 12.6601 6.61547 13.0754 5.76438C13.603 4.51402 12.3685 3.78069 12.5478 3.3217C12.8222 2.69915 13.6874 3.49052 14.6581 3.54855C15.4864 3.59603 15.9877 3.54856 16.6313 3.63825C17.486 3.75431 18.5095 4.0392 18.9632 4.57733C19.4169 5.11546 18.7469 5.66415 17.9766 5.28957C17.4174 5.01523 16.7104 5.18405 17.1219 5.76967C17.4316 6.15818 17.8798 6.41158 18.3723 6.47662C19.7704 6.84592 19.802 8.18597 18.8524 8.88237C17.7709 9.66846 16.6841 9.34664 16.2462 7.79556C16.0246 7.02002 15.4759 6.62961 14.9167 6.84591C14.3574 7.06222 14.6898 8.08572 15.1171 9.02481C15.9613 11.1879 13.8562 11.1351 13.6136 11.0876C13.2961 11.0223 13.0029 10.8705 12.7664 10.6489C12.5299 10.4273 12.3593 10.1445 12.2735 9.83201V9.83729Z" fill="url(#paint1_radial_2210_3172)"/>
</g>
<defs>
<radialGradient id="paint0_radial_2210_3172" cx="0" cy="0" r="1" gradientUnits="userSpaceOnUse" gradientTransform="translate(13.694 8.44694) scale(10.3109 10.3109)">
<stop stop-color="white"/>
<stop offset="1" stop-color="#CF9C51"/>
</radialGradient>
<radialGradient id="paint1_radial_2210_3172" cx="0" cy="0" r="1" gradientUnits="userSpaceOnUse" gradientTransform="translate(11.1409 5.30813) scale(23.0965 23.0965)">
<stop stop-color="#00C0F3"/>
<stop offset="0.22" stop-color="#0097D6"/>
<stop offset="0.28" stop-color="#0086CA"/>
<stop offset="0.37" stop-color="#0074BD"/>
<stop offset="0.46" stop-color="#0069B5"/>
<stop offset="0.57" stop-color="#0066B3"/>
</radialGradient>
<clipPath id="clip0_2210_3172">
<rect width="22" height="22" fill="white" transform="translate(1 1)"/>
</clipPath>
</defs>
</svg>
