<svg width="24" height="24" viewBox="0 0 24 24" fill="none" xmlns="http://www.w3.org/2000/svg">
<g clip-path="url(#clip0_2210_3276)">
<path d="M5.80968 15.7508C5.65045 16.6254 6.09795 16.9069 6.87523 16.9069C7.42612 16.9069 8.04417 16.6979 8.16868 16.1462C8.31961 15.4912 7.34235 15.3659 6.39754 15.0625C5.45273 14.7592 4.52 14.2823 4.8294 12.9179C5.19767 11.2939 6.88504 10.6577 8.20264 10.6577C9.59948 10.6577 10.8439 11.3769 10.4726 13.0545H8.6441C8.82673 12.3753 8.27584 12.1579 7.7159 12.1579C7.32198 12.1579 6.7975 12.3028 6.68732 12.7933C6.55677 13.3661 7.5461 13.4725 8.49846 13.7744C9.45081 14.0762 10.3519 14.5751 10.0485 15.9183C9.62061 17.8049 7.96946 18.4086 6.42622 18.4086C4.8128 18.4086 3.55859 17.6593 3.97817 15.7538L5.80968 15.7508Z" fill="#005EA1"/>
<path d="M18.464 10.814H20.2925L18.6073 18.2494H16.7773L18.464 10.814Z" fill="#005EA1"/>
<path d="M11.7984 10.8143H15.0818C16.296 10.794 17.548 11.126 17.1948 12.6783C17.0439 13.3446 16.5473 13.8857 15.9308 14.1778C16.6266 14.4042 16.933 15.0947 16.742 15.9376C16.3421 17.7087 14.9905 18.2521 13.4858 18.2521H10.1133L11.7984 10.8143ZM12.9636 13.7408H14.3793C14.6939 13.7408 15.1663 13.5627 15.2848 13.0322C15.4033 12.5017 15.0848 12.3131 14.7015 12.3131H13.2865L12.9636 13.7408ZM12.2927 16.6975H13.7589C14.3385 16.6975 14.7905 16.4779 14.9309 15.8674C15.0818 15.2109 14.6962 14.992 14.1453 14.992H12.6798L12.2927 16.6975Z" fill="#005EA1"/>
<path d="M22.8476 7.82893C21.8363 5.14392 16.0513 4.83754 9.92814 7.14372C5.56104 8.78883 2.20214 11.3191 1 13.6102C2.66021 11.8746 5.34521 10.1691 8.58337 8.94806C14.7073 6.64113 20.4916 6.94827 21.5028 9.63403C21.7941 10.4038 21.659 11.2859 21.1753 12.2081C22.6559 10.6626 23.3237 9.09371 22.8476 7.8312" fill="#EE303C"/>
</g>
<defs>
<clipPath id="clip0_2210_3276">
<rect width="22" height="12.8108" fill="white" transform="translate(1 5.59473)"/>
</clipPath>
</defs>
</svg>
