<svg width="24" height="24" viewBox="0 0 24 24" fill="none" xmlns="http://www.w3.org/2000/svg">
<path d="M22.6199 12.212L22.4311 12.0816C22.0621 11.7186 21.6238 11.4477 21.1473 11.288C20.6709 11.1283 20.1678 11.0837 19.6736 11.1573C18.8133 11.2342 17.9844 11.5421 17.2621 12.0532V12.0079C17.2689 11.6514 17.2934 11.2955 17.3355 10.9419C17.3669 10.5733 17.4036 10.2047 17.4036 9.85315C17.4148 9.51656 17.363 9.18098 17.2516 8.86648C17.2383 8.82928 17.2143 8.79766 17.1832 8.77624C17.152 8.75482 17.1154 8.74471 17.0786 8.74741C16.6852 8.78742 16.3053 8.92312 15.9672 9.14435L15.8833 9.33714C15.8819 9.87677 15.8274 10.4147 15.7208 10.9419C15.7092 10.988 15.6952 11.0335 15.6789 11.0779C15.5479 12.4352 15.5479 13.8034 15.6789 15.1606C15.6789 15.274 15.9043 15.4498 16.0616 15.5179C16.4218 15.5274 16.7796 15.452 17.11 15.2967H17.2306C17.2547 15.2933 17.2778 15.2846 17.2986 15.2712C17.3195 15.2578 17.3376 15.24 17.3518 15.2187C17.366 15.1975 17.3761 15.1734 17.3814 15.1478C17.3867 15.1222 17.3871 15.0957 17.3827 15.0699V14.7354C17.5261 14.1533 17.8115 13.6236 18.209 13.2017C18.6065 12.7797 19.1014 12.481 19.6421 12.3368C19.9124 12.2735 20.1933 12.2884 20.4565 12.38C20.7198 12.4716 20.956 12.6366 21.1415 12.8585C21.2615 13.4222 21.1731 14.0143 20.8951 14.5085C20.5035 15.202 19.8954 15.7209 19.1808 15.9715C18.3411 16.2951 17.4492 16.4302 16.5596 16.3684C16.5124 16.3401 15.5897 15.6653 15.5897 15.6653C14.7369 14.9607 13.8115 14.3652 12.8322 13.8905C12.6071 13.7547 12.3962 13.5931 12.2031 13.4085L12.114 13.3234C11.5897 12.8585 10.5675 12.1326 9.75489 11.5486L9.31977 11.2254V11.129C9.31977 11.1006 9.84401 10.7717 9.84401 10.7717C10.2427 10.5588 10.6159 10.2941 10.9554 9.98356L11.055 9.92119L12.827 8.83246C14.5255 7.82313 16.4547 6.67772 17.4665 5.54364L17.5137 5.36785V5.21474C17.5738 5.0061 17.5738 4.78264 17.5137 4.574C17.5071 4.53757 17.4906 4.50409 17.4663 4.47784C17.442 4.45159 17.4111 4.43374 17.3774 4.42657C16.5858 4.34151 15.5688 4.85185 14.6409 5.79313C14.4692 5.96402 14.277 6.10897 14.0694 6.22407L13.9279 6.30347C12.8794 6.93288 10.5989 8.48091 9.39316 9.32013C9.50714 7.61897 9.71193 5.92637 10.0065 4.25078L9.97507 4.05232L9.84926 3.80282L9.75489 3.62136C9.57336 3.5256 9.36419 3.51135 9.17298 3.58168L8.93183 3.67807L8.61204 3.80282C8.58156 3.80983 8.55317 3.82488 8.52939 3.84665C8.5056 3.86842 8.48717 3.89622 8.47573 3.92757C7.82269 5.84478 7.42894 7.85392 7.30667 9.89283C6.42281 9.29297 5.50926 8.74591 4.57011 8.25409H4.5072C4.27761 8.19217 4.06071 8.08448 3.86762 7.93655L3.4325 7.63034L2.76146 7.16536L2.58322 7.12001C2.19228 7.25369 1.84485 7.50553 1.58191 7.84582C1.5619 7.88182 1.55105 7.92289 1.55046 7.96489C1.55537 8.02264 1.56591 8.07967 1.58191 8.13502L1.61337 8.28243L1.64482 8.37316C2.23938 8.91249 2.89252 9.3714 3.58977 9.73973L4.5072 10.2671L5.91742 11.095L6.15857 11.3048L6.32109 11.4068H6.35254C5.97508 11.6733 3.79423 13.2554 3.79423 13.2554L2.4207 14.2761C2.16898 14.4253 1.90997 14.5597 1.64482 14.6786C1.38983 14.7752 1.17449 14.966 1.0367 15.2173L1 15.3024L1.0367 15.3591L1.14155 15.4442L1.27785 15.5406L1.42988 15.6483L1.56619 15.6766C2.00258 15.6126 2.42402 15.4607 2.80865 15.2287C3.41153 14.9395 5.04717 13.8735 5.74966 13.4198L6.04848 13.2214C6.19068 13.2006 6.32297 13.131 6.42594 13.0229C6.62372 12.8648 6.83426 12.7262 7.05503 12.609C7.05503 12.609 7.17036 12.5409 7.26997 12.4842V12.5749C7.25773 14.3491 7.38753 16.1211 7.65791 17.8711V17.9278C7.81987 18.3165 7.94119 18.7235 8.01964 19.1413L8.28176 20.1052L8.3604 20.196C8.63886 20.3764 8.95852 20.4687 9.28307 20.4625H9.36171L9.40889 20.3434C9.43481 20.1977 9.4471 20.0495 9.44559 19.9011C9.44559 19.7253 9.44559 19.5325 9.44559 19.2944V18.9485C9.34598 17.3324 9.25162 14.9792 9.25162 13.4482V13.3234L10.6147 14.2534C12.5019 15.5746 15.3329 17.5819 17.0786 18.1093C17.1219 18.1232 17.1679 18.1248 17.212 18.1139C17.2561 18.103 17.2968 18.0799 17.3302 18.0469L17.5976 17.8654H17.6448C17.7037 17.8138 17.7506 17.7479 17.7815 17.673C17.8125 17.5981 17.8267 17.5164 17.823 17.4345C19.2752 17.3608 21.304 16.754 22.3892 15.2797C22.7768 14.7454 22.9906 14.0876 22.9973 13.4085C23.0205 12.9945 22.8925 12.5873 22.6408 12.2744" fill="#FCAF17"/>
</svg>
