<svg width="24" height="24" viewBox="0 0 24 24" fill="none" xmlns="http://www.w3.org/2000/svg">
<g clip-path="url(#clip0_2210_3341)">
<path d="M20.8985 13.7128C19.929 16.1272 18.2977 16.8123 18.2977 16.8123C23.0938 11.9556 20.1621 6.35301 20.1621 6.35301C19.4536 5.0992 20.3532 4.55387 20.3532 4.55387C18.293 5.06658 18.9549 6.77251 18.9549 6.77251C19.7642 8.56336 19.9289 10.5791 19.421 12.4776L18.7451 12.1001C18.7451 12.1001 20.3532 5.76572 13.7951 3.54242V2.3492H12.3968V10.203L18.8337 13.8712C18.7125 14.1089 18.5913 14.3373 18.4608 14.5424L11.996 10.8136L5.50782 14.5424C5.37232 14.3251 5.24788 14.1011 5.13495 13.8712L11.5718 10.203V2.33057H10.1735V3.52379C3.61546 5.74709 5.2235 12.0814 5.2235 12.0814L4.543 12.4589C4.03774 10.5602 4.20235 8.54539 5.0091 6.75387C5.0091 6.75387 5.65232 5.04793 3.61079 4.53522C3.61079 4.53522 4.51037 5.08056 3.8019 6.33438C3.8019 6.33438 0.874778 11.9276 5.6663 16.7937C5.6663 16.7937 4.03961 16.1085 3.06546 13.6941C2.87012 13.328 2.55821 13.0375 2.17913 12.8686C1.80006 12.6998 1.37549 12.6622 0.972656 12.7619C1.20829 12.9116 1.41198 13.1065 1.57197 13.3353C1.73196 13.5641 1.84509 13.8223 1.90486 14.095C1.90486 14.095 3.30317 18.5229 8.668 19.1988V21.6412H11.3108V18.0382C9.42078 17.9146 7.6519 17.0644 6.37477 15.6657L7.03664 15.2789C8.39795 16.5021 10.136 17.2239 11.9633 17.325H12.0146C13.8413 17.2213 15.5786 16.4998 16.9413 15.2789L17.6032 15.6657C16.326 17.0644 14.5572 17.9146 12.6671 18.0382V21.6412H15.3053V19.1988C20.6794 18.5229 22.0731 14.095 22.0731 14.095C22.1328 13.8223 22.246 13.5641 22.406 13.3353C22.566 13.1065 22.7696 12.9116 23.0053 12.7619C22.5984 12.6662 22.1713 12.7075 21.7904 12.8794C21.4094 13.0514 21.0959 13.3443 20.8985 13.7128ZM17.4633 11.3823L13.8277 9.35937V5.0153C13.8277 5.0153 18.2044 6.19455 17.4633 11.3729V11.3823ZM10.1502 5.00132V9.34539L6.51927 11.3823C5.79215 6.19454 10.1502 5.00132 10.1502 5.00132ZM12.0146 12.4217L15.6316 14.5424H15.5989C14.6052 15.419 13.3257 15.9027 12.0006 15.9027C10.6755 15.9027 9.39603 15.419 8.40232 14.5424H8.36969L12.0146 12.4217Z" fill="#0056A7"/>
</g>
<defs>
<clipPath id="clip0_2210_3341">
<rect width="22" height="19.3386" fill="white" transform="translate(1 2.33057)"/>
</clipPath>
</defs>
</svg>
