<svg width="24" height="24" viewBox="0 0 24 24" fill="none" xmlns="http://www.w3.org/2000/svg">
<g clip-path="url(#clip0_2210_3267)">
<path d="M7.70882 16.3552L7.66662 16.3944C7.39752 16.6951 7.07016 16.938 6.70438 17.1085C6.3386 17.2789 5.94201 17.3733 5.53866 17.386C3.95927 17.386 2.81089 16.1984 2.81089 14.5618C2.81089 12.9251 3.95927 11.7406 5.53866 11.7406C5.94201 11.7532 6.3386 11.8476 6.70438 12.0181C7.07016 12.1885 7.39752 12.4315 7.66662 12.7322L7.70882 12.7744L8.72458 11.5416L8.69745 11.5115C8.32905 11.041 7.85687 10.6621 7.31781 10.4044C6.77874 10.1466 6.18737 10.0169 5.5899 10.0255C4.40542 9.99966 3.25477 10.4216 2.36781 11.2071C1.49095 12.1042 1 13.3088 1 14.5633C1 15.8177 1.49095 17.0224 2.36781 17.9195C3.25399 18.7063 4.40517 19.1284 5.5899 19.101C6.18704 19.1095 6.7781 18.9801 7.31708 18.7229C7.85606 18.4657 8.32843 18.0876 8.69745 17.6181L8.72458 17.5849L7.70882 16.3552Z" fill="#004785"/>
<path d="M11.5503 10.1582H9.75391V18.9263H11.5503V10.1582Z" fill="#004785"/>
<path d="M18.5839 17.0154C18.1909 17.2815 17.7319 17.4338 17.2577 17.4554C16.676 17.4554 16.4168 17.154 16.4168 16.4668V11.816H18.2464V10.1643H16.4168V7.43652L14.6535 8.37694V10.1643H13.1465V11.816H14.6535V16.7652C14.6535 18.1125 15.4523 19.0318 16.6459 19.0559C17.2055 19.0851 17.761 18.9454 18.2403 18.6551H18.2584L18.7045 16.9581L18.5839 17.0154Z" fill="#004785"/>
<path d="M21.8667 10.1582H20.0703V18.9263H21.8667V10.1582Z" fill="#004785"/>
<path d="M22.9246 8.61838C22.1205 7.47229 21.0523 6.53671 19.8102 5.89082C18.5681 5.24492 17.1887 4.90771 15.7887 4.90771C14.3887 4.90771 13.0093 5.24492 11.7672 5.89082C10.5251 6.53671 9.45679 7.47229 8.65275 8.61838L8.56836 8.73592H10.633L10.6571 8.71182C11.3158 8.01139 12.1109 7.4532 12.9934 7.07166C13.8759 6.69012 14.8272 6.49329 15.7887 6.49329C16.7501 6.49329 17.7014 6.69012 18.5839 7.07166C19.4665 7.4532 20.2615 8.01139 20.9202 8.71182L20.9443 8.73592H23.009L22.9246 8.61838Z" fill="#ED1C2E"/>
</g>
<defs>
<clipPath id="clip0_2210_3267">
<rect width="22" height="14.1844" fill="white" transform="translate(1 4.90771)"/>
</clipPath>
</defs>
</svg>
