<svg width="45" height="44" viewBox="0 0 45 44" fill="none" xmlns="http://www.w3.org/2000/svg">
<rect x="0.5" width="44" height="44" rx="22" fill="#C5EBAA"/>
<path d="M26.7 31H17.4314C16.8256 31 16.5226 31 16.3824 30.8802C16.2607 30.7763 16.1961 30.6203 16.2086 30.4608C16.2231 30.2769 16.4373 30.0627 16.8657 29.6343L25.3686 21.1314C25.7646 20.7354 25.9627 20.5373 26.191 20.4632C26.3918 20.3979 26.6082 20.3979 26.809 20.4632C27.0373 20.5373 27.2354 20.7354 27.6314 21.1314L31.5 25V26.2M26.7 31C28.3802 31 29.2202 31 29.862 30.673C30.4265 30.3854 30.8854 29.9265 31.173 29.362C31.5 28.7202 31.5 27.8802 31.5 26.2M26.7 31H18.3C16.6198 31 15.7798 31 15.138 30.673C14.5735 30.3854 14.1146 29.9265 13.827 29.362C13.5 28.7202 13.5 27.8802 13.5 26.2V17.8C13.5 16.1198 13.5 15.2798 13.827 14.638C14.1146 14.0735 14.5735 13.6146 15.138 13.327C15.7798 13 16.6198 13 18.3 13H26.7C28.3802 13 29.2202 13 29.862 13.327C30.4265 13.6146 30.8854 14.0735 31.173 14.638C31.5 15.2798 31.5 16.1198 31.5 17.8V26.2M21 18.5C21 19.6046 20.1046 20.5 19 20.5C17.8954 20.5 17 19.6046 17 18.5C17 17.3954 17.8954 16.5 19 16.5C20.1046 16.5 21 17.3954 21 18.5Z" stroke="white" stroke-width="2" stroke-linecap="round" stroke-linejoin="round"/>
</svg>
