<svg width="61" height="9" viewBox="0 0 61 9" fill="none" xmlns="http://www.w3.org/2000/svg">
<path d="M5.93211 2.348C5.98011 2.292 6.04811 2.268 6.13611 2.276C6.22411 2.284 6.29611 2.324 6.35211 2.396C6.41611 2.468 6.48411 2.848 6.55611 3.536C6.63611 4.216 6.65211 4.596 6.60411 4.676C6.58811 4.7 6.63211 4.72 6.73611 4.736C7.08811 4.776 7.47611 4.74 7.90011 4.628C8.10011 4.572 8.23211 4.548 8.29611 4.556C8.36811 4.556 8.42011 4.588 8.45211 4.652C8.51611 4.732 8.54811 4.804 8.54811 4.868C8.54811 5.068 8.22811 5.224 7.58811 5.336C7.54011 5.344 7.46811 5.356 7.37211 5.372C6.98011 5.436 6.75611 5.5 6.70011 5.564C6.64411 5.628 6.63211 5.828 6.66411 6.164C6.67211 6.244 6.68011 6.308 6.68811 6.356C6.72811 6.892 6.73611 7.192 6.71211 7.256C6.64811 7.336 6.55211 7.36 6.42411 7.328C6.30411 7.288 6.22011 7.208 6.17211 7.088C6.12411 6.952 6.06011 6.144 5.98011 4.664C5.90811 3.176 5.89211 2.404 5.93211 2.348ZM3.44811 2.732C3.65611 2.684 3.82011 2.672 3.94011 2.696C4.06811 2.712 4.14411 2.764 4.16811 2.852C4.19211 2.932 4.17211 3.048 4.10811 3.2C4.06011 3.296 4.01211 3.356 3.96411 3.38C3.91611 3.396 3.82811 3.396 3.70011 3.38C3.48411 3.34 3.15611 3.368 2.71611 3.464C2.28411 3.552 2.05611 3.636 2.03211 3.716C2.01611 3.764 2.03611 3.96 2.09211 4.304C2.15611 4.64 2.22811 4.996 2.30811 5.372C2.39611 5.74 2.46411 5.976 2.51211 6.08L2.62011 6.308L3.44811 5.888C4.48811 5.344 5.06811 5.164 5.18811 5.348C5.24411 5.452 5.27211 5.524 5.27211 5.564C5.27211 5.604 4.83611 5.844 3.96411 6.284C3.10011 6.716 2.63211 6.932 2.56011 6.932C2.48011 6.916 2.35611 6.84 2.18811 6.704C2.06811 6.616 1.97611 6.5 1.91211 6.356C1.85611 6.212 1.79211 5.956 1.72011 5.588C1.57611 4.884 1.48811 4.432 1.45611 4.232L1.39611 3.764L1.06011 3.824C0.916109 3.848 0.820109 3.852 0.772109 3.836C0.732109 3.82 0.712109 3.768 0.712109 3.68C0.712109 3.632 0.732109 3.576 0.772109 3.512C0.820109 3.448 0.876109 3.404 0.940109 3.38C1.14011 3.276 1.97611 3.06 3.44811 2.732ZM11.8376 0.271999C12.0056 0.208 12.2176 0.196 12.4736 0.236C12.7296 0.276 12.9256 0.36 13.0616 0.487999C13.2136 0.624 13.2896 0.82 13.2896 1.076C13.2976 1.324 13.2496 1.564 13.1456 1.796C13.0416 2.028 12.8936 2.232 12.7016 2.408C12.5176 2.576 12.3176 2.66 12.1016 2.66C11.7496 2.66 11.4936 2.54 11.3336 2.3C11.1736 2.06 11.1336 1.74 11.2136 1.34C11.3416 0.756 11.5496 0.4 11.8376 0.271999ZM12.6896 0.896C12.5536 0.76 12.4136 0.724 12.2696 0.788C12.1256 0.852 11.9896 1.012 11.8616 1.268C11.7576 1.452 11.7296 1.632 11.7776 1.808C11.8336 1.984 11.9376 2.072 12.0896 2.072C12.2016 2.072 12.3096 2.024 12.4136 1.928C12.5256 1.832 12.6096 1.724 12.6656 1.604C12.7296 1.476 12.7656 1.348 12.7736 1.22C12.7896 1.084 12.7616 0.976 12.6896 0.896ZM14.5016 4.412C15.0776 4.34 15.4496 4.316 15.6176 4.34C15.7936 4.364 15.8816 4.452 15.8816 4.604C15.8816 4.948 15.5896 5.076 15.0056 4.988C14.7576 4.956 14.0016 4.988 12.7376 5.084C11.4736 5.172 10.5776 5.26 10.0496 5.348C9.68161 5.412 9.43361 5.432 9.30561 5.408C9.17761 5.376 9.12961 5.284 9.16161 5.132C9.17761 4.98 9.30961 4.88 9.55761 4.832C9.80561 4.784 10.5016 4.724 11.6456 4.652C12.9096 4.58 13.8616 4.5 14.5016 4.412ZM12.7016 6.14C13.0856 6.012 13.4296 5.948 13.7336 5.948C14.0376 5.948 14.2216 6.004 14.2856 6.116C14.3576 6.276 14.3936 6.692 14.3936 7.364V8.42H14.1416C13.9976 8.42 13.7256 8.484 13.3256 8.612C12.9256 8.74 12.6256 8.824 12.4256 8.864C12.2816 8.896 12.1816 8.896 12.1256 8.864C12.0776 8.832 12.0136 8.728 11.9336 8.552C11.8376 8.304 11.7536 7.944 11.6816 7.472C11.6176 6.992 11.6056 6.664 11.6456 6.488C11.6776 6.376 11.7136 6.308 11.7536 6.284C11.7936 6.252 11.8536 6.248 11.9336 6.272C12.0936 6.32 12.3496 6.276 12.7016 6.14ZM13.6976 6.632H13.2176C12.8976 6.64 12.6616 6.708 12.5096 6.836C12.4056 6.916 12.3416 7 12.3176 7.088C12.3016 7.176 12.3056 7.336 12.3296 7.568C12.3696 7.952 12.4056 8.156 12.4376 8.18C12.4776 8.22 12.7056 8.176 13.1216 8.048C13.4656 7.952 13.6696 7.852 13.7336 7.748C13.7976 7.644 13.8016 7.42 13.7456 7.076L13.6976 6.632ZM23.1815 2.264C23.2135 2.208 23.2935 2.176 23.4215 2.168C23.5575 2.16 23.6415 2.184 23.6735 2.24C23.7055 2.296 23.7335 3.136 23.7575 4.76C23.7655 5.936 23.7615 6.632 23.7455 6.848C23.7375 7.064 23.6855 7.172 23.5895 7.172C23.5255 7.172 23.4695 7.16 23.4215 7.136C23.3815 7.112 23.3415 7.064 23.3015 6.992C23.2615 6.912 23.2335 6.816 23.2175 6.704C23.2015 6.584 23.1855 6.42 23.1695 6.212C23.1615 5.996 23.1535 5.76 23.1455 5.504C23.1455 5.248 23.1415 4.92 23.1335 4.52C23.1255 3.08 23.1415 2.328 23.1815 2.264ZM21.2615 2.888C21.3335 2.816 21.4095 2.78 21.4895 2.78C21.5775 2.772 21.6535 2.804 21.7175 2.876C21.7895 2.956 21.8575 3.58 21.9215 4.748C21.9935 5.844 21.9895 6.44 21.9095 6.536C21.8535 6.592 21.7615 6.588 21.6335 6.524C21.3775 6.388 21.2495 5.864 21.2495 4.952V4.232L20.9855 4.292C20.7935 4.34 20.5215 4.484 20.1695 4.724C19.9135 4.9 19.7535 4.996 19.6895 5.012C19.6255 5.02 19.5615 4.984 19.4975 4.904C19.3535 4.696 19.3215 4.528 19.4015 4.4C19.4895 4.272 19.7095 4.144 20.0615 4.016C20.0695 4.016 20.0815 4.012 20.0975 4.004C20.6895 3.788 21.0295 3.652 21.1175 3.596C21.2135 3.532 21.2455 3.436 21.2135 3.308C21.2135 3.3 21.2135 3.296 21.2135 3.296C21.1655 3.12 21.1815 2.984 21.2615 2.888ZM17.0015 3.308C17.0895 3.196 17.1655 3.128 17.2295 3.104C17.3015 3.08 17.4295 3.08 17.6135 3.104C17.9415 3.16 18.1815 3.236 18.3335 3.332C18.4855 3.428 18.6095 3.588 18.7055 3.812C18.9295 4.268 19.0015 4.72 18.9215 5.168C18.8415 5.608 18.6295 5.944 18.2855 6.176C17.9735 6.384 17.7175 6.488 17.5175 6.488C17.3175 6.488 17.1175 6.388 16.9175 6.188C16.8295 6.108 16.7335 5.944 16.6295 5.696C16.5335 5.44 16.4855 5.252 16.4855 5.132C16.4855 4.908 16.5455 4.58 16.6655 4.148C16.7935 3.708 16.9055 3.428 17.0015 3.308ZM18.0215 3.812C17.9335 3.78 17.8615 3.768 17.8055 3.776C17.7495 3.776 17.6495 3.804 17.5055 3.86C17.3615 3.908 17.2535 4.116 17.1815 4.484C17.1175 4.796 17.0975 5.052 17.1215 5.252C17.1535 5.444 17.2415 5.612 17.3855 5.756C17.4815 5.836 17.5495 5.88 17.5895 5.888C17.6375 5.896 17.7095 5.868 17.8055 5.804C17.9655 5.7 18.1135 5.536 18.2495 5.312C18.3935 5.08 18.4655 4.884 18.4655 4.724C18.4655 4.548 18.4175 4.364 18.3215 4.172C18.2335 3.98 18.1335 3.86 18.0215 3.812ZM31.6182 1.856C32.4742 1.568 32.9422 1.52 33.0222 1.712C33.0542 1.808 33.0502 1.896 33.0102 1.976C32.9702 2.056 32.8982 2.124 32.7942 2.18C32.6982 2.236 32.5702 2.272 32.4102 2.288C32.1782 2.312 32.0022 2.36 31.8822 2.432C31.7702 2.496 31.6902 2.596 31.6422 2.732C31.5942 2.868 31.5702 3.06 31.5702 3.308C31.5702 3.732 31.6022 3.964 31.6662 4.004C31.7382 4.044 31.9742 3.976 32.3742 3.8C32.6782 3.664 32.9022 3.6 33.0462 3.608C33.1902 3.608 33.2862 3.684 33.3342 3.836C33.3582 3.908 33.1542 4.044 32.7222 4.244C32.2982 4.436 31.9422 4.552 31.6542 4.592C31.3342 4.64 31.1302 4.604 31.0422 4.484C30.9622 4.356 30.9302 4.056 30.9462 3.584C30.9702 3.08 30.9462 2.788 30.8742 2.708C30.7942 2.62 30.7662 2.504 30.7902 2.36C30.7982 2.264 30.8542 2.184 30.9582 2.12C31.0702 2.048 31.2902 1.96 31.6182 1.856ZM29.6622 1.808C29.6942 1.776 29.8262 1.76 30.0582 1.76C30.2022 1.76 30.2902 1.78 30.3222 1.82C30.3542 1.852 30.3702 1.932 30.3702 2.06C30.3702 2.212 30.3262 2.316 30.2382 2.372C30.1582 2.428 30.0062 2.456 29.7822 2.456C29.3742 2.456 29.1062 2.592 28.9782 2.864C28.8502 3.136 28.8582 3.552 29.0022 4.112C29.0742 4.368 29.1622 4.508 29.2662 4.532C29.3782 4.556 29.6342 4.48 30.0342 4.304C30.2982 4.184 30.4582 4.124 30.5142 4.124C30.5782 4.116 30.6342 4.16 30.6822 4.256C30.7462 4.384 30.7782 4.464 30.7782 4.496C30.7782 4.544 30.5022 4.7 29.9502 4.964C29.3982 5.22 29.0702 5.348 28.9662 5.348C28.7982 5.348 28.6422 5.144 28.4982 4.736C28.3622 4.328 28.2942 3.868 28.2942 3.356C28.2942 3.02 28.2462 2.852 28.1502 2.852C28.0702 2.852 28.0102 2.788 27.9702 2.66C27.9382 2.524 27.9622 2.428 28.0422 2.372C28.1142 2.308 28.3902 2.212 28.8702 2.084C29.3582 1.948 29.6222 1.856 29.6622 1.808ZM31.6542 5.084C31.8622 4.924 31.9862 4.924 32.0262 5.084C32.0662 5.26 32.0502 5.756 31.9782 6.572L31.9182 7.34L32.3622 7.28C32.6742 7.232 32.9542 7.156 33.2022 7.052C33.3862 6.98 33.5022 6.944 33.5502 6.944C33.6062 6.944 33.6662 6.988 33.7302 7.076C33.8662 7.276 33.8382 7.428 33.6462 7.532C33.5822 7.564 33.0782 7.704 32.1342 7.952C31.1902 8.192 30.4502 8.368 29.9142 8.48C29.7702 8.52 29.6782 8.464 29.6382 8.312C29.5902 8.168 29.6222 8.06 29.7342 7.988C29.8542 7.908 30.1462 7.808 30.6102 7.688L31.3542 7.496L31.3662 6.512C31.3742 5.984 31.3942 5.636 31.4262 5.468C31.4662 5.3 31.5422 5.172 31.6542 5.084ZM43.2689 1.196C43.3009 1.108 43.4049 1.072 43.5809 1.088C43.5889 1.088 43.6049 1.092 43.6289 1.1C43.7489 1.108 43.8129 1.156 43.8209 1.244C43.8369 1.332 43.8209 1.648 43.7729 2.192C43.7649 2.28 43.7609 2.344 43.7609 2.384C43.7129 2.72 43.6969 2.916 43.7129 2.972C43.7369 3.028 43.8089 3.056 43.9289 3.056C44.1049 3.056 44.3569 3.02 44.6849 2.948C45.1969 2.828 45.4449 2.86 45.4289 3.044C45.4289 3.076 45.4209 3.12 45.4049 3.176C45.3569 3.32 45.2409 3.404 45.0569 3.428C44.8729 3.452 44.6249 3.536 44.3129 3.68L43.8569 3.896L43.8089 4.904C43.7849 5.488 43.7449 5.804 43.6889 5.852C43.6649 5.876 43.6089 5.888 43.5209 5.888H43.2569L43.1969 4.256C43.1329 2.576 43.1569 1.556 43.2689 1.196ZM38.1929 1.448C38.3609 1.328 38.4809 1.376 38.5529 1.592C38.6249 1.808 38.6889 2.248 38.7449 2.912C38.8089 3.648 38.8649 4.248 38.9129 4.712C38.9369 4.976 38.9409 5.132 38.9249 5.18C38.9089 5.22 38.8369 5.24 38.7089 5.24C38.5489 5.24 38.4449 5.204 38.3969 5.132C38.3329 5.036 38.2449 4.464 38.1329 3.416C38.0289 2.36 37.9929 1.78 38.0249 1.676C38.0729 1.564 38.1289 1.488 38.1929 1.448ZM40.3409 1.556C40.6929 1.436 40.9289 1.376 41.0489 1.376C41.2089 1.368 41.3129 1.48 41.3609 1.712C41.4169 1.936 41.4289 2.356 41.3969 2.972C41.3649 3.428 41.3569 3.748 41.3729 3.932C41.3889 4.116 41.4249 4.248 41.4809 4.328C41.5849 4.464 41.6129 4.58 41.5649 4.676C41.5409 4.764 41.2369 4.924 40.6529 5.156C40.6449 5.156 40.6409 5.156 40.6409 5.156C40.0169 5.396 39.6409 5.532 39.5129 5.564C39.3929 5.588 39.2849 5.556 39.1889 5.468C39.1329 5.412 39.1009 5.364 39.0929 5.324C39.0929 5.276 39.1209 5.228 39.1769 5.18C39.2409 5.124 39.3329 5.068 39.4529 5.012C39.5809 4.956 39.7489 4.884 39.9569 4.796C40.4529 4.596 40.7089 4.492 40.7249 4.484C40.7569 4.452 40.7849 4.04 40.8089 3.248L40.8449 2.048L40.5209 2.12C40.2809 2.168 40.0249 2.26 39.7529 2.396C39.3769 2.572 39.1809 2.576 39.1649 2.408C39.1569 2.352 39.1809 2.272 39.2369 2.168C39.3009 2.048 39.4089 1.948 39.5609 1.868C39.7209 1.78 39.9809 1.676 40.3409 1.556ZM41.3249 6.44C41.3969 6.296 41.5089 6.236 41.6609 6.26C41.7569 6.268 41.8209 6.316 41.8529 6.404C41.8849 6.484 41.9129 6.696 41.9369 7.04C42.0169 7.896 42.0969 8.324 42.1769 8.324C42.2009 8.324 42.5169 8.22 43.1249 8.012C43.7249 7.812 44.0729 7.728 44.1689 7.76C44.2809 7.808 44.3209 7.896 44.2889 8.024C44.2649 8.152 44.1809 8.248 44.0369 8.312C44.0049 8.32 43.6289 8.456 42.9089 8.72C42.6289 8.816 42.4249 8.884 42.2969 8.924C42.1689 8.964 42.0569 8.988 41.9609 8.996C41.8649 9.004 41.7969 8.988 41.7569 8.948C41.7249 8.916 41.6929 8.864 41.6609 8.792C41.5009 8.464 41.3809 8.032 41.3009 7.496C41.2289 6.952 41.2369 6.6 41.3249 6.44ZM50.2645 2.144L50.5525 2.18C50.6805 2.196 50.7605 2.228 50.7925 2.276C50.8245 2.316 50.8445 2.412 50.8525 2.564C50.8685 2.62 50.8845 2.804 50.9005 3.116C50.9245 3.42 50.9405 3.652 50.9485 3.812L51.0085 4.712L51.4645 4.64C51.4805 4.64 51.5085 4.636 51.5485 4.628C52.2125 4.516 52.6005 4.464 52.7125 4.472C52.8245 4.472 52.8805 4.536 52.8805 4.664C52.8805 4.672 52.8805 4.676 52.8805 4.676C52.8805 4.764 52.8485 4.84 52.7845 4.904C52.7205 4.96 52.6165 5.012 52.4725 5.06C52.3365 5.1 52.1285 5.144 51.8485 5.192C51.6965 5.216 51.5805 5.236 51.5005 5.252C51.4285 5.268 51.3525 5.296 51.2725 5.336C51.2005 5.368 51.1525 5.404 51.1285 5.444C51.1125 5.476 51.0925 5.54 51.0685 5.636C51.0525 5.724 51.0445 5.812 51.0445 5.9C51.0445 5.98 51.0525 6.112 51.0685 6.296C51.0925 6.656 51.0925 6.888 51.0685 6.992C51.0525 7.096 51.0085 7.16 50.9365 7.184C50.8325 7.232 50.7525 7.232 50.6965 7.184C50.6405 7.136 50.5885 6.976 50.5405 6.704C50.5005 6.432 50.4645 6.08 50.4325 5.648C50.4005 5.208 50.3685 4.548 50.3365 3.668L50.2645 2.144ZM46.1245 2.444C46.3245 2.332 46.4565 2.38 46.5205 2.588C46.5845 2.764 46.6325 3.088 46.6645 3.56C46.6885 4.016 46.7405 4.472 46.8205 4.928C46.9085 5.384 46.9885 5.648 47.0605 5.72C47.1005 5.76 47.2765 5.7 47.5885 5.54C48.9965 4.86 49.7005 4.688 49.7005 5.024C49.7005 5.096 49.6005 5.188 49.4005 5.3C49.2085 5.412 48.8685 5.584 48.3805 5.816C47.7005 6.128 47.2445 6.316 47.0125 6.38C46.7805 6.444 46.6205 6.416 46.5325 6.296C46.4685 6.216 46.3805 5.864 46.2685 5.24C46.1645 4.616 46.0925 4.028 46.0525 3.476C46.0285 3.108 46.0205 2.856 46.0285 2.72C46.0445 2.576 46.0765 2.484 46.1245 2.444ZM55.2576 0.668C55.6176 0.572 55.9136 0.616 56.1456 0.8C56.3856 0.976 56.5056 1.24 56.5056 1.592C56.5056 1.84 56.4416 2.08 56.3136 2.312C56.1936 2.544 56.0656 2.66 55.9296 2.66C55.8096 2.66 55.6416 2.724 55.4256 2.852C55.2256 2.972 55.0496 3.036 54.8976 3.044C54.7536 3.052 54.5896 3 54.4056 2.888C54.2936 2.824 54.2136 2.752 54.1656 2.672C54.1256 2.584 54.0896 2.464 54.0576 2.312C53.9936 1.856 54.0536 1.5 54.2376 1.244C54.4296 0.98 54.7696 0.788 55.2576 0.668ZM55.9176 1.436C55.8056 1.156 55.5176 1.116 55.0536 1.316C54.8936 1.388 54.7776 1.476 54.7056 1.58C54.6416 1.684 54.6096 1.824 54.6096 2C54.6096 2.24 54.6936 2.384 54.8616 2.432C55.0376 2.48 55.2656 2.424 55.5456 2.264C55.7536 2.144 55.8856 2.02 55.9416 1.892C55.9976 1.764 55.9896 1.612 55.9176 1.436ZM56.3736 4.22C56.4056 4.164 56.4896 4.144 56.6256 4.16C56.7376 4.184 56.8016 4.26 56.8176 4.388C56.8336 4.508 56.8336 4.92 56.8176 5.624L56.7936 7.052L57.2376 6.992C57.5176 6.952 57.8096 6.88 58.1136 6.776C58.3536 6.688 58.5256 6.656 58.6296 6.68C58.7336 6.704 58.7856 6.788 58.7856 6.932C58.7856 7.044 58.7136 7.136 58.5696 7.208C58.4256 7.28 58.1336 7.372 57.6936 7.484C56.6376 7.732 55.5816 8.008 54.5256 8.312C54.2376 8.4 54.0016 8.436 53.8176 8.42C53.6336 8.404 53.5256 8.336 53.4936 8.216C53.4616 8.08 53.5136 7.98 53.6496 7.916C53.7936 7.852 54.1456 7.764 54.7056 7.652C54.7936 7.628 54.9136 7.6 55.0656 7.568C55.2976 7.528 55.4576 7.5 55.5456 7.484C55.6336 7.468 55.7336 7.432 55.8456 7.376C55.9656 7.312 56.0376 7.264 56.0616 7.232C56.0856 7.2 56.1136 7.124 56.1456 7.004C56.1856 6.876 56.2096 6.764 56.2176 6.668C56.2256 6.564 56.2336 6.396 56.2416 6.164C56.2416 6.1 56.2416 6.056 56.2416 6.032C56.2416 6 56.2416 5.96 56.2416 5.912C56.2496 5.856 56.2536 5.808 56.2536 5.768C56.3016 4.776 56.3416 4.26 56.3736 4.22ZM54.8376 5.012C54.8856 4.836 54.9936 4.748 55.1616 4.748C55.3056 4.748 55.3896 4.792 55.4136 4.88C55.4456 4.96 55.4416 5.144 55.4016 5.432C55.3456 5.768 55.3176 6.16 55.3176 6.608C55.3016 7.08 55.2696 7.332 55.2216 7.364C55.1736 7.412 55.0856 7.364 54.9576 7.22C54.8776 7.132 54.8256 7.02 54.8016 6.884C54.7776 6.748 54.7656 6.504 54.7656 6.152C54.7656 5.608 54.7896 5.228 54.8376 5.012ZM59.4359 2.108C59.4679 2.044 59.5559 2.012 59.6999 2.012C59.8039 2.012 59.8679 2.02 59.8919 2.036C59.9239 2.052 59.9479 2.084 59.9639 2.132C59.9799 2.252 59.9919 2.84 59.9999 3.896C60.0159 4.992 60.0319 5.608 60.0479 5.744C60.0639 5.816 60.0639 5.872 60.0479 5.912C60.0319 5.944 59.9839 5.992 59.9039 6.056C59.7999 6.152 59.7119 6.188 59.6399 6.164C59.5759 6.132 59.5159 6.044 59.4599 5.9C59.4119 5.74 59.3879 5.088 59.3879 3.944C59.3879 2.792 59.4039 2.18 59.4359 2.108ZM59.8319 8.096C59.9199 8.048 59.9799 8.024 60.0119 8.024C60.0439 8.032 60.0959 8.068 60.1679 8.132C60.3119 8.268 60.3319 8.416 60.2279 8.576C60.1239 8.744 59.9839 8.792 59.8079 8.72C59.7519 8.696 59.7159 8.668 59.6999 8.636C59.6839 8.604 59.6799 8.528 59.6879 8.408C59.6959 8.296 59.7079 8.22 59.7239 8.18C59.7479 8.148 59.7839 8.12 59.8319 8.096Z" fill="black"/>
</svg>
