<svg width="18" height="21" viewBox="0 0 18 21" fill="none" xmlns="http://www.w3.org/2000/svg">
<path d="M3.58333 5.66667C3.58333 2.67512 6.00846 0.25 9 0.25C11.9915 0.25 14.4167 2.67512 14.4167 5.66667C14.4167 8.65821 11.9915 11.0833 9 11.0833C6.00846 11.0833 3.58333 8.65821 3.58333 5.66667ZM9 8.91667C10.7949 8.91667 12.25 7.46159 12.25 5.66667C12.25 3.87174 10.7949 2.41667 9 2.41667C7.20507 2.41667 5.75 3.87174 5.75 5.66667C5.75 7.46159 7.20507 8.91667 9 8.91667Z" fill="#139B59"/>
<path d="M2.87174 14.7051C1.24642 16.3304 0.333332 18.5348 0.333332 20.8333H2.5C2.5 19.1094 3.18482 17.4561 4.4038 16.2371C5.62279 15.0182 7.27609 14.3333 9 14.3333C10.7239 14.3333 12.3772 15.0182 13.5962 16.2371C14.8152 17.4561 15.5 19.1094 15.5 20.8333H17.6667C17.6667 18.5348 16.7536 16.3304 15.1283 14.7051C13.5029 13.0798 11.2985 12.1667 9 12.1667C6.70146 12.1667 4.49705 13.0798 2.87174 14.7051Z" fill="#139B59"/>
</svg>
