<svg width="26" height="26" viewBox="0 0 26 26" fill="none" xmlns="http://www.w3.org/2000/svg">
<path d="M7.58333 8.66667C7.58333 5.67512 10.0085 3.25 13 3.25C15.9915 3.25 18.4167 5.67512 18.4167 8.66667C18.4167 11.6582 15.9915 14.0833 13 14.0833C10.0085 14.0833 7.58333 11.6582 7.58333 8.66667ZM13 11.9167C14.7949 11.9167 16.25 10.4616 16.25 8.66667C16.25 6.87174 14.7949 5.41667 13 5.41667C11.2051 5.41667 9.75 6.87174 9.75 8.66667C9.75 10.4616 11.2051 11.9167 13 11.9167Z" fill="#139B59"/>
<path d="M6.87174 17.7051C5.24643 19.3304 4.33333 21.5348 4.33333 23.8333H6.5C6.5 22.1094 7.18482 20.4561 8.40381 19.2371C9.62279 18.0182 11.2761 17.3333 13 17.3333C14.7239 17.3333 16.3772 18.0182 17.5962 19.2371C18.8152 20.4561 19.5 22.1094 19.5 23.8333H21.6667C21.6667 21.5348 20.7536 19.3304 19.1283 17.7051C17.5029 16.0798 15.2985 15.1667 13 15.1667C10.7015 15.1667 8.49706 16.0798 6.87174 17.7051Z" fill="#139B59"/>
</svg>
