<svg width="10" height="10" viewBox="0 0 10 10" fill="none" xmlns="http://www.w3.org/2000/svg">
<g clipPath="url(#clip0_2457_4074)">
<path d="M3.33398 3.3335V2.16683C3.33398 1.70012 3.33398 1.46676 3.42481 1.2885C3.50471 1.1317 3.63219 1.00422 3.78899 0.924324C3.96725 0.833496 4.20061 0.833496 4.66732 0.833496H7.83398C8.30069 0.833496 8.53405 0.833496 8.71231 0.924324C8.86911 1.00422 8.9966 1.1317 9.07649 1.2885C9.16732 1.46676 9.16732 1.70012 9.16732 2.16683V5.3335C9.16732 5.80021 9.16732 6.03356 9.07649 6.21182C8.9966 6.36862 8.86911 6.49611 8.71231 6.576C8.53405 6.66683 8.30069 6.66683 7.83398 6.66683H6.66732M2.16732 9.16683H5.33398C5.8007 9.16683 6.03405 9.16683 6.21231 9.076C6.36911 8.99611 6.4966 8.86862 6.57649 8.71182C6.66732 8.53356 6.66732 8.30021 6.66732 7.8335V4.66683C6.66732 4.20012 6.66732 3.96676 6.57649 3.7885C6.4966 3.6317 6.36911 3.50422 6.21231 3.42432C6.03405 3.3335 5.8007 3.3335 5.33398 3.3335H2.16732C1.70061 3.3335 1.46725 3.3335 1.28899 3.42432C1.13219 3.50422 1.00471 3.6317 0.924812 3.7885C0.833984 3.96676 0.833984 4.20012 0.833984 4.66683V7.8335C0.833984 8.30021 0.833984 8.53356 0.924812 8.71182C1.00471 8.86862 1.13219 8.99611 1.28899 9.076C1.46725 9.16683 1.70061 9.16683 2.16732 9.16683Z" stroke="#606060" stroke-linecap="round" stroke-linejoin="round"/>
</g>
<defs>
<clipPath id="clip0_2457_4074">
<rect width="10" height="10" fill="white"/>
</clipPath>
</defs>
</svg>
