<svg width="109" height="58" viewBox="0 0 109 58" fill="none" xmlns="http://www.w3.org/2000/svg">
<path fill-rule="evenodd" clip-rule="evenodd" d="M61.3831 33.6267C65.7089 37.9525 65.7089 44.966 61.3831 49.2918L53.5505 57.1243L45.718 49.2918C41.3922 44.966 41.3922 37.9525 45.718 33.6267C50.0438 29.3009 57.0573 29.3009 61.3831 33.6267ZM53.5502 44.6238C55.2981 44.6238 56.7151 43.2068 56.7151 41.459C56.7151 39.7111 55.2981 38.2941 53.5502 38.2941C51.8024 38.2941 50.3854 39.7111 50.3854 41.459C50.3854 43.2068 51.8024 44.6238 53.5502 44.6238Z" fill="#1EDD81"/>
<rect x="0.697754" width="107.604" height="49.3713" rx="24.6857" fill="#1EDD81"/>
<path d="M46.7262 18.1297V20.3847H45.3614V25.1121C46.0141 25.0528 46.657 24.9934 47.28 24.9143L47.4976 26.9912C43.868 27.6341 39.7735 27.6934 36.7768 27.6835L36.4603 25.4286C37.0438 25.4286 37.6669 25.4187 38.3196 25.4088V20.3847H36.935V18.1297H46.7262ZM39.1702 34.5275V28.7912H42.0185V32.2528H51.6712V34.5275H39.1702ZM41.0493 25.3495L42.6317 25.2901V20.3847H41.0493V25.3495ZM48.2295 30.0572V16.6858H51.0778V21.6704H53.4317V24.0044H51.0778V30.0572H48.2295ZM69.9228 18.1495V19.8506C69.9228 22.0363 69.9228 24.5682 69.2503 28.3165L66.4415 28.0791C67.0151 24.8451 67.0646 22.422 67.0547 20.4044H56.3338V18.1495H69.9228ZM54.7316 32.7077V30.4132H58.0745V24.7759H60.903V30.4132H62.6041V24.7759H65.4129V30.4132H71.2876V32.7077H54.7316ZM88.2139 28.1583V34.8242H85.3854V30.3934H75.6733V28.1583H88.2139ZM73.0623 22.1055C73.0425 19.5044 75.1689 17.6154 77.9282 17.6154C79.3722 17.6154 80.6381 18.1495 81.5184 19.0396H85.3854V16.666H88.2139V27.4264H85.3854V25.211H81.5184C80.6381 26.111 79.3722 26.655 77.9282 26.655C75.1689 26.655 73.0425 24.7462 73.0623 22.1055ZM75.7524 22.1055C75.7524 23.4901 76.6524 24.2418 77.9282 24.2418C79.1151 24.2418 80.0447 23.4901 80.0447 22.1055C80.0447 20.7704 79.1151 20.0187 77.9282 20.0286C76.6524 20.0187 75.7524 20.7704 75.7524 22.1055ZM82.6755 22.9561H85.3854V21.3143H82.6854C82.7249 21.5715 82.7546 21.8385 82.7546 22.1055C82.7546 22.4022 82.7249 22.6792 82.6755 22.9561Z" fill="white"/>
<path d="M24.3813 25.3187L17.5242 18.4615V32.1758L24.3813 25.3187Z" fill="white"/>
</svg>
