<svg width="109" height="58" viewBox="0 0 109 58" fill="none" xmlns="http://www.w3.org/2000/svg">
<path fillRule="evenodd" clipRule="evenodd" d="M61.3831 33.6267C65.7089 37.9525 65.7089 44.966 61.3831 49.2918L53.5505 57.1243L45.718 49.2918C41.3922 44.966 41.3922 37.9525 45.718 33.6267C50.0438 29.3009 57.0573 29.3009 61.3831 33.6267ZM53.5502 44.6238C55.2981 44.6238 56.7151 43.2068 56.7151 41.459C56.7151 39.7111 55.2981 38.2941 53.5502 38.2941C51.8024 38.2941 50.3854 39.7111 50.3854 41.459C50.3854 43.2068 51.8024 44.6238 53.5502 44.6238Z" fill="#1EDD81"/>
<rect x="0.697754" width="107.604" height="49.3713" rx="24.6857" fill="#1EDD81"/>
<path d="M24.3813 25.3187L17.5242 18.4615V32.1758L24.3813 25.3187Z" fill="white"/>
</svg>
