<svg width="16" height="17" viewBox="0 0 16 17" fill="none" xmlns="http://www.w3.org/2000/svg">
<g id="Currency Dollar">
<path id="Icon" d="M9.2289 6.93692C9.4702 7.21501 9.89126 7.24484 10.1694 7.00353C10.4474 6.76223 10.4773 6.34118 10.236 6.06308L9.2289 6.93692ZM6.77111 10.0631C6.52981 9.78499 6.10875 9.75516 5.83066 9.99647C5.55257 10.2378 5.52274 10.6588 5.76404 10.9369L6.77111 10.0631ZM8.66667 5.16667C8.66667 4.79848 8.36819 4.5 8 4.5C7.63181 4.5 7.33333 4.79848 7.33333 5.16667H8.66667ZM7.33333 11.8333C7.33333 12.2015 7.6318 12.5 7.99999 12.5C8.36818 12.5 8.66666 12.2015 8.66667 11.8333L7.33333 11.8333ZM13.3333 8.5C13.3333 11.4455 10.9455 13.8333 8 13.8333V15.1667C11.6819 15.1667 14.6667 12.1819 14.6667 8.5H13.3333ZM8 13.8333C5.05448 13.8333 2.66667 11.4455 2.66667 8.5H1.33333C1.33333 12.1819 4.3181 15.1667 8 15.1667V13.8333ZM2.66667 8.5C2.66667 5.55448 5.05448 3.16667 8 3.16667V1.83333C4.3181 1.83333 1.33333 4.8181 1.33333 8.5H2.66667ZM8 3.16667C10.9455 3.16667 13.3333 5.55448 13.3333 8.5H14.6667C14.6667 4.8181 11.6819 1.83333 8 1.83333V3.16667ZM8 7.83333C7.56097 7.83333 7.19367 7.7135 6.95559 7.55478C6.71285 7.39295 6.66667 7.2426 6.66667 7.16667H5.33333C5.33333 7.82711 5.73487 8.34343 6.21599 8.66418C6.70176 8.98803 7.33446 9.16667 8 9.16667V7.83333ZM6.66667 7.16667C6.66667 7.09073 6.71285 6.94038 6.95559 6.77856C7.19367 6.61984 7.56097 6.5 8 6.5V5.16667C7.33446 5.16667 6.70176 5.34531 6.21599 5.66916C5.73487 5.9899 5.33333 6.50622 5.33333 7.16667H6.66667ZM8 6.5C8.60252 6.5 9.04202 6.72154 9.2289 6.93692L10.236 6.06308C9.73124 5.48139 8.87805 5.16667 8 5.16667V6.5ZM8 9.16667C8.43903 9.16667 8.80634 9.28651 9.04442 9.44523C9.28717 9.60706 9.33335 9.7574 9.33335 9.83333H10.6667C10.6667 9.17288 10.2651 8.65657 9.78402 8.33582C9.29824 8.01197 8.66554 7.83333 8 7.83333V9.16667ZM7.33333 5.16667V5.83333H8.66667V5.16667H7.33333ZM7.33335 11.1667L7.33333 11.8333L8.66667 11.8333L8.66668 11.1667L7.33335 11.1667ZM8.00002 10.5C7.3975 10.5 6.95799 10.2785 6.77111 10.0631L5.76404 10.9369C6.26878 11.5186 7.12198 11.8333 8.00001 11.8333L8.00002 10.5ZM9.33335 9.83333C9.33335 9.90927 9.28717 10.0596 9.04443 10.2214C8.80635 10.3802 8.43904 10.5 8.00001 10.5V11.8333C8.66556 11.8333 9.29825 11.6547 9.78403 11.3308C10.2651 11.0101 10.6667 10.4938 10.6667 9.83333H9.33335ZM7.33333 5.83334L7.33335 11.1667L8.66668 11.1667L8.66667 5.83333L7.33333 5.83334Z" fill="#7E7E7E"/>
</g>
</svg>
