<svg width="287" height="48" viewBox="0 0 287 48" fill="none" xmlns="http://www.w3.org/2000/svg">
<rect width="287" height="48" rx="12" fill="#FFDB66"/>
<path d="M108.284 18.3438C108.278 20.0195 108.065 21.5488 107.643 22.9316C107.227 24.3145 106.491 25.6035 105.437 26.7988C104.382 27.9941 102.935 29.043 101.095 29.9453L100.181 28.6973C101.569 28.0176 102.709 27.2559 103.6 26.4121C104.49 25.5684 105.179 24.6338 105.665 23.6084L100.515 24.0918L100.269 22.6504L106.175 22.2549C106.403 21.4697 106.55 20.6172 106.614 19.6973H101.095V18.3438H108.284ZM112.362 23.0371H114.806V24.4082H112.362V32.4766H110.693V16.7441H112.362V23.0371ZM124.381 18.3438C124.375 20.0195 124.161 21.5488 123.739 22.9316C123.323 24.3145 122.588 25.6035 121.533 26.7988C120.479 27.9941 119.031 29.043 117.191 29.9453L116.277 28.6973C117.666 28.0176 118.806 27.2559 119.696 26.4121C120.587 25.5684 121.275 24.6338 121.762 23.6084L116.611 24.0918L116.365 22.6504L122.272 22.2549C122.5 21.4697 122.647 20.6172 122.711 19.6973H117.191V18.3438H124.381ZM128.459 23.0371H130.902V24.4082H128.459V32.4766H126.789V16.7441H128.459V23.0371ZM139.458 17.6934C140.577 17.6992 141.576 17.8779 142.455 18.2295C143.34 18.5752 144.031 19.0645 144.529 19.6973C145.027 20.3242 145.276 21.0508 145.276 21.877C145.276 22.6504 145.065 23.3389 144.644 23.9424C144.228 24.54 143.642 25.0205 142.886 25.3838C142.136 25.7412 141.269 25.9609 140.284 26.043V29.1367H146.7V30.5254H132.286V29.1367H138.632V26.043C137.653 25.9609 136.789 25.7412 136.039 25.3838C135.289 25.0205 134.703 24.54 134.281 23.9424C133.865 23.3389 133.657 22.6504 133.657 21.877C133.657 21.0508 133.906 20.3242 134.404 19.6973C134.902 19.0645 135.591 18.5752 136.47 18.2295C137.349 17.8779 138.345 17.6992 139.458 17.6934ZM139.458 19.0645C138.655 19.0586 137.935 19.1729 137.296 19.4072C136.663 19.6357 136.168 19.9668 135.811 20.4004C135.453 20.8281 135.274 21.3203 135.274 21.877C135.274 22.457 135.453 22.9639 135.811 23.3975C136.168 23.8311 136.663 24.165 137.296 24.3994C137.929 24.6338 138.649 24.7539 139.458 24.7598C140.273 24.7539 140.996 24.6338 141.629 24.3994C142.268 24.165 142.766 23.8311 143.123 23.3975C143.481 22.9639 143.659 22.457 143.659 21.877C143.659 21.3203 143.481 20.8281 143.123 20.4004C142.766 19.9668 142.268 19.6357 141.629 19.4072C140.99 19.1729 140.267 19.0586 139.458 19.0645ZM167.731 30.6133H153.317V29.207H159.663V26.4473H155.075V21.4375H164.321V19.2227H155.04V17.8516H165.974V22.7734H156.728V25.0762H166.343V26.4473H161.315V29.207H167.731V30.6133ZM181.894 20.0312C181.894 20.9512 181.883 21.748 181.859 22.4219C181.842 23.0957 181.792 23.875 181.71 24.7598C181.628 25.6387 181.496 26.5996 181.314 27.6426L179.609 27.4844C179.803 26.5117 179.946 25.5918 180.04 24.7246C180.134 23.8574 180.189 23.0869 180.207 22.4131C180.23 21.7334 180.242 20.9395 180.242 20.0312V19.7148H170.961V18.3438H181.894V20.0312ZM183.775 30.2617H169.414V28.873H183.775V30.2617ZM198.571 28.2051H196.901V16.7617H198.571V28.2051ZM199.046 32.1602H188.27V27.0449H189.958V30.8066H199.046V32.1602ZM190.028 17.8164C190.813 17.8164 191.522 17.9834 192.155 18.3174C192.794 18.6514 193.295 19.1143 193.658 19.7061C194.027 20.2979 194.212 20.9688 194.212 21.7188C194.212 22.4805 194.027 23.1602 193.658 23.7578C193.295 24.3496 192.794 24.8125 192.155 25.1465C191.522 25.4746 190.813 25.6387 190.028 25.6387C189.243 25.6387 188.531 25.4746 187.892 25.1465C187.254 24.8125 186.75 24.3467 186.381 23.749C186.012 23.1514 185.827 22.4746 185.827 21.7188C185.827 20.9688 186.012 20.2979 186.381 19.7061C186.75 19.1143 187.254 18.6514 187.892 18.3174C188.531 17.9834 189.243 17.8164 190.028 17.8164ZM190.028 19.2754C189.542 19.2754 189.102 19.3809 188.71 19.5918C188.323 19.7969 188.018 20.084 187.796 20.4531C187.573 20.8223 187.462 21.2441 187.462 21.7188C187.462 22.2051 187.57 22.6357 187.787 23.0107C188.01 23.3799 188.314 23.667 188.701 23.8721C189.094 24.0771 189.536 24.1797 190.028 24.1797C190.509 24.1797 190.942 24.0771 191.329 23.8721C191.716 23.667 192.02 23.377 192.243 23.002C192.466 22.627 192.577 22.1992 192.577 21.7188C192.577 21.25 192.466 20.8311 192.243 20.4619C192.02 20.0869 191.713 19.7969 191.32 19.5918C190.933 19.3809 190.503 19.2754 190.028 19.2754Z" fill="#FEE500"/>
<path d="M108.284 18.3438C108.278 20.0195 108.065 21.5488 107.643 22.9316C107.227 24.3145 106.491 25.6035 105.437 26.7988C104.382 27.9941 102.935 29.043 101.095 29.9453L100.181 28.6973C101.569 28.0176 102.709 27.2559 103.6 26.4121C104.49 25.5684 105.179 24.6338 105.665 23.6084L100.515 24.0918L100.269 22.6504L106.175 22.2549C106.403 21.4697 106.55 20.6172 106.614 19.6973H101.095V18.3438H108.284ZM112.362 23.0371H114.806V24.4082H112.362V32.4766H110.693V16.7441H112.362V23.0371ZM124.381 18.3438C124.375 20.0195 124.161 21.5488 123.739 22.9316C123.323 24.3145 122.588 25.6035 121.533 26.7988C120.479 27.9941 119.031 29.043 117.191 29.9453L116.277 28.6973C117.666 28.0176 118.806 27.2559 119.696 26.4121C120.587 25.5684 121.275 24.6338 121.762 23.6084L116.611 24.0918L116.365 22.6504L122.272 22.2549C122.5 21.4697 122.647 20.6172 122.711 19.6973H117.191V18.3438H124.381ZM128.459 23.0371H130.902V24.4082H128.459V32.4766H126.789V16.7441H128.459V23.0371ZM139.458 17.6934C140.577 17.6992 141.576 17.8779 142.455 18.2295C143.34 18.5752 144.031 19.0645 144.529 19.6973C145.027 20.3242 145.276 21.0508 145.276 21.877C145.276 22.6504 145.065 23.3389 144.644 23.9424C144.228 24.54 143.642 25.0205 142.886 25.3838C142.136 25.7412 141.269 25.9609 140.284 26.043V29.1367H146.7V30.5254H132.286V29.1367H138.632V26.043C137.653 25.9609 136.789 25.7412 136.039 25.3838C135.289 25.0205 134.703 24.54 134.281 23.9424C133.865 23.3389 133.657 22.6504 133.657 21.877C133.657 21.0508 133.906 20.3242 134.404 19.6973C134.902 19.0645 135.591 18.5752 136.47 18.2295C137.349 17.8779 138.345 17.6992 139.458 17.6934ZM139.458 19.0645C138.655 19.0586 137.935 19.1729 137.296 19.4072C136.663 19.6357 136.168 19.9668 135.811 20.4004C135.453 20.8281 135.274 21.3203 135.274 21.877C135.274 22.457 135.453 22.9639 135.811 23.3975C136.168 23.8311 136.663 24.165 137.296 24.3994C137.929 24.6338 138.649 24.7539 139.458 24.7598C140.273 24.7539 140.996 24.6338 141.629 24.3994C142.268 24.165 142.766 23.8311 143.123 23.3975C143.481 22.9639 143.659 22.457 143.659 21.877C143.659 21.3203 143.481 20.8281 143.123 20.4004C142.766 19.9668 142.268 19.6357 141.629 19.4072C140.99 19.1729 140.267 19.0586 139.458 19.0645ZM167.731 30.6133H153.317V29.207H159.663V26.4473H155.075V21.4375H164.321V19.2227H155.04V17.8516H165.974V22.7734H156.728V25.0762H166.343V26.4473H161.315V29.207H167.731V30.6133ZM181.894 20.0312C181.894 20.9512 181.883 21.748 181.859 22.4219C181.842 23.0957 181.792 23.875 181.71 24.7598C181.628 25.6387 181.496 26.5996 181.314 27.6426L179.609 27.4844C179.803 26.5117 179.946 25.5918 180.04 24.7246C180.134 23.8574 180.189 23.0869 180.207 22.4131C180.23 21.7334 180.242 20.9395 180.242 20.0312V19.7148H170.961V18.3438H181.894V20.0312ZM183.775 30.2617H169.414V28.873H183.775V30.2617ZM198.571 28.2051H196.901V16.7617H198.571V28.2051ZM199.046 32.1602H188.27V27.0449H189.958V30.8066H199.046V32.1602ZM190.028 17.8164C190.813 17.8164 191.522 17.9834 192.155 18.3174C192.794 18.6514 193.295 19.1143 193.658 19.7061C194.027 20.2979 194.212 20.9688 194.212 21.7188C194.212 22.4805 194.027 23.1602 193.658 23.7578C193.295 24.3496 192.794 24.8125 192.155 25.1465C191.522 25.4746 190.813 25.6387 190.028 25.6387C189.243 25.6387 188.531 25.4746 187.892 25.1465C187.254 24.8125 186.75 24.3467 186.381 23.749C186.012 23.1514 185.827 22.4746 185.827 21.7188C185.827 20.9688 186.012 20.2979 186.381 19.7061C186.75 19.1143 187.254 18.6514 187.892 18.3174C188.531 17.9834 189.243 17.8164 190.028 17.8164ZM190.028 19.2754C189.542 19.2754 189.102 19.3809 188.71 19.5918C188.323 19.7969 188.018 20.084 187.796 20.4531C187.573 20.8223 187.462 21.2441 187.462 21.7188C187.462 22.2051 187.57 22.6357 187.787 23.0107C188.01 23.3799 188.314 23.667 188.701 23.8721C189.094 24.0771 189.536 24.1797 190.028 24.1797C190.509 24.1797 190.942 24.0771 191.329 23.8721C191.716 23.667 192.02 23.377 192.243 23.002C192.466 22.627 192.577 22.1992 192.577 21.7188C192.577 21.25 192.466 20.8311 192.243 20.4619C192.02 20.0869 191.713 19.7969 191.32 19.5918C190.933 19.3809 190.503 19.2754 190.028 19.2754Z" fill="#392020"/>
<path d="M36.2405 14C30.0181 14 25 18.0144 25 22.888C25 26.0514 27.0875 28.8213 30.2188 30.403L29.159 34.3613C29.139 34.4207 29.1359 34.4843 29.1501 34.5453C29.1643 34.6063 29.1952 34.6621 29.2393 34.7065C29.3036 34.7633 29.3864 34.7946 29.4721 34.7948C29.5432 34.7891 29.6107 34.761 29.6648 34.7146L34.2252 31.6395C34.8984 31.7324 35.577 31.7807 36.2566 31.784C42.4709 31.784 47.4971 27.7696 47.4971 22.888C47.4971 18.0064 42.4549 14 36.2405 14Z" fill="#392020"/>
</svg>
