<svg width="24" height="63" viewBox="0 0 24 63" fill="none" xmlns="http://www.w3.org/2000/svg">
<path fillRule="evenodd" clipRule="evenodd" d="M17.9397 4.86033C21.2201 8.14073 21.2201 13.4593 17.9397 16.7397L12 22.6794L6.06028 16.7397C2.77987 13.4593 2.77987 8.14073 6.06028 4.86033C9.34068 1.57992 14.6593 1.57992 17.9397 4.86033ZM12 13.2C13.3255 13.2 14.4 12.1255 14.4 10.8C14.4 9.47454 13.3255 8.40002 12 8.40002C10.6745 8.40002 9.59998 9.47454 9.59998 10.8C9.59998 12.1255 10.6745 13.2 12 13.2Z" fill="#E0E0E0"/>
<rect x="10" y="18" width="4" height="45" fill="url(#paint0_linear_645_1517)"/>
<defs>
<linearGradient id="paint0_linear_645_1517" x1="12" y1="22.939" x2="12" y2="58.6098" gradientUnits="userSpaceOnUse">
<stop stop-color="#E0E0E0"/>
<stop offset="1" stop-color="#E0E0E0" stop-opacity="0"/>
</linearGradient>
</defs>
</svg>
