<svg width="26" height="26" viewBox="0 0 26 26" fill="none" xmlns="http://www.w3.org/2000/svg">
<g id="user / user">
<g id="coolicon">
<path d="M7.58334 8.66667C7.58334 5.67512 10.0085 3.25 13 3.25C15.9916 3.25 18.4167 5.67512 18.4167 8.66667C18.4167 11.6582 15.9916 14.0833 13 14.0833C10.0085 14.0833 7.58334 11.6582 7.58334 8.66667ZM13 11.9167C14.7949 11.9167 16.25 10.4616 16.25 8.66667C16.25 6.87174 14.7949 5.41667 13 5.41667C11.2051 5.41667 9.75001 6.87174 9.75001 8.66667C9.75001 10.4616 11.2051 11.9167 13 11.9167Z" fill="#606060"/>
<path d="M6.87175 17.7051C5.24644 19.3304 4.33334 21.5348 4.33334 23.8333H6.50001C6.50001 22.1094 7.18483 20.4561 8.40382 19.2371C9.6228 18.0182 11.2761 17.3333 13 17.3333C14.7239 17.3333 16.3772 18.0182 17.5962 19.2371C18.8152 20.4561 19.5 22.1094 19.5 23.8333H21.6667C21.6667 21.5348 20.7536 19.3304 19.1283 17.7051C17.503 16.0798 15.2986 15.1667 13 15.1667C10.7015 15.1667 8.49707 16.0798 6.87175 17.7051Z" fill="#606060"/>
</g>
</g>
</svg>
