<svg width="25" height="25" viewBox="0 0 25 25" fill="none" xmlns="http://www.w3.org/2000/svg">
<path d="M12.0161 5.5L12.0161 5.51M12.0161 12.5L12.0161 12.51M12.0161 19.5L12.0161 19.51M12.0161 6.5C11.4638 6.5 11.0161 6.05228 11.0161 5.5C11.0161 4.94772 11.4638 4.5 12.0161 4.5C12.5684 4.5 13.0161 4.94772 13.0161 5.5C13.0161 6.05228 12.5684 6.5 12.0161 6.5ZM12.0161 13.5C11.4638 13.5 11.0161 13.0523 11.0161 12.5C11.0161 11.9477 11.4638 11.5 12.0161 11.5C12.5684 11.5 13.0161 11.9477 13.0161 12.5C13.0161 13.0523 12.5684 13.5 12.0161 13.5ZM12.0161 20.5C11.4638 20.5 11.0161 20.0523 11.0161 19.5C11.0161 18.9477 11.4638 18.5 12.0161 18.5C12.5684 18.5 13.0161 18.9477 13.0161 19.5C13.0161 20.0523 12.5684 20.5 12.0161 20.5Z" stroke="#606060" strokeWidth="2" strokeLinecap="round" strokeLinejoin="round"/>
</svg>
