<svg width="123" height="58" viewBox="0 0 123 58" fill="none" xmlns="http://www.w3.org/2000/svg">
<path fill-rule="evenodd" clip-rule="evenodd" d="M72.8387 33.6267C77.4373 37.9525 77.4373 44.966 72.8387 49.2918L64.5122 57.1244L56.1857 49.2918C51.5871 44.966 51.5871 37.9525 56.1857 33.6267C60.7843 29.3009 68.2401 29.3009 72.8387 33.6267ZM56.1854 44.6238C58.0435 44.6238 59.5498 43.2069 59.5498 41.459C59.5498 39.7111 58.0435 38.2942 56.1854 38.2942C54.3273 38.2942 52.821 39.7111 52.821 41.459C52.821 43.2069 54.3273 44.6238 56.1854 44.6238Z" fill="#1EDD81"/>
<rect width="123" height="49.3713" rx="24.6857" fill="#1EDD81"/>
<path d="M31.2172 17.0594H39.2382V19.2064H31.2172V17.0594ZM33.5263 21.2522H36.1999V25.8905H33.5263V21.2522ZM38.1849 17.0594H40.8383V18.2747C40.8383 19.5305 40.8383 21.1711 40.413 23.2169L37.8001 23.0143C38.1849 21.0091 38.1849 19.5305 38.1849 18.2747V17.0594ZM42.6612 16.0466H45.3754V27.4704H42.6612V16.0466ZM44.3019 20.6445H47.6237V22.8725H44.3019V20.6445ZM30.3868 26.721L30.1235 24.574C33.4858 24.574 37.9013 24.5334 41.6485 24.0676L41.8105 25.9715C37.9621 26.64 33.7086 26.721 30.3868 26.721ZM39.0356 27.6932C43.0258 27.6932 45.5374 29.03 45.5374 31.2176C45.5374 33.4659 43.0258 34.7824 39.0356 34.7824C35.0454 34.7824 32.554 33.4659 32.554 31.2176C32.554 29.03 35.0454 27.6932 39.0356 27.6932ZM39.0356 29.7592C36.6253 29.7592 35.2885 30.2453 35.2885 31.2176C35.2885 32.2303 36.6253 32.6962 39.0356 32.6962C41.4662 32.6962 42.7625 32.2303 42.7625 31.2176C42.7625 30.2453 41.4662 29.7592 39.0356 29.7592ZM53.9619 27.1463H56.6558V30.1846H53.9619V27.1463ZM61.8411 16.0466H64.5552V34.8027H61.8411V16.0466ZM63.6032 23.6625H66.9048V25.8905H63.6032V23.6625ZM49.7489 31.6834L49.4248 29.5162C52.6656 29.5162 57.1217 29.4959 60.9093 28.9693L61.1119 30.9137C57.1622 31.6834 52.9086 31.6834 49.7489 31.6834ZM49.7691 18.1126H60.8081V20.2192H49.7691V18.1126ZM55.319 20.9686C57.9926 20.9686 59.8966 22.3864 59.8966 24.4727C59.8966 26.5792 57.9926 27.997 55.319 27.997C52.6251 27.997 50.7414 26.5792 50.7414 24.4727C50.7414 22.3864 52.6251 20.9686 55.319 20.9686ZM55.319 22.9941C54.0834 22.9941 53.2935 23.5207 53.2935 24.4727C53.2935 25.4449 54.0834 25.9715 55.319 25.9715C56.5343 25.9715 57.3445 25.4449 57.3445 24.4727C57.3445 23.5207 56.5343 22.9941 55.319 22.9941ZM53.9619 16.1479H56.6558V19.6925H53.9619V16.1479ZM68.8679 25.3031H85.8415V27.4502H68.8679V25.3031ZM76.2205 26.6602H78.9346V30.6099H76.2205V26.6602ZM70.9542 16.8366H83.6945V23.8043H70.9542V16.8366ZM81.0411 18.9431H73.5873V21.6978H81.0411V18.9431ZM70.8327 32.3316H83.9781V34.4786H70.8327V32.3316ZM70.8327 29.03H73.5063V33.0405H70.8327V29.03ZM96.413 18.5582H101.963V20.7255H96.413V18.5582ZM96.413 22.6295H101.963V24.7968H96.413V22.6295ZM91.0252 27.997H103.806V34.8027H101.112V30.1238H91.0252V27.997ZM101.112 16.0466H103.806V27.1463H101.112V16.0466ZM93.2938 17.0189C96.0889 17.0189 98.236 18.9633 98.236 21.6573C98.236 24.3714 96.0889 26.3159 93.2938 26.3159C90.4783 26.3159 88.3313 24.3714 88.3313 21.6573C88.3313 18.9633 90.4783 17.0189 93.2938 17.0189ZM93.2938 19.3077C91.9164 19.3077 90.9037 20.1786 90.9037 21.6573C90.9037 23.1561 91.9164 24.0271 93.2938 24.0271C94.6508 24.0271 95.6838 23.1561 95.6838 21.6573C95.6838 20.1786 94.6508 19.3077 93.2938 19.3077Z" fill="white"/>
<path d="M25.1771 25.3186L17.8875 18.4615V32.1758L25.1771 25.3186Z" fill="white"/>
</svg>
